<?xml version="1.0" encoding="utf-8"?>
<!-- Generator: Adobe Illustrator 22.1.0, SVG Export Plug-In . SVG Version: 6.00 Build 0)  -->
<svg version="1.1" id="Layer_1" xmlns="http://www.w3.org/2000/svg" xmlns:xlink="http://www.w3.org/1999/xlink" x="0px" y="0px"
	 viewBox="0 0 720 720" style="enable-background:new 0 0 720 720;" xml:space="preserve">
<style type="text/css">
	.st0{opacity:0.46;}
	.st1{fill:#6374EA;}
	.st2{fill:none;stroke:#F9F9F9;stroke-linecap:round;stroke-linejoin:round;stroke-miterlimit:10;stroke-dasharray:3.043,3.0433;}
	.st3{fill:none;stroke:#C42B2D;stroke-linecap:round;stroke-linejoin:round;stroke-miterlimit:10;stroke-dasharray:3.043,3.0433;}
	.st4{fill:#EA6BFC;}
	.st5{fill:#9F353B;}
	.st6{font-family:'California-Medium';}
	.st7{font-size:127.7897px;}
	.st8{opacity:0.55;fill:#FFFFFF;}
	.st9{opacity:0.59;}
	.st10{fill:#62ED79;}
	.st11{fill:#EAD963;}
</style>
<g class="st0">
	<g>
		<g id="RTROdF_17_">
			<g>
				<g>
					<path class="st1" d="M499.4,380.8c4.6,8.1,9.2,16.3,13.9,24.4c0.6,1.1,0.6,1.8,0,2.9c-2.3,3.8-4.5,7.5-6.7,11.4
						c-0.6,1.1-1.3,1.5-2.6,1.5c-30.3-0.2-60.6-0.4-90.8-0.6c-2.8,0-5.6,0-8.4-0.1c-0.6,0-1.5-0.5-1.8-1.1c-2.4-4.1-4.7-8.1-7-12.3
						c-0.3-0.6-0.3-1.6,0-2.1c8.4-14.4,16.9-28.7,25.3-43.1c1.1-1.8,2.1-3.6,3-5.5c0.6-1.2,1.4-1.6,2.8-1.6
						c15.7,0.2,31.5,0.2,47.2,0.3c2.8,0,5.6,0.1,8.4,0c1.5-0.1,2.3,0.6,3,1.8C490.3,364.7,494.9,372.7,499.4,380.8
						C499.4,380.7,499.4,380.7,499.4,380.8z"/>
					<path class="st1" d="M404.2,420.8c33.7,0.2,67.3,0.4,101.1,0.6c-0.7,1.3-1.3,2.4-2,3.5c-0.3,0.4-1,0.6-1.6,0.6
						c-22.6-0.1-45.2-0.3-67.8-0.4c-8-0.1-16-0.3-24,0C406.8,425.1,405,424,404.2,420.8z"/>
					<path class="st1" d="M502.1,426.6c-0.8,2.4-1.8,3.5-4.5,3.5c-18.7-0.3-37.4-0.4-56.1-0.5c-9.8-0.1-19.6-0.2-29.4-0.1
						c-2.6,0-4.4-0.4-4.9-3.5C438.8,426.2,470.4,426.4,502.1,426.6z"/>
					<path class="st1" d="M409.9,431.3c29.9,0.2,59.4,0.4,89.1,0.6c-0.6,1.9-1.3,2.9-3.5,2.8c-27.5-0.3-55-0.4-82.5-0.5
						C411.1,434.2,410.9,432.8,409.9,431.3z"/>
					<path class="st1" d="M413.2,436.6c27.7,0.2,55.2,0.4,82.9,0.5c-0.5,1.6-1.1,2.3-2.8,2.2c-25.7-0.2-51.4-0.4-77.1-0.5
						C414.6,438.8,413.5,438.5,413.2,436.6z"/>
					<path class="st1" d="M493.1,443.1c-0.7,0.3-1.5,0.8-2.2,0.8c-24.2-0.1-48.4-0.3-72.6-0.5c-0.7,0-1.5-0.5-2.2-0.8
						c0.1-0.3,0.1-0.5,0.2-0.8c25.5,0.2,51,0.3,76.6,0.5C492.9,442.6,493,442.8,493.1,443.1z"/>
					<path class="st1" d="M419.3,447.2c23.5,0.2,47,0.3,70.5,0.5c0,0.2,0.1,0.4,0.1,0.6c-0.6,0.1-1.2,0.3-1.9,0.3
						c-14.1-0.1-28.2-0.2-42.4-0.3c-8.2-0.1-16.5-0.1-24.7-0.2c-0.6,0-1.2-0.2-1.8-0.3C419.2,447.6,419.2,447.4,419.3,447.2z"/>
					<path class="st1" d="M424.5,451.8c20,0.1,40.1,0.3,60.1,0.4c0,0.2,0,0.3,0.1,0.5c-0.5,0.1-1.1,0.3-1.6,0.3
						c-12-0.1-24.1-0.2-36.1-0.2c-7,0-14-0.1-21.1-0.1c-0.5,0-1-0.2-1.5-0.2C424.4,452.1,424.4,452,424.5,451.8z"/>
					<path class="st1" d="M428.6,455.7c17.2,0.1,34.5,0.2,51.7,0.3c0,0.1,0,0.3,0.1,0.4c-0.5,0.1-0.9,0.2-1.4,0.2
						c-10.4-0.1-20.7-0.1-31.1-0.2c-6,0-12.1-0.1-18.1-0.1c-0.4,0-0.9-0.1-1.3-0.2C428.6,456,428.6,455.8,428.6,455.7z"/>
				</g>
			</g>
		</g>
	</g>
</g>
<g>
	<g>
		<g>
			<path class="st4" d="M412,573c-0.1,0-0.3,0-0.4-0.1l-1.6-1.1c-0.3-0.2-0.4-0.5-0.3-0.8c0-0.1,0.1-0.3,0.1-0.4
				c0.2-0.3,0.6-0.3,0.9-0.1l1.6,1.3c0.3,0.2,0.3,0.6,0.1,0.9C412.4,572.9,412.2,573,412,573z M407,569.7c-0.1,0-0.3,0-0.4-0.1
				l-3.3-2.2c-0.3-0.2-0.4-0.6-0.2-0.9c0.1-0.1,0.2-0.2,0.3-0.3c0-0.2,0-0.4,0.1-0.5c0.2-0.3,0.6-0.3,0.9-0.1l3.1,2.5
				c0.3,0.2,0.3,0.6,0.1,0.9c0,0-0.1,0.1-0.1,0.1c0,0.1,0,0.2-0.1,0.3C407.4,569.6,407.2,569.7,407,569.7z M400.4,565.2
				c-0.1,0-0.3,0-0.4-0.1l-3.3-2.2c-0.3-0.2-0.4-0.6-0.2-0.9c0.2-0.3,0.6-0.4,0.9-0.2l2,1.4l-2-1.6c-0.3-0.2-0.3-0.6-0.1-0.9
				c0.2-0.3,0.6-0.3,0.9-0.1l3.1,2.5c0.3,0.2,0.3,0.6,0.1,0.9c-0.1,0.2-0.4,0.3-0.6,0.2c0.1,0.2,0.1,0.5,0,0.7
				C400.8,565.1,400.6,565.2,400.4,565.2z M393.7,560.7c-0.1,0-0.3,0-0.4-0.1l-3.3-2.2c-0.3-0.2-0.4-0.6-0.2-0.9
				c0.2-0.3,0.6-0.4,0.9-0.2l3.3,2.2c0.3,0.2,0.4,0.6,0.2,0.9C394.1,560.6,393.9,560.7,393.7,560.7z M394.8,559.1
				c-0.1,0-0.3,0-0.4-0.1l-3.1-2.5c-0.3-0.2-0.3-0.6-0.1-0.9c0.2-0.3,0.6-0.3,0.9-0.1l3.1,2.5c0.3,0.2,0.3,0.6,0.1,0.9
				C395.1,559,394.9,559.1,394.8,559.1z M387.1,556.2c-0.1,0-0.3,0-0.4-0.1l-3.3-2.2c-0.3-0.2-0.4-0.6-0.2-0.9
				c0.2-0.3,0.6-0.4,0.9-0.2l3.3,2.2c0.3,0.2,0.4,0.6,0.2,0.9C387.5,556.1,387.3,556.2,387.1,556.2z M388.5,554.1
				c-0.1,0-0.3,0-0.4-0.1l-3.1-2.5c-0.3-0.2-0.3-0.6-0.1-0.9c0.2-0.3,0.6-0.3,0.9-0.1l3.1,2.5c0.3,0.2,0.3,0.6,0.1,0.9
				C388.9,554,388.7,554.1,388.5,554.1z M380.4,551.7c-0.1,0-0.3,0-0.4-0.1l-3.3-2.2c-0.3-0.2-0.4-0.6-0.2-0.9
				c0.2-0.3,0.6-0.4,0.9-0.2l3.3,2.2c0.3,0.2,0.4,0.6,0.2,0.9C380.8,551.6,380.6,551.7,380.4,551.7z M382.3,549
				c-0.1,0-0.3,0-0.4-0.1l-3.1-2.5c-0.3-0.2-0.3-0.6-0.1-0.9c0.2-0.3,0.6-0.3,0.9-0.1l3.1,2.5c0.3,0.2,0.3,0.6,0.1,0.9
				C382.7,549,382.5,549,382.3,549z M373.8,547.2c-0.1,0-0.3,0-0.4-0.1l-3.3-2.2c-0.3-0.2-0.4-0.6-0.2-0.9c0.2-0.3,0.6-0.4,0.9-0.2
				l3.3,2.2c0.3,0.2,0.4,0.6,0.2,0.9C374.2,547.1,374,547.2,373.8,547.2z M376,544c-0.1,0-0.3,0-0.4-0.1l-3.1-2.5
				c-0.3-0.2-0.3-0.6-0.1-0.9c0.2-0.3,0.6-0.3,0.9-0.1l3.1,2.5c0.3,0.2,0.3,0.6,0.1,0.9C376.4,543.9,376.2,544,376,544z
				 M367.1,542.7c-0.1,0-0.3,0-0.4-0.1l-3.3-2.2c-0.3-0.2-0.4-0.6-0.2-0.9c0.2-0.3,0.6-0.4,0.9-0.2l3.3,2.2c0.3,0.2,0.4,0.6,0.2,0.9
				C367.5,542.6,367.3,542.7,367.1,542.7z M369.8,539c-0.1,0-0.3,0-0.4-0.1l-3.1-2.5c-0.3-0.2-0.3-0.6-0.1-0.9
				c0.2-0.3,0.6-0.3,0.9-0.1l3.1,2.5c0.3,0.2,0.3,0.6,0.1,0.9C370.2,538.9,370,539,369.8,539z M360.5,538.2c-0.1,0-0.3,0-0.4-0.1
				l-3.3-2.2c-0.3-0.2-0.4-0.6-0.2-0.9c0.2-0.3,0.6-0.4,0.9-0.2l3.3,2.2c0.3,0.2,0.4,0.6,0.2,0.9
				C360.9,538.1,360.7,538.2,360.5,538.2z M363.5,533.9c-0.1,0-0.3,0-0.4-0.1l-3.1-2.5c-0.3-0.2-0.3-0.6-0.1-0.9
				c0.2-0.3,0.6-0.3,0.9-0.1l3.1,2.5c0.3,0.2,0.3,0.6,0.1,0.9C363.9,533.8,363.7,533.9,363.5,533.9z M353.8,533.7
				c-0.1,0-0.3,0-0.4-0.1l-3.3-2.2c-0.3-0.2-0.4-0.6-0.2-0.9c0.2-0.3,0.6-0.4,0.9-0.2l3.3,2.2c0.3,0.2,0.4,0.6,0.2,0.9
				C354.2,533.6,354,533.7,353.8,533.7z M347.2,529.2c-0.1,0-0.3,0-0.4-0.1l-3.3-2.2c-0.3-0.2-0.4-0.6-0.2-0.9
				c0.2-0.3,0.6-0.4,0.9-0.2l3.3,2.2c0.3,0.2,0.4,0.6,0.2,0.9C347.6,529.1,347.4,529.2,347.2,529.2z M357.3,528.9
				c-0.1,0-0.3,0-0.4-0.1l-3.1-2.5c-0.3-0.2-0.3-0.6-0.1-0.9c0.2-0.3,0.6-0.3,0.9-0.1l3.1,2.5c0.3,0.2,0.3,0.6,0.1,0.9
				C357.7,528.8,357.5,528.9,357.3,528.9z M340.5,524.7c-0.1,0-0.3,0-0.4-0.1l-3.3-2.2c-0.3-0.2-0.4-0.6-0.2-0.9
				c0.2-0.3,0.6-0.4,0.9-0.2l3.3,2.2c0.3,0.2,0.4,0.6,0.2,0.9C340.9,524.6,340.7,524.7,340.5,524.7z M351,523.8
				c-0.1,0-0.3,0-0.4-0.1l-3.1-2.5c-0.3-0.2-0.3-0.6-0.1-0.9c0.2-0.3,0.6-0.3,0.9-0.1l3.1,2.5c0.3,0.2,0.3,0.6,0.1,0.9
				C351.4,523.8,351.2,523.8,351,523.8z M333.9,520.2c-0.1,0-0.3,0-0.4-0.1l-3.3-2.2c-0.3-0.2-0.4-0.6-0.2-0.9
				c0.2-0.3,0.6-0.4,0.9-0.2l3.3,2.2c0.3,0.2,0.4,0.6,0.2,0.9C334.3,520.1,334.1,520.2,333.9,520.2z M344.8,518.8
				c-0.1,0-0.3,0-0.4-0.1l-3.1-2.5c-0.3-0.2-0.3-0.6-0.1-0.9c0.2-0.3,0.6-0.3,0.9-0.1l3.1,2.5c0.3,0.2,0.3,0.6,0.1,0.9
				C345.2,518.7,345,518.8,344.8,518.8z M327.2,515.7c-0.1,0-0.3,0-0.4-0.1l-3.3-2.2c-0.3-0.2-0.4-0.6-0.2-0.9
				c0.2-0.3,0.6-0.4,0.9-0.2l3.3,2.2c0.3,0.2,0.4,0.6,0.2,0.9C327.6,515.6,327.4,515.7,327.2,515.7z M338.6,513.8
				c-0.1,0-0.3,0-0.4-0.1l-3.1-2.5c-0.3-0.2-0.3-0.6-0.1-0.9c0.2-0.3,0.6-0.3,0.9-0.1l3.1,2.5c0.3,0.2,0.3,0.6,0.1,0.9
				C338.9,513.7,338.7,513.8,338.6,513.8z M320.6,511.3c-0.1,0-0.3,0-0.4-0.1l-3.3-2.2c-0.3-0.2-0.4-0.6-0.2-0.9
				c0.2-0.3,0.6-0.4,0.9-0.2l3.3,2.2c0.3,0.2,0.4,0.6,0.2,0.9C321,511.2,320.8,511.3,320.6,511.3z M332.3,508.7
				c-0.1,0-0.3,0-0.4-0.1l-3.1-2.5c-0.3-0.2-0.3-0.6-0.1-0.9c0.2-0.3,0.6-0.3,0.9-0.1l3.1,2.5c0.3,0.2,0.3,0.6,0.1,0.9
				C332.7,508.6,332.5,508.7,332.3,508.7z M313.9,506.8c-0.1,0-0.3,0-0.4-0.1l-3.3-2.2c-0.3-0.2-0.4-0.6-0.2-0.9
				c0.2-0.3,0.6-0.4,0.9-0.2l3.3,2.2c0.3,0.2,0.4,0.6,0.2,0.9C314.3,506.7,314.1,506.8,313.9,506.8z M326.1,503.7
				c-0.1,0-0.3,0-0.4-0.1l-3.1-2.5c-0.3-0.2-0.3-0.6-0.1-0.9c0.2-0.3,0.6-0.3,0.9-0.1l3.1,2.5c0.3,0.2,0.3,0.6,0.1,0.9
				C326.4,503.6,326.3,503.7,326.1,503.7z M307.3,502.3c-0.1,0-0.3,0-0.4-0.1l-3.3-2.2c-0.3-0.2-0.4-0.6-0.2-0.9
				c0.2-0.3,0.6-0.4,0.9-0.2l3.3,2.2c0.3,0.2,0.4,0.6,0.2,0.9C307.7,502.2,307.5,502.3,307.3,502.3z M319.8,498.7
				c-0.1,0-0.3,0-0.4-0.1l-3.1-2.5c-0.3-0.2-0.3-0.6-0.1-0.9c0.2-0.3,0.6-0.3,0.9-0.1l3.1,2.5c0.3,0.2,0.3,0.6,0.1,0.9
				C320.2,498.6,320,498.7,319.8,498.7z M300.6,497.8c-0.1,0-0.3,0-0.4-0.1l-3.3-2.2c-0.3-0.2-0.4-0.6-0.2-0.9
				c0.2-0.3,0.6-0.4,0.9-0.2l3.3,2.2c0.3,0.2,0.4,0.6,0.2,0.9C301,497.7,300.8,497.8,300.6,497.8z M313.6,493.6
				c-0.1,0-0.3,0-0.4-0.1l-3.1-2.5c-0.3-0.2-0.3-0.6-0.1-0.9c0.2-0.3,0.6-0.3,0.9-0.1l3.1,2.5c0.3,0.2,0.3,0.6,0.1,0.9
				C314,493.5,313.8,493.6,313.6,493.6z M294,493.3c-0.1,0-0.3,0-0.4-0.1l-3.3-2.2c-0.3-0.2-0.4-0.6-0.2-0.9
				c0.2-0.3,0.6-0.4,0.9-0.2l3.3,2.2c0.3,0.2,0.4,0.6,0.2,0.9C294.4,493.2,294.2,493.3,294,493.3z M287.3,488.8
				c-0.1,0-0.3,0-0.4-0.1l-3.3-2.2c-0.3-0.2-0.4-0.6-0.2-0.9c0.2-0.3,0.6-0.4,0.9-0.2l3.3,2.2c0.3,0.2,0.4,0.6,0.2,0.9
				C287.7,488.7,287.5,488.8,287.3,488.8z M307.3,488.6c-0.1,0-0.3,0-0.4-0.1l-3.1-2.5c-0.3-0.2-0.3-0.6-0.1-0.9
				c0.2-0.3,0.6-0.3,0.9-0.1l3.1,2.5c0.3,0.2,0.3,0.6,0.1,0.9C307.7,488.5,307.5,488.6,307.3,488.6z M280.7,484.3
				c-0.1,0-0.3,0-0.4-0.1l-3.3-2.2c-0.3-0.2-0.4-0.6-0.2-0.9c0.2-0.3,0.6-0.4,0.9-0.2l3.3,2.2c0.3,0.2,0.4,0.6,0.2,0.9
				C281.1,484.2,280.9,484.3,280.7,484.3z M301.1,483.5c-0.1,0-0.3,0-0.4-0.1l-3.1-2.5c-0.3-0.2-0.3-0.6-0.1-0.9
				c0.2-0.3,0.6-0.3,0.9-0.1l3.1,2.5c0.3,0.2,0.3,0.6,0.1,0.9C301.5,483.5,301.3,483.5,301.1,483.5z M274,479.8
				c-0.1,0-0.3,0-0.4-0.1l-3.3-2.2c-0.3-0.2-0.4-0.6-0.2-0.9c0.2-0.3,0.6-0.4,0.9-0.2l3.3,2.2c0.3,0.2,0.4,0.6,0.2,0.9
				C274.4,479.7,274.2,479.8,274,479.8z M294.8,478.5c-0.1,0-0.3,0-0.4-0.1l-3.1-2.5c-0.3-0.2-0.3-0.6-0.1-0.9
				c0.2-0.3,0.6-0.3,0.9-0.1l3.1,2.5c0.3,0.2,0.3,0.6,0.1,0.9C295.2,478.4,295,478.5,294.8,478.5z M267.4,475.3
				c-0.1,0-0.3,0-0.4-0.1l-3.3-2.2c-0.3-0.2-0.4-0.6-0.2-0.9c0.2-0.3,0.6-0.4,0.9-0.2l3.3,2.2c0.3,0.2,0.4,0.6,0.2,0.9
				C267.8,475.2,267.6,475.3,267.4,475.3z M288.6,473.5c-0.1,0-0.3,0-0.4-0.1l-3.1-2.5c-0.3-0.2-0.3-0.6-0.1-0.9
				c0.2-0.3,0.6-0.3,0.9-0.1l3.1,2.5c0.3,0.2,0.3,0.6,0.1,0.9C289,473.4,288.8,473.5,288.6,473.5z M260.7,470.8
				c-0.1,0-0.3,0-0.4-0.1l-3.3-2.2c-0.3-0.2-0.4-0.6-0.2-0.9c0.2-0.3,0.6-0.4,0.9-0.2l3.3,2.2c0.3,0.2,0.4,0.6,0.2,0.9
				C261.2,470.7,260.9,470.8,260.7,470.8z M282.4,468.4c-0.1,0-0.3,0-0.4-0.1l-3.1-2.5c-0.3-0.2-0.3-0.6-0.1-0.9
				c0.2-0.3,0.6-0.3,0.9-0.1l3.1,2.5c0.3,0.2,0.3,0.6,0.1,0.9C282.7,468.3,282.5,468.4,282.4,468.4z M254.1,466.3
				c-0.1,0-0.3,0-0.4-0.1l-3.3-2.2c-0.3-0.2-0.4-0.6-0.2-0.9c0.2-0.3,0.6-0.4,0.9-0.2l3.3,2.2c0.3,0.2,0.4,0.6,0.2,0.9
				C254.5,466.2,254.3,466.3,254.1,466.3z M276.1,463.4c-0.1,0-0.3,0-0.4-0.1l-3.1-2.5c-0.3-0.2-0.3-0.6-0.1-0.9
				c0.2-0.3,0.6-0.3,0.9-0.1l3.1,2.5c0.3,0.2,0.3,0.6,0.1,0.9C276.5,463.3,276.3,463.4,276.1,463.4z M247.4,461.8
				c-0.1,0-0.3,0-0.4-0.1l-3.3-2.2c-0.3-0.2-0.4-0.6-0.2-0.9c0.2-0.3,0.6-0.4,0.9-0.2l3.3,2.2c0.3,0.2,0.4,0.6,0.2,0.9
				C247.9,461.7,247.6,461.8,247.4,461.8z M269.9,458.3c-0.1,0-0.3,0-0.4-0.1l-3.1-2.5c-0.3-0.2-0.3-0.6-0.1-0.9
				c0.2-0.3,0.6-0.3,0.9-0.1l3.1,2.5c0.3,0.2,0.3,0.6,0.1,0.9C270.2,458.3,270.1,458.3,269.9,458.3z M240.8,457.3
				c-0.1,0-0.3,0-0.4-0.1l-3.3-2.2c-0.3-0.2-0.4-0.6-0.2-0.9c0.2-0.3,0.6-0.4,0.9-0.2l3.3,2.2c0.3,0.2,0.4,0.6,0.2,0.9
				C241.2,457.2,241,457.3,240.8,457.3z M263.6,453.3c-0.1,0-0.3,0-0.4-0.1l-3.1-2.5c-0.3-0.2-0.3-0.6-0.1-0.9
				c0.2-0.3,0.6-0.3,0.9-0.1l3.1,2.5c0.3,0.2,0.3,0.6,0.1,0.9C264,453.2,263.8,453.3,263.6,453.3z M234.1,452.9
				c-0.1,0-0.3,0-0.4-0.1l-3.3-2.2c-0.3-0.2-0.4-0.6-0.2-0.9c0.2-0.3,0.6-0.4,0.9-0.2l3.3,2.2c0.3,0.2,0.4,0.6,0.2,0.9
				C234.6,452.8,234.3,452.9,234.1,452.9z M227.5,448.4c-0.1,0-0.3,0-0.4-0.1l-3.3-2.2c-0.3-0.2-0.4-0.6-0.2-0.9
				c0.2-0.3,0.6-0.4,0.9-0.2l3.3,2.2c0.3,0.2,0.4,0.6,0.2,0.9C227.9,448.3,227.7,448.4,227.5,448.4z M257.4,448.3
				c-0.1,0-0.3,0-0.4-0.1l-3.1-2.5c-0.3-0.2-0.3-0.6-0.1-0.9c0.2-0.3,0.6-0.3,0.9-0.1l3.1,2.5c0.3,0.2,0.3,0.6,0.1,0.9
				C257.8,448.2,257.6,448.3,257.4,448.3z M220.8,443.9c-0.1,0-0.3,0-0.4-0.1l-3.3-2.2c-0.3-0.2-0.4-0.6-0.2-0.9
				c0.2-0.3,0.6-0.4,0.9-0.2l3.3,2.2c0.3,0.2,0.4,0.6,0.2,0.9C221.3,443.8,221,443.9,220.8,443.9z M251.1,443.2
				c-0.1,0-0.3,0-0.4-0.1l-1-0.8c-0.3-0.2-0.3-0.6-0.1-0.9c0.2-0.3,0.6-0.3,0.9-0.1l1,0.8c0.3,0.2,0.3,0.6,0.1,0.9
				C251.5,443.1,251.3,443.2,251.1,443.2z M214.2,439.4c-0.1,0-0.3,0-0.4-0.1l-3.3-2.2c-0.3-0.2-0.4-0.6-0.2-0.9
				c0.2-0.3,0.6-0.4,0.9-0.2l3.3,2.2c0.3,0.2,0.4,0.6,0.2,0.9C214.6,439.3,214.4,439.4,214.2,439.4z M207.5,434.9
				c-0.1,0-0.3,0-0.4-0.1l-3.3-2.2c-0.3-0.2-0.4-0.6-0.2-0.9c0.2-0.3,0.6-0.4,0.9-0.2l3.3,2.2c0.3,0.2,0.4,0.6,0.2,0.9
				C208,434.8,207.8,434.9,207.5,434.9z"/>
		</g>
		<g>
			<path class="st4" d="M412,573c-0.2,0-0.3-0.1-0.5-0.2l-2.1-2c-0.3-0.2-0.3-0.7,0-0.9c0.2-0.3,0.7-0.3,0.9,0l1,1
				c0.2,0,0.5,0.1,0.6,0.3l0.6,0.9c0.2,0.3,0.1,0.7-0.1,0.9C412.3,572.9,412.1,573,412,573z M409.2,568.8c-0.2,0-0.4-0.1-0.6-0.3
				l-2.2-3.4c-0.2-0.3-0.1-0.7,0.2-0.9c0.3-0.2,0.7-0.1,0.9,0.2l2.2,3.4c0.2,0.3,0.1,0.7-0.2,0.9
				C409.4,568.7,409.3,568.8,409.2,568.8z M406.9,568.2c-0.2,0-0.3-0.1-0.5-0.2l-2.9-2.8c-0.3-0.2-0.3-0.7,0-0.9
				c0.2-0.3,0.7-0.3,0.9,0l2.9,2.8c0.3,0.2,0.3,0.7,0,0.9C407.3,568.1,407.1,568.2,406.9,568.2z M401.1,562.7
				c-0.2,0-0.3-0.1-0.5-0.2l-2.9-2.8c-0.3-0.2-0.3-0.7,0-0.9c0.3-0.3,0.7-0.3,0.9,0l2.9,2.8c0.3,0.2,0.3,0.7,0,0.9
				C401.4,562.6,401.2,562.7,401.1,562.7z M404.8,562c-0.2,0-0.4-0.1-0.6-0.3l-2.2-3.4c-0.2-0.3-0.1-0.7,0.2-0.9
				c0.3-0.2,0.7-0.1,0.9,0.2l2.2,3.4c0.2,0.3,0.1,0.7-0.2,0.9C405.1,562,404.9,562,404.8,562z M395.2,557.2c-0.2,0-0.3-0.1-0.5-0.2
				l-2.9-2.8c-0.3-0.2-0.3-0.7,0-0.9c0.3-0.3,0.7-0.3,0.9,0l2.9,2.8c0.3,0.2,0.3,0.7,0,0.9C395.6,557.1,395.4,557.2,395.2,557.2z
				 M400.4,555.3c-0.2,0-0.4-0.1-0.6-0.3l-2.2-3.4c-0.2-0.3-0.1-0.7,0.2-0.9c0.3-0.2,0.7-0.1,0.9,0.2l2.2,3.4
				c0.2,0.3,0.1,0.7-0.2,0.9C400.7,555.3,400.5,555.3,400.4,555.3z M389.4,551.7c-0.2,0-0.3-0.1-0.5-0.2l-2.9-2.8
				c-0.3-0.2-0.3-0.7,0-0.9c0.3-0.3,0.7-0.3,0.9,0l2.9,2.8c0.3,0.2,0.3,0.7,0,0.9C389.8,551.6,389.6,551.7,389.4,551.7z M396,548.6
				c-0.2,0-0.4-0.1-0.6-0.3l-2.2-3.4c-0.2-0.3-0.1-0.7,0.2-0.9c0.3-0.2,0.7-0.1,0.9,0.2l2.2,3.4c0.2,0.3,0.1,0.7-0.2,0.9
				C396.3,548.6,396.1,548.6,396,548.6z M383.6,546.2c-0.2,0-0.3-0.1-0.5-0.2l-2.9-2.8c-0.3-0.2-0.3-0.7,0-0.9
				c0.2-0.3,0.7-0.3,0.9,0l2.9,2.8c0.3,0.2,0.3,0.7,0,0.9C383.9,546.1,383.8,546.2,383.6,546.2z M391.6,541.9
				c-0.2,0-0.4-0.1-0.6-0.3l-2.2-3.4c-0.2-0.3-0.1-0.7,0.2-0.9c0.3-0.2,0.7-0.1,0.9,0.2l2.2,3.4c0.2,0.3,0.1,0.7-0.2,0.9
				C391.9,541.8,391.8,541.9,391.6,541.9z M377.8,540.6c-0.2,0-0.3-0.1-0.5-0.2l-2.9-2.8c-0.3-0.2-0.3-0.7,0-0.9
				c0.2-0.3,0.7-0.3,0.9,0l2.9,2.8c0.3,0.2,0.3,0.7,0,0.9C378.1,540.6,377.9,540.6,377.8,540.6z M387.2,535.2
				c-0.2,0-0.4-0.1-0.6-0.3l-2.2-3.4c-0.2-0.3-0.1-0.7,0.2-0.9c0.3-0.2,0.7-0.1,0.9,0.2l2.2,3.4c0.2,0.3,0.1,0.7-0.2,0.9
				C387.5,535.1,387.4,535.2,387.2,535.2z M371.9,535.1c-0.2,0-0.3-0.1-0.5-0.2l-2.9-2.8c-0.3-0.2-0.3-0.7,0-0.9
				c0.2-0.3,0.7-0.3,0.9,0l2.9,2.8c0.3,0.2,0.3,0.7,0,0.9C372.3,535.1,372.1,535.1,371.9,535.1z M366.1,529.6
				c-0.2,0-0.3-0.1-0.5-0.2l-2.9-2.8c-0.3-0.2-0.3-0.7,0-0.9c0.3-0.3,0.7-0.3,0.9,0l2.9,2.8c0.3,0.2,0.3,0.7,0,0.9
				C366.4,529.5,366.3,529.6,366.1,529.6z M382.9,528.4c-0.2,0-0.4-0.1-0.6-0.3l-2.2-3.4c-0.2-0.3-0.1-0.7,0.2-0.9
				c0.3-0.2,0.7-0.1,0.9,0.2l2.2,3.4c0.2,0.3,0.1,0.7-0.2,0.9C383.1,528.4,383,528.4,382.9,528.4z M360.3,524.1
				c-0.2,0-0.3-0.1-0.5-0.2l-2.9-2.8c-0.3-0.3-0.3-0.7,0-0.9c0.3-0.3,0.7-0.3,0.9,0l2.9,2.8c0.3,0.3,0.3,0.7,0,0.9
				C360.6,524,360.4,524.1,360.3,524.1z M378.5,521.7c-0.2,0-0.4-0.1-0.6-0.3l-2.2-3.4c-0.2-0.3-0.1-0.7,0.2-0.9
				c0.3-0.2,0.7-0.1,0.9,0.2l2.2,3.4c0.2,0.3,0.1,0.7-0.2,0.9C378.7,521.7,378.6,521.7,378.5,521.7z M354.4,518.6
				c-0.2,0-0.3-0.1-0.5-0.2l-2.9-2.8c-0.3-0.2-0.3-0.7,0-0.9c0.3-0.3,0.7-0.3,0.9,0l2.9,2.8c0.3,0.2,0.3,0.7,0,0.9
				C354.8,518.5,354.6,518.6,354.4,518.6z M374.1,515c-0.2,0-0.4-0.1-0.6-0.3l-2.2-3.4c-0.2-0.3-0.1-0.7,0.2-0.9
				c0.3-0.2,0.7-0.1,0.9,0.2l2.2,3.4c0.2,0.3,0.1,0.7-0.2,0.9C374.3,515,374.2,515,374.1,515z M348.6,513.1c-0.2,0-0.3-0.1-0.5-0.2
				l-2.9-2.8c-0.3-0.2-0.3-0.7,0-0.9c0.2-0.3,0.7-0.3,0.9,0l2.9,2.8c0.3,0.2,0.3,0.7,0,0.9C349,513,348.8,513.1,348.6,513.1z
				 M369.7,508.3c-0.2,0-0.4-0.1-0.6-0.3l-2.2-3.4c-0.2-0.3-0.1-0.7,0.2-0.9c0.3-0.2,0.7-0.1,0.9,0.2l2.2,3.4
				c0.2,0.3,0.1,0.7-0.2,0.9C369.9,508.3,369.8,508.3,369.7,508.3z M342.8,507.6c-0.2,0-0.3-0.1-0.5-0.2l-2.9-2.8
				c-0.3-0.2-0.3-0.7,0-0.9c0.2-0.3,0.7-0.3,0.9,0l2.9,2.8c0.3,0.2,0.3,0.7,0,0.9C343.1,507.5,343,507.6,342.8,507.6z M336.9,502.1
				c-0.2,0-0.3-0.1-0.5-0.2l-2.9-2.8c-0.3-0.2-0.3-0.7,0-0.9c0.3-0.3,0.7-0.3,0.9,0l2.9,2.8c0.3,0.2,0.3,0.7,0,0.9
				C337.3,502,337.1,502.1,336.9,502.1z M365.3,501.6c-0.2,0-0.4-0.1-0.6-0.3l-2.2-3.4c-0.2-0.3-0.1-0.7,0.2-0.9
				c0.3-0.2,0.7-0.1,0.9,0.2l2.2,3.4c0.2,0.3,0.1,0.7-0.2,0.9C365.6,501.5,365.4,501.6,365.3,501.6z M331.1,496.5
				c-0.2,0-0.3-0.1-0.5-0.2l-2.9-2.8c-0.3-0.2-0.3-0.7,0-0.9c0.3-0.3,0.7-0.3,0.9,0l2.9,2.8c0.3,0.2,0.3,0.7,0,0.9
				C331.5,496.5,331.3,496.5,331.1,496.5z M360.9,494.9c-0.2,0-0.4-0.1-0.6-0.3l-2.2-3.4c-0.2-0.3-0.1-0.7,0.2-0.9
				c0.3-0.2,0.7-0.1,0.9,0.2l2.2,3.4c0.2,0.3,0.1,0.7-0.2,0.9C361.2,494.8,361,494.9,360.9,494.9z M325.3,491
				c-0.2,0-0.3-0.1-0.5-0.2l-2.9-2.8c-0.3-0.2-0.3-0.7,0-0.9c0.3-0.3,0.7-0.3,0.9,0l2.9,2.8c0.3,0.2,0.3,0.7,0,0.9
				C325.6,491,325.5,491,325.3,491z M356.5,488.1c-0.2,0-0.4-0.1-0.6-0.3l-2.2-3.4c-0.2-0.3-0.1-0.7,0.2-0.9
				c0.3-0.2,0.7-0.1,0.9,0.2l2.2,3.4c0.2,0.3,0.1,0.7-0.2,0.9C356.8,488.1,356.7,488.1,356.5,488.1z M319.5,485.5
				c-0.2,0-0.3-0.1-0.5-0.2l-2.9-2.8c-0.3-0.2-0.3-0.7,0-0.9c0.2-0.3,0.7-0.3,0.9,0l2.9,2.8c0.3,0.2,0.3,0.7,0,0.9
				C319.8,485.4,319.6,485.5,319.5,485.5z M352.1,481.4c-0.2,0-0.4-0.1-0.6-0.3l-2.2-3.4c-0.2-0.3-0.1-0.7,0.2-0.9
				c0.3-0.2,0.7-0.1,0.9,0.2l2.2,3.4c0.2,0.3,0.1,0.7-0.2,0.9C352.4,481.4,352.3,481.4,352.1,481.4z M313.6,480
				c-0.2,0-0.3-0.1-0.5-0.2l-2.9-2.8c-0.3-0.2-0.3-0.7,0-0.9c0.2-0.3,0.7-0.3,0.9,0l2.9,2.8c0.3,0.2,0.3,0.7,0,0.9
				C314,479.9,313.8,480,313.6,480z M347.7,474.7c-0.2,0-0.4-0.1-0.6-0.3L345,471c-0.2-0.3-0.1-0.7,0.2-0.9c0.3-0.2,0.7-0.1,0.9,0.2
				l2.2,3.4c0.2,0.3,0.1,0.7-0.2,0.9C348,474.7,347.9,474.7,347.7,474.7z M307.8,474.5c-0.2,0-0.3-0.1-0.5-0.2l-2.9-2.8
				c-0.3-0.2-0.3-0.7,0-0.9c0.2-0.3,0.7-0.3,0.9,0l2.9,2.8c0.3,0.2,0.3,0.7,0,0.9C308.1,474.4,308,474.5,307.8,474.5z M302,469
				c-0.2,0-0.3-0.1-0.5-0.2l-2.9-2.8c-0.3-0.2-0.3-0.7,0-0.9c0.3-0.3,0.7-0.3,0.9,0l2.9,2.8c0.3,0.2,0.3,0.7,0,0.9
				C302.3,468.9,302.1,469,302,469z M343.4,468c-0.2,0-0.4-0.1-0.6-0.3l-2.2-3.4c-0.2-0.3-0.1-0.7,0.2-0.9c0.3-0.2,0.7-0.1,0.9,0.2
				l2.2,3.4c0.2,0.3,0.1,0.7-0.2,0.9C343.6,468,343.5,468,343.4,468z M296.1,463.5c-0.2,0-0.3-0.1-0.5-0.2l-2.9-2.8
				c-0.3-0.2-0.3-0.7,0-0.9c0.3-0.3,0.7-0.3,0.9,0l2.9,2.8c0.3,0.2,0.3,0.7,0,0.9C296.5,463.4,296.3,463.5,296.1,463.5z M339,461.3
				c-0.2,0-0.4-0.1-0.6-0.3l-2.2-3.4c-0.2-0.3-0.1-0.7,0.2-0.9c0.3-0.2,0.7-0.1,0.9,0.2l2.2,3.4c0.2,0.3,0.1,0.7-0.2,0.9
				C339.2,461.2,339.1,461.3,339,461.3z M290.3,457.9c-0.2,0-0.3-0.1-0.5-0.2l-2.9-2.8c-0.3-0.2-0.3-0.7,0-0.9
				c0.3-0.3,0.7-0.3,0.9,0l2.9,2.8c0.3,0.2,0.3,0.7,0,0.9C290.7,457.9,290.5,457.9,290.3,457.9z M334.6,454.6
				c-0.2,0-0.4-0.1-0.6-0.3l-2.2-3.4c-0.2-0.3-0.1-0.7,0.2-0.9c0.3-0.2,0.7-0.1,0.9,0.2l2.2,3.4c0.2,0.3,0.1,0.7-0.2,0.9
				C334.8,454.5,334.7,454.6,334.6,454.6z M284.5,452.4c-0.2,0-0.3-0.1-0.5-0.2l-2.9-2.8c-0.3-0.2-0.3-0.7,0-0.9
				c0.2-0.3,0.7-0.3,0.9,0l2.9,2.8c0.3,0.2,0.3,0.7,0,0.9C284.8,452.4,284.7,452.4,284.5,452.4z M330.2,447.8
				c-0.2,0-0.4-0.1-0.6-0.3l-2.2-3.4c-0.2-0.3-0.1-0.7,0.2-0.9c0.3-0.2,0.7-0.1,0.9,0.2l2.2,3.4c0.2,0.3,0.1,0.7-0.2,0.9
				C330.4,447.8,330.3,447.8,330.2,447.8z M278.6,446.9c-0.2,0-0.3-0.1-0.5-0.2l-2.9-2.8c-0.3-0.2-0.3-0.7,0-0.9
				c0.2-0.3,0.7-0.3,0.9,0l2.9,2.8c0.3,0.2,0.3,0.7,0,0.9C279,446.8,278.8,446.9,278.6,446.9z M325.8,441.1c-0.2,0-0.4-0.1-0.6-0.3
				l-0.5-0.7c-0.2-0.3-0.1-0.7,0.2-0.9c0.3-0.2,0.7-0.1,0.9,0.2l0.5,0.7c0.2,0.3,0.1,0.7-0.2,0.9
				C326.1,441.1,325.9,441.1,325.8,441.1z"/>
		</g>
		<g>
			<path class="st4" d="M411.9,572c-0.4,0-0.7-0.3-0.7-0.6l-0.1-4c0-0.4,0.3-0.7,0.6-0.7c0,0,0.1,0,0.1,0l0.2-1.3
				c0-0.4,0.4-0.6,0.7-0.6c0.4,0,0.6,0.4,0.6,0.7l-0.5,4c0,0.2-0.2,0.4-0.4,0.5l0,1.3C412.6,571.7,412.3,572,411.9,572
				C412,572,412,572,411.9,572z M411.8,563.9c-0.4,0-0.7-0.3-0.7-0.6l-0.1-4c0-0.4,0.3-0.7,0.6-0.7c0,0,0,0,0,0
				c0.4,0,0.7,0.3,0.7,0.6l0.1,4C412.5,563.6,412.2,563.9,411.8,563.9C411.8,563.9,411.8,563.9,411.8,563.9z M413.3,562.1
				C413.3,562.1,413.3,562.1,413.3,562.1c-0.4-0.1-0.7-0.4-0.7-0.7l0.5-4c0-0.4,0.4-0.6,0.7-0.6c0.4,0,0.6,0.4,0.6,0.7l-0.5,4
				C413.9,561.8,413.7,562.1,413.3,562.1z M411.7,555.9c-0.4,0-0.7-0.3-0.7-0.6l-0.1-4c0-0.4,0.3-0.7,0.6-0.7c0,0,0,0,0,0
				c0.4,0,0.7,0.3,0.7,0.6l0.1,4C412.4,555.6,412.1,555.9,411.7,555.9C411.7,555.9,411.7,555.9,411.7,555.9z M414.3,554.1
				C414.3,554.1,414.3,554.1,414.3,554.1c-0.4-0.1-0.7-0.4-0.7-0.7l0.5-4c0-0.4,0.4-0.6,0.7-0.6c0.4,0,0.6,0.4,0.6,0.7l-0.5,4
				C414.9,553.9,414.6,554.1,414.3,554.1z M411.6,547.9c-0.4,0-0.7-0.3-0.7-0.6l-0.1-4c0-0.4,0.3-0.7,0.6-0.7c0,0,0,0,0,0
				c0.4,0,0.7,0.3,0.7,0.6l0.1,4C412.2,547.6,411.9,547.9,411.6,547.9C411.6,547.9,411.6,547.9,411.6,547.9z M415.3,546.2
				C415.3,546.2,415.3,546.2,415.3,546.2c-0.4-0.1-0.7-0.4-0.7-0.7l0.5-4c0-0.4,0.4-0.6,0.7-0.6c0.4,0,0.6,0.4,0.6,0.7l-0.5,4
				C415.9,545.9,415.6,546.2,415.3,546.2z M411.5,539.9c-0.4,0-0.7-0.3-0.7-0.6l-0.1-4c0-0.4,0.3-0.7,0.6-0.7
				c0.4,0.1,0.7,0.3,0.7,0.6l0.1,4C412.1,539.6,411.8,539.9,411.5,539.9C411.5,539.9,411.5,539.9,411.5,539.9z M416.3,538.2
				C416.3,538.2,416.2,538.2,416.3,538.2c-0.4-0.1-0.7-0.4-0.7-0.7l0.5-4c0-0.4,0.4-0.6,0.7-0.6c0.4,0,0.6,0.4,0.6,0.7l-0.5,4
				C416.9,538,416.6,538.2,416.3,538.2z M411.3,531.8c-0.4,0-0.7-0.3-0.7-0.6l-0.1-4c0-0.4,0.3-0.7,0.6-0.7c0.4,0,0.7,0.3,0.7,0.6
				l0.1,4C412,531.5,411.7,531.8,411.3,531.8C411.3,531.8,411.3,531.8,411.3,531.8z M417.3,530.2
				C417.3,530.2,417.2,530.2,417.3,530.2c-0.4-0.1-0.7-0.4-0.7-0.7l0.5-4c0-0.4,0.4-0.6,0.7-0.6c0.4,0,0.6,0.4,0.6,0.7l-0.5,4
				C417.9,530,417.6,530.2,417.3,530.2z M411.2,523.8c-0.4,0-0.7-0.3-0.7-0.6l-0.1-4c0-0.4,0.3-0.7,0.6-0.7c0,0,0,0,0,0
				c0.4,0,0.7,0.3,0.7,0.6l0.1,4C411.9,523.5,411.6,523.8,411.2,523.8C411.2,523.8,411.2,523.8,411.2,523.8z M418.3,522.3
				C418.3,522.3,418.2,522.3,418.3,522.3c-0.4-0.1-0.7-0.4-0.7-0.7l0.5-4c0-0.4,0.4-0.6,0.7-0.6c0.4,0,0.6,0.4,0.6,0.7l-0.5,4
				C418.9,522,418.6,522.3,418.3,522.3z M411.1,515.8c-0.4,0-0.7-0.3-0.7-0.6l-0.1-4c0-0.4,0.3-0.7,0.6-0.7c0.4,0,0.7,0.3,0.7,0.6
				l0.1,4C411.7,515.5,411.5,515.8,411.1,515.8C411.1,515.8,411.1,515.8,411.1,515.8z M419.3,514.3
				C419.2,514.3,419.2,514.3,419.3,514.3c-0.4-0.1-0.7-0.4-0.7-0.7l0.5-4c0-0.4,0.4-0.6,0.7-0.6c0.4,0,0.6,0.4,0.6,0.7l-0.5,4
				C419.9,514.1,419.6,514.3,419.3,514.3z M411,507.8c-0.4,0-0.7-0.3-0.7-0.6l-0.1-4c0-0.4,0.3-0.7,0.6-0.7c0,0,0,0,0,0
				c0.4,0,0.7,0.3,0.7,0.6l0.1,4C411.6,507.5,411.3,507.8,411,507.8C411,507.8,411,507.8,411,507.8z M420.3,506.3
				C420.2,506.3,420.2,506.3,420.3,506.3c-0.4-0.1-0.7-0.4-0.7-0.7l0.5-4c0-0.4,0.4-0.6,0.7-0.6c0.4,0,0.6,0.4,0.6,0.7l-0.5,4
				C420.9,506.1,420.6,506.3,420.3,506.3z M410.8,499.8c-0.4,0-0.7-0.3-0.7-0.6l-0.1-4c0-0.4,0.3-0.7,0.6-0.7c0.4,0,0.7,0.3,0.7,0.6
				l0.1,4C411.5,499.4,411.2,499.7,410.8,499.8C410.8,499.8,410.8,499.8,410.8,499.8z M421.3,498.4
				C421.2,498.4,421.2,498.4,421.3,498.4c-0.4-0.1-0.7-0.4-0.7-0.7l0.5-4c0-0.4,0.4-0.6,0.7-0.6c0.4,0,0.6,0.4,0.6,0.7l-0.5,4
				C421.9,498.1,421.6,498.4,421.3,498.4z M410.7,491.7c-0.4,0-0.7-0.3-0.7-0.6l-0.1-4c0-0.4,0.3-0.7,0.6-0.7c0.4,0,0.7,0.3,0.7,0.6
				l0.1,4C411.4,491.4,411.1,491.7,410.7,491.7C410.7,491.7,410.7,491.7,410.7,491.7z M422.2,490.4
				C422.2,490.4,422.2,490.4,422.2,490.4c-0.4-0.1-0.7-0.4-0.7-0.7l0.5-4c0-0.4,0.4-0.6,0.7-0.6c0.4,0,0.6,0.4,0.6,0.7l-0.5,4
				C422.9,490.2,422.6,490.4,422.2,490.4z M410.6,483.7c-0.4,0-0.7-0.3-0.7-0.6l-0.1-4c0-0.4,0.3-0.7,0.6-0.7c0.4,0,0.7,0.3,0.7,0.6
				l0.1,4C411.2,483.4,411,483.7,410.6,483.7C410.6,483.7,410.6,483.7,410.6,483.7z M423.2,482.5
				C423.2,482.5,423.2,482.5,423.2,482.5c-0.4-0.1-0.7-0.4-0.7-0.7l0.5-4c0-0.4,0.4-0.6,0.7-0.6c0.4,0,0.6,0.4,0.6,0.7l-0.5,4
				C423.9,482.2,423.6,482.5,423.2,482.5z M410.5,475.7c-0.4,0-0.7-0.3-0.7-0.6l-0.1-4c0-0.4,0.3-0.7,0.6-0.7c0,0,0,0,0,0
				c0.4,0,0.7,0.3,0.7,0.6l0.1,4C411.1,475.4,410.8,475.7,410.5,475.7C410.5,475.7,410.5,475.7,410.5,475.7z M424.2,474.5
				C424.2,474.5,424.2,474.5,424.2,474.5c-0.4-0.1-0.7-0.4-0.7-0.7l0.5-4c0-0.4,0.4-0.6,0.7-0.6c0.4,0,0.6,0.4,0.6,0.7l-0.5,4
				C424.8,474.3,424.6,474.5,424.2,474.5z M410.3,467.7c-0.4,0-0.7-0.3-0.7-0.6l-0.1-4c0-0.4,0.3-0.7,0.6-0.7c0.4,0,0.7,0.3,0.7,0.6
				l0.1,4C411,467.4,410.7,467.7,410.3,467.7C410.3,467.7,410.3,467.7,410.3,467.7z M425.2,466.5
				C425.2,466.5,425.2,466.5,425.2,466.5c-0.4-0.1-0.7-0.4-0.7-0.7l0.5-4c0-0.4,0.4-0.6,0.7-0.6c0.4,0,0.6,0.4,0.6,0.7l-0.5,4
				C425.8,466.3,425.5,466.5,425.2,466.5z M410.2,459.6c-0.4,0-0.7-0.3-0.7-0.6l-0.1-4c0-0.4,0.3-0.7,0.6-0.7c0,0,0,0,0,0
				c0.4,0,0.7,0.3,0.7,0.6l0.1,4C410.9,459.3,410.6,459.6,410.2,459.6C410.2,459.6,410.2,459.6,410.2,459.6z M426.2,458.6
				C426.2,458.6,426.2,458.6,426.2,458.6c-0.4-0.1-0.7-0.4-0.7-0.7l0.5-4c0-0.4,0.4-0.6,0.7-0.6c0.4,0,0.6,0.4,0.6,0.7l-0.5,4
				C426.8,458.3,426.5,458.6,426.2,458.6z M410.1,451.6c-0.4,0-0.7-0.3-0.7-0.6l-0.1-4c0-0.4,0.3-0.7,0.6-0.7c0,0,0,0,0,0
				c0.4,0,0.7,0.3,0.7,0.6l0.1,4C410.7,451.3,410.5,451.6,410.1,451.6C410.1,451.6,410.1,451.6,410.1,451.6z M427.2,450.6
				C427.2,450.6,427.2,450.6,427.2,450.6c-0.4-0.1-0.7-0.4-0.7-0.7l0.5-4c0-0.4,0.4-0.6,0.7-0.6c0.4,0,0.6,0.4,0.6,0.7l-0.5,4
				C427.8,450.4,427.5,450.6,427.2,450.6z M410,443.6c-0.4,0-0.7-0.3-0.7-0.6l-0.1-4c0-0.4,0.3-0.7,0.6-0.7c0,0,0,0,0,0
				c0.4,0,0.7,0.3,0.7,0.6l0.1,4C410.6,443.3,410.3,443.6,410,443.6C410,443.6,410,443.6,410,443.6z M428.2,442.6
				C428.2,442.6,428.1,442.6,428.2,442.6c-0.4-0.1-0.7-0.4-0.7-0.7l0.5-4c0-0.4,0.4-0.6,0.7-0.6c0.4,0,0.6,0.4,0.6,0.7l-0.5,4
				C428.8,442.4,428.5,442.6,428.2,442.6z M409.8,435.6c-0.4,0-0.7-0.3-0.7-0.6l-0.1-4c0-0.4,0.3-0.7,0.6-0.7c0.4,0,0.7,0.3,0.7,0.6
				l0.1,4C410.5,435.3,410.2,435.6,409.8,435.6C409.8,435.6,409.8,435.6,409.8,435.6z M429.2,434.7
				C429.2,434.7,429.1,434.7,429.2,434.7c-0.4-0.1-0.7-0.4-0.7-0.7l0.5-4c0-0.4,0.4-0.6,0.7-0.6c0.4,0,0.6,0.4,0.6,0.7l-0.5,4
				C429.8,434.4,429.5,434.7,429.2,434.7z M409.7,427.5c-0.4,0-0.7-0.3-0.7-0.6l-0.1-4c0-0.4,0.3-0.7,0.6-0.7c0.4,0,0.7,0.3,0.7,0.6
				l0.1,4C410.4,427.2,410.1,427.5,409.7,427.5C409.7,427.5,409.7,427.5,409.7,427.5z M430.2,426.7
				C430.2,426.7,430.1,426.7,430.2,426.7c-0.4-0.1-0.7-0.4-0.7-0.7l0.5-4c0-0.4,0.4-0.6,0.7-0.6c0.4,0,0.6,0.4,0.6,0.7l-0.5,4
				C430.8,426.5,430.5,426.7,430.2,426.7z M409.6,419.5c-0.4,0-0.7-0.3-0.7-0.6l-0.1-4c0-0.4,0.3-0.7,0.6-0.7c0,0,0,0,0,0
				c0.4,0,0.7,0.3,0.7,0.6l0.1,4C410.3,419.2,410,419.5,409.6,419.5C409.6,419.5,409.6,419.5,409.6,419.5z M431.2,418.8
				C431.1,418.8,431.1,418.8,431.2,418.8c-0.4-0.1-0.7-0.4-0.7-0.7l0.5-4c0-0.4,0.4-0.6,0.7-0.6c0.4,0,0.6,0.4,0.6,0.7l-0.5,4
				C431.8,418.5,431.5,418.8,431.2,418.8z M409.5,411.5c-0.4,0-0.7-0.3-0.7-0.6l-0.1-4c0-0.4,0.3-0.7,0.6-0.7c0,0,0,0,0,0
				c0.4,0,0.7,0.3,0.7,0.6l0.1,4C410.1,411.2,409.8,411.5,409.5,411.5C409.5,411.5,409.5,411.5,409.5,411.5z M432.2,410.8
				C432.1,410.8,432.1,410.8,432.2,410.8c-0.4-0.1-0.7-0.4-0.7-0.7l0.5-4c0-0.4,0.4-0.6,0.7-0.6c0.4,0,0.6,0.4,0.6,0.7l-0.5,4
				C432.8,410.6,432.5,410.8,432.2,410.8z M409.3,403.5c-0.4,0-0.7-0.3-0.7-0.6l-0.1-4c0-0.4,0.3-0.7,0.6-0.7c0,0,0,0,0,0
				c0.4,0,0.7,0.3,0.7,0.6l0.1,4C410,403.2,409.7,403.5,409.3,403.5C409.3,403.5,409.3,403.5,409.3,403.5z M433.2,402.8
				C433.1,402.8,433.1,402.8,433.2,402.8c-0.4-0.1-0.7-0.4-0.7-0.7l0.5-4c0-0.4,0.4-0.6,0.7-0.6c0.4,0,0.6,0.4,0.6,0.7l-0.5,4
				C433.8,402.6,433.5,402.8,433.2,402.8z M409.2,395.5c-0.4,0-0.7-0.3-0.7-0.6l-0.1-4c0-0.4,0.3-0.7,0.6-0.7c0.3,0,0.7,0.3,0.7,0.6
				l0.1,4C409.9,395.1,409.6,395.4,409.2,395.5C409.2,395.5,409.2,395.5,409.2,395.5z M434.1,394.9
				C434.1,394.9,434.1,394.9,434.1,394.9c-0.4-0.1-0.7-0.4-0.7-0.7l0.5-4c0-0.4,0.4-0.6,0.7-0.6c0.4,0,0.6,0.4,0.6,0.7l-0.5,4
				C434.8,394.6,434.5,394.9,434.1,394.9z M409.1,387.4c-0.4,0-0.7-0.3-0.7-0.6l-0.1-4c0-0.4,0.3-0.7,0.6-0.7c0.3,0,0.7,0.3,0.7,0.6
				l0.1,4C409.8,387.1,409.5,387.4,409.1,387.4C409.1,387.4,409.1,387.4,409.1,387.4z M435.1,386.9
				C435.1,386.9,435.1,386.9,435.1,386.9c-0.4-0.1-0.7-0.4-0.7-0.7l0.5-4c0-0.4,0.4-0.6,0.7-0.6c0.4,0,0.6,0.4,0.6,0.7l-0.5,4
				C435.7,386.7,435.5,386.9,435.1,386.9z M409,379.4c-0.4,0-0.7-0.3-0.7-0.6l-0.1-4c0-0.4,0.3-0.7,0.6-0.7c0.3,0,0.7,0.3,0.7,0.6
				l0.1,4C409.6,379.1,409.3,379.4,409,379.4C409,379.4,409,379.4,409,379.4z M436.1,378.9C436.1,378.9,436.1,378.9,436.1,378.9
				c-0.4-0.1-0.7-0.4-0.7-0.7l0.5-4c0-0.4,0.4-0.6,0.7-0.6c0.4,0,0.6,0.4,0.6,0.7l-0.5,4C436.7,378.7,436.5,378.9,436.1,378.9z
				 M408.8,371.4c-0.4,0-0.7-0.3-0.7-0.6l-0.1-4c0-0.4,0.3-0.7,0.6-0.7c0,0,0,0,0,0c0.4,0,0.7,0.3,0.7,0.6l0.1,4
				C409.5,371.1,409.2,371.4,408.8,371.4C408.9,371.4,408.8,371.4,408.8,371.4z M437.1,371C437.1,371,437.1,371,437.1,371
				c-0.4-0.1-0.7-0.4-0.7-0.7l0.5-4c0-0.4,0.4-0.6,0.7-0.6c0.4,0,0.6,0.4,0.6,0.7l-0.5,4C437.7,370.7,437.4,371,437.1,371z
				 M408.7,363.4c-0.4,0-0.7-0.3-0.7-0.6l-0.1-4c0-0.4,0.3-0.7,0.6-0.7c0.3,0,0.7,0.3,0.7,0.6l0.1,4
				C409.4,363.1,409.1,363.4,408.7,363.4C408.7,363.4,408.7,363.4,408.7,363.4z M438.1,363C438.1,363,438.1,363,438.1,363
				c-0.4-0.1-0.7-0.4-0.7-0.7l0.5-4c0-0.4,0.4-0.6,0.7-0.6c0.4,0,0.6,0.4,0.6,0.7l-0.5,4C438.7,362.8,438.4,363,438.1,363z
				 M408.6,355.3c-0.4,0-0.7-0.3-0.7-0.6l-0.1-4c0-0.4,0.3-0.7,0.6-0.7c0,0,0,0,0,0c0.4,0,0.7,0.3,0.7,0.6l0.1,4
				C409.3,355,409,355.3,408.6,355.3C408.6,355.3,408.6,355.3,408.6,355.3z M439.1,355.1C439.1,355.1,439,355.1,439.1,355.1
				c-0.4-0.1-0.7-0.4-0.7-0.7l0.3-2.6c0-0.4,0.4-0.6,0.7-0.6c0.4,0,0.6,0.4,0.6,0.7l-0.3,2.6C439.7,354.8,439.4,355.1,439.1,355.1z"
				/>
		</g>
		<g>
			<path class="st4" d="M439.4,352.5c-0.3,0-0.5-0.2-0.6-0.5l-1.1-3.8c-0.1-0.3,0.1-0.7,0.4-0.8c0.4-0.1,0.7,0.1,0.8,0.4l1.1,3.8
				c0.1,0.3-0.1,0.7-0.4,0.8C439.6,352.4,439.5,352.5,439.4,352.5z M408.5,351.3c-0.3,0-0.6-0.2-0.7-0.6l-0.4-2.4
				c-0.1-0.4,0.2-0.7,0.5-0.8c0.4-0.1,0.7,0.2,0.8,0.5l0.4,2.4c0.1,0.4-0.2,0.7-0.5,0.8C408.6,351.3,408.6,351.3,408.5,351.3z
				 M407.5,345c-0.3,0-0.6-0.2-0.7-0.6l-0.6-4c-0.1-0.4,0.2-0.7,0.5-0.8c0.4-0.1,0.7,0.2,0.8,0.5l0.6,4c0.1,0.4-0.2,0.7-0.5,0.8
				C407.6,345,407.6,345,407.5,345z M437.2,344.8c-0.3,0-0.5-0.2-0.6-0.5l-1.1-3.8c-0.1-0.3,0.1-0.7,0.4-0.8
				c0.3-0.1,0.7,0.1,0.8,0.4l1.1,3.8c0.1,0.3-0.1,0.7-0.4,0.8C437.3,344.8,437.2,344.8,437.2,344.8z M434.9,337.1
				c-0.3,0-0.5-0.2-0.6-0.5l-1.1-3.8c-0.1-0.3,0.1-0.7,0.4-0.8c0.4-0.1,0.7,0.1,0.8,0.4l1.1,3.8c0.1,0.3-0.1,0.7-0.4,0.8
				C435,337.1,435,337.1,434.9,337.1z M406.3,337.1c-0.3,0-0.6-0.2-0.7-0.6l-0.6-4c-0.1-0.4,0.2-0.7,0.5-0.8
				c0.4-0.1,0.7,0.2,0.8,0.5l0.6,4c0.1,0.4-0.2,0.7-0.5,0.8C406.3,337.1,406.3,337.1,406.3,337.1z M432.6,329.4
				c-0.3,0-0.5-0.2-0.6-0.5l-1.1-3.8c-0.1-0.3,0.1-0.7,0.4-0.8c0.3-0.1,0.7,0.1,0.8,0.4l1.1,3.8c0.1,0.3-0.1,0.7-0.4,0.8
				C432.8,329.4,432.7,329.4,432.6,329.4z M405,329.1c-0.3,0-0.6-0.2-0.7-0.6l-0.6-4c-0.1-0.4,0.2-0.7,0.5-0.8
				c0.4-0.1,0.7,0.2,0.8,0.5l0.6,4c0.1,0.4-0.2,0.7-0.5,0.8C405.1,329.1,405,329.1,405,329.1z M430.4,321.7c-0.3,0-0.5-0.2-0.6-0.5
				l-1.1-3.8c-0.1-0.3,0.1-0.7,0.4-0.8c0.4-0.1,0.7,0.1,0.8,0.4l1.1,3.8c0.1,0.3-0.1,0.7-0.4,0.8
				C430.5,321.7,430.4,321.7,430.4,321.7z M403.7,321.2c-0.3,0-0.6-0.2-0.7-0.6l-0.6-4c-0.1-0.4,0.2-0.7,0.5-0.8
				c0.4-0.1,0.7,0.2,0.8,0.5l0.6,4c0.1,0.4-0.2,0.7-0.5,0.8C403.8,321.2,403.8,321.2,403.7,321.2z M428.1,314
				c-0.3,0-0.5-0.2-0.6-0.5l-1.1-3.8c-0.1-0.3,0.1-0.7,0.4-0.8c0.4-0.1,0.7,0.1,0.8,0.4l1.1,3.8c0.1,0.3-0.1,0.7-0.4,0.8
				C428.2,314,428.2,314,428.1,314z M402.5,313.3c-0.3,0-0.6-0.2-0.7-0.6l-0.6-4c-0.1-0.4,0.2-0.7,0.5-0.8c0.4-0.1,0.7,0.2,0.8,0.5
				l0.6,4c0.1,0.4-0.2,0.7-0.5,0.8C402.5,313.3,402.5,313.3,402.5,313.3z M425.8,306.3c-0.3,0-0.5-0.2-0.6-0.5l-1.1-3.8
				c-0.1-0.3,0.1-0.7,0.4-0.8c0.4-0.1,0.7,0.1,0.8,0.4l1.1,3.8c0.1,0.3-0.1,0.7-0.4,0.8C426,306.3,425.9,306.3,425.8,306.3z
				 M401.2,305.4c-0.3,0-0.6-0.2-0.7-0.6l-0.6-4c-0.1-0.4,0.2-0.7,0.5-0.8c0.4-0.1,0.7,0.2,0.8,0.5l0.6,4c0.1,0.4-0.2,0.7-0.5,0.8
				C401.3,305.4,401.2,305.4,401.2,305.4z M423.6,298.6c-0.3,0-0.5-0.2-0.6-0.5l-1.1-3.8c-0.1-0.3,0.1-0.7,0.4-0.8
				c0.4-0.1,0.7,0.1,0.8,0.4l1.1,3.8c0.1,0.3-0.1,0.7-0.4,0.8C423.7,298.6,423.6,298.6,423.6,298.6z M399.9,297.4
				c-0.3,0-0.6-0.2-0.7-0.6l-0.6-4c-0.1-0.4,0.2-0.7,0.5-0.8c0.4-0.1,0.7,0.2,0.8,0.5l0.6,4c0.1,0.4-0.2,0.7-0.5,0.8
				C400,297.4,400,297.4,399.9,297.4z M421.3,290.9c-0.3,0-0.5-0.2-0.6-0.5l-1.1-3.8c-0.1-0.3,0.1-0.7,0.4-0.8
				c0.4-0.1,0.7,0.1,0.8,0.4l1.1,3.8c0.1,0.3-0.1,0.7-0.4,0.8C421.4,290.9,421.4,290.9,421.3,290.9z M398.7,289.5
				c-0.3,0-0.6-0.2-0.7-0.6l-0.6-4c-0.1-0.4,0.2-0.7,0.5-0.8c0.4-0.1,0.7,0.2,0.8,0.5l0.6,4c0.1,0.4-0.2,0.7-0.5,0.8
				C398.7,289.5,398.7,289.5,398.7,289.5z M419,283.2c-0.3,0-0.5-0.2-0.6-0.5l-1.1-3.8c-0.1-0.3,0.1-0.7,0.4-0.8
				c0.4-0.1,0.7,0.1,0.8,0.4l1.1,3.8c0.1,0.3-0.1,0.7-0.4,0.8C419.2,283.2,419.1,283.2,419,283.2z M397.4,281.6
				c-0.3,0-0.6-0.2-0.7-0.6l-0.6-4c-0.1-0.4,0.2-0.7,0.5-0.8c0.4-0.1,0.7,0.2,0.8,0.5l0.6,4c0.1,0.4-0.2,0.7-0.5,0.8
				C397.5,281.6,397.4,281.6,397.4,281.6z M416.8,275.5c-0.3,0-0.5-0.2-0.6-0.5l-1.1-3.8c-0.1-0.3,0.1-0.7,0.4-0.8
				c0.3-0.1,0.7,0.1,0.8,0.4l1.1,3.8c0.1,0.3-0.1,0.7-0.4,0.8C416.9,275.5,416.8,275.5,416.8,275.5z M396.1,273.7
				c-0.3,0-0.6-0.2-0.7-0.6l-0.6-4c-0.1-0.4,0.2-0.7,0.5-0.8c0.4-0.1,0.7,0.2,0.8,0.5l0.6,4c0.1,0.4-0.2,0.7-0.5,0.8
				C396.2,273.7,396.2,273.7,396.1,273.7z M414.5,267.8c-0.3,0-0.5-0.2-0.6-0.5l-1.1-3.8c-0.1-0.3,0.1-0.7,0.4-0.8
				c0.4-0.1,0.7,0.1,0.8,0.4l1.1,3.8c0.1,0.3-0.1,0.7-0.4,0.8C414.6,267.8,414.6,267.8,414.5,267.8z M394.9,265.7
				c-0.3,0-0.6-0.2-0.7-0.6l-0.6-4c-0.1-0.4,0.2-0.7,0.5-0.8c0.4-0.1,0.7,0.2,0.8,0.5l0.6,4c0.1,0.4-0.2,0.7-0.5,0.8
				C394.9,265.7,394.9,265.7,394.9,265.7z M412.2,260.1c-0.3,0-0.5-0.2-0.6-0.5l-1.1-3.8c-0.1-0.3,0.1-0.7,0.4-0.8
				c0.3-0.1,0.7,0.1,0.8,0.4l1.1,3.8c0.1,0.3-0.1,0.7-0.4,0.8C412.4,260.1,412.3,260.1,412.2,260.1z M393.6,257.8
				c-0.3,0-0.6-0.2-0.7-0.6l-0.6-4c-0.1-0.4,0.2-0.7,0.5-0.8c0.4-0.1,0.7,0.2,0.8,0.5l0.6,4c0.1,0.4-0.2,0.7-0.5,0.8
				C393.7,257.8,393.6,257.8,393.6,257.8z M410,252.4c-0.3,0-0.5-0.2-0.6-0.5l-1.1-3.8c-0.1-0.3,0.1-0.7,0.4-0.8
				c0.4-0.1,0.7,0.1,0.8,0.4l1.1,3.8c0.1,0.3-0.1,0.7-0.4,0.8C410.1,252.4,410,252.4,410,252.4z M392.3,249.9
				c-0.3,0-0.6-0.2-0.7-0.6l-0.6-4c-0.1-0.4,0.2-0.7,0.5-0.8c0.4-0.1,0.7,0.2,0.8,0.5l0.6,4c0.1,0.4-0.2,0.7-0.5,0.8
				C392.4,249.9,392.4,249.9,392.3,249.9z M407.7,244.7c-0.3,0-0.5-0.2-0.6-0.5l-1.1-3.8c-0.1-0.3,0.1-0.7,0.4-0.8
				c0.4-0.1,0.7,0.1,0.8,0.4l1.1,3.8c0.1,0.3-0.1,0.7-0.4,0.8C407.8,244.7,407.8,244.7,407.7,244.7z M391.1,242
				c-0.3,0-0.6-0.2-0.7-0.6l-0.6-4c-0.1-0.4,0.2-0.7,0.5-0.8c0.4-0.1,0.7,0.2,0.8,0.5l0.6,4c0.1,0.4-0.2,0.7-0.5,0.8
				C391.1,242,391.1,242,391.1,242z M405.4,237c-0.3,0-0.5-0.2-0.6-0.5l-1.1-3.8c-0.1-0.3,0.1-0.7,0.4-0.8c0.4-0.1,0.7,0.1,0.8,0.4
				l1.1,3.8c0.1,0.3-0.1,0.7-0.4,0.8C405.6,237,405.5,237,405.4,237z M389.8,234.1c-0.3,0-0.6-0.2-0.7-0.6l-0.6-4
				c-0.1-0.4,0.2-0.7,0.5-0.8c0.4-0.1,0.7,0.2,0.8,0.5l0.6,4c0.1,0.4-0.2,0.7-0.5,0.8C389.9,234,389.8,234.1,389.8,234.1z
				 M403.2,229.3c-0.3,0-0.5-0.2-0.6-0.5l-1.1-3.8c-0.1-0.3,0.1-0.7,0.4-0.8c0.4-0.1,0.7,0.1,0.8,0.4l1.1,3.8
				c0.1,0.3-0.1,0.7-0.4,0.8C403.3,229.3,403.2,229.3,403.2,229.3z M388.5,226.1c-0.3,0-0.6-0.2-0.7-0.6l-0.6-4
				c-0.1-0.4,0.2-0.7,0.5-0.8c0.4-0.1,0.7,0.2,0.8,0.5l0.6,4c0.1,0.4-0.2,0.7-0.5,0.8C388.6,226.1,388.6,226.1,388.5,226.1z
				 M400.9,221.6c-0.3,0-0.5-0.2-0.6-0.5l-1.1-3.8c-0.1-0.3,0.1-0.7,0.4-0.8c0.4-0.1,0.7,0.1,0.8,0.4l1.1,3.8
				c0.1,0.3-0.1,0.7-0.4,0.8C401,221.6,401,221.6,400.9,221.6z M387.3,218.2c-0.3,0-0.6-0.2-0.7-0.6l-0.6-4
				c-0.1-0.4,0.2-0.7,0.5-0.8c0.4-0.1,0.7,0.2,0.8,0.5l0.6,4c0.1,0.4-0.2,0.7-0.5,0.8C387.3,218.2,387.3,218.2,387.3,218.2z
				 M398.6,213.9c-0.3,0-0.5-0.2-0.6-0.5l-1.1-3.8c-0.1-0.3,0.1-0.7,0.4-0.8c0.4-0.1,0.7,0.1,0.8,0.4l1.1,3.8
				c0.1,0.3-0.1,0.7-0.4,0.8C398.8,213.9,398.7,213.9,398.6,213.9z M386,210.3c-0.3,0-0.6-0.2-0.7-0.6l-0.6-4
				c-0.1-0.4,0.2-0.7,0.5-0.8c0.4-0.1,0.7,0.2,0.8,0.5l0.6,4c0.1,0.4-0.2,0.7-0.5,0.8C386.1,210.3,386,210.3,386,210.3z
				 M396.4,206.2c-0.3,0-0.5-0.2-0.6-0.5l-1.1-3.8c-0.1-0.3,0.1-0.7,0.4-0.8c0.3-0.1,0.7,0.1,0.8,0.4l1.1,3.8
				c0.1,0.3-0.1,0.7-0.4,0.8C396.5,206.2,396.4,206.2,396.4,206.2z M384.7,202.4c-0.3,0-0.6-0.2-0.7-0.6l-0.6-4
				c-0.1-0.4,0.2-0.7,0.5-0.8c0.4-0.1,0.7,0.2,0.8,0.5l0.6,4c0.1,0.4-0.2,0.7-0.5,0.8C384.8,202.4,384.8,202.4,384.7,202.4z
				 M394.1,198.5c-0.3,0-0.5-0.2-0.6-0.5l-1.1-3.8c-0.1-0.3,0.1-0.7,0.4-0.8c0.4-0.1,0.7,0.1,0.8,0.4l1.1,3.8
				c0.1,0.3-0.1,0.7-0.4,0.8C394.2,198.5,394.2,198.5,394.1,198.5z M383.5,194.4c-0.3,0-0.6-0.2-0.7-0.6l-0.6-4
				c-0.1-0.4,0.2-0.7,0.5-0.8c0.4-0.1,0.7,0.2,0.8,0.5l0.6,4c0.1,0.4-0.2,0.7-0.5,0.8C383.5,194.4,383.5,194.4,383.5,194.4z
				 M391.9,190.8c-0.3,0-0.5-0.2-0.6-0.5l-1.1-3.8c-0.1-0.3,0.1-0.7,0.4-0.8c0.3-0.1,0.7,0.1,0.8,0.4l1.1,3.8
				c0.1,0.3-0.1,0.7-0.4,0.8C392,190.8,391.9,190.8,391.9,190.8z M382.2,186.5c-0.3,0-0.6-0.2-0.7-0.6l-0.6-4
				c-0.1-0.4,0.2-0.7,0.5-0.8c0.4-0.1,0.7,0.2,0.8,0.5l0.6,4c0.1,0.4-0.2,0.7-0.5,0.8C382.3,186.5,382.2,186.5,382.2,186.5z
				 M389.6,183.1c-0.3,0-0.5-0.2-0.6-0.5l-1.1-3.8c-0.1-0.3,0.1-0.7,0.4-0.8c0.4-0.1,0.7,0.1,0.8,0.4l1.1,3.8
				c0.1,0.3-0.1,0.7-0.4,0.8C389.7,183.1,389.6,183.1,389.6,183.1z M380.9,178.6c-0.3,0-0.6-0.2-0.7-0.6l-0.6-4
				c-0.1-0.4,0.2-0.7,0.5-0.8c0.4-0.1,0.7,0.2,0.8,0.5l0.6,4c0.1,0.4-0.2,0.7-0.5,0.8C381,178.6,381,178.6,380.9,178.6z
				 M387.3,175.4c-0.3,0-0.5-0.2-0.6-0.5l-1.1-3.8c-0.1-0.3,0.1-0.7,0.4-0.8c0.4-0.1,0.7,0.1,0.8,0.4l1.1,3.8
				c0.1,0.3-0.1,0.7-0.4,0.8C387.4,175.4,387.4,175.4,387.3,175.4z M379.7,170.7c-0.3,0-0.6-0.2-0.7-0.6l-0.6-4
				c-0.1-0.4,0.2-0.7,0.5-0.8c0.4-0.1,0.7,0.2,0.8,0.5l0.6,4c0.1,0.4-0.2,0.7-0.5,0.8C379.7,170.7,379.7,170.7,379.7,170.7z
				 M385.1,167.7c-0.3,0-0.5-0.2-0.6-0.5l-1.1-3.8c-0.1-0.3,0.1-0.7,0.4-0.8c0.4-0.1,0.7,0.1,0.8,0.4l1.1,3.8
				c0.1,0.3-0.1,0.7-0.4,0.8C385.2,167.7,385.1,167.7,385.1,167.7z M378.4,162.7c-0.3,0-0.6-0.2-0.7-0.6l-0.6-4
				c-0.1-0.4,0.2-0.7,0.5-0.8c0.4-0.1,0.7,0.2,0.8,0.5l0.6,4c0.1,0.4-0.2,0.7-0.5,0.8C378.5,162.7,378.4,162.7,378.4,162.7z
				 M382.8,160c-0.3,0-0.5-0.2-0.6-0.5l-1.1-3.8c-0.1-0.3,0.1-0.7,0.4-0.8c0.4-0.1,0.7,0.1,0.8,0.4l1.1,3.8c0.1,0.3-0.1,0.7-0.4,0.8
				C382.9,160,382.9,160,382.8,160z M377.1,154.8c-0.3,0-0.6-0.2-0.7-0.6l-0.6-4c-0.1-0.4,0.2-0.7,0.5-0.8c0.4-0.1,0.7,0.2,0.8,0.5
				l0.6,4c0.1,0.4-0.2,0.7-0.5,0.8C377.2,154.8,377.2,154.8,377.1,154.8z M380.5,152.3c-0.3,0-0.5-0.2-0.6-0.5l-1.1-3.8
				c-0.1-0.3,0.1-0.7,0.4-0.8c0.4-0.1,0.7,0.1,0.8,0.4l1.1,3.8c0.1,0.3-0.1,0.7-0.4,0.8C380.6,152.3,380.6,152.3,380.5,152.3z
				 M375.9,146.9c-0.3,0-0.6-0.2-0.7-0.6l-0.6-4c-0.1-0.4,0.2-0.7,0.5-0.8c0.4-0.1,0.7,0.2,0.8,0.5l0.6,4c0.1,0.4-0.2,0.7-0.5,0.8
				C376,146.9,375.9,146.9,375.9,146.9z M378.3,144.6c-0.3,0-0.5-0.2-0.6-0.5l-1.1-3.8c-0.1-0.3,0.1-0.7,0.4-0.8
				c0.4-0.1,0.7,0.1,0.8,0.4l1.1,3.8c0.1,0.3-0.1,0.7-0.4,0.8C378.4,144.6,378.3,144.6,378.3,144.6z M374.6,139
				c-0.3,0-0.6-0.2-0.7-0.6l-0.6-4c-0.1-0.4,0.2-0.7,0.5-0.8c0.4-0.1,0.7,0.2,0.8,0.5l0.6,4c0.1,0.4-0.2,0.7-0.5,0.8
				C374.7,139,374.7,139,374.6,139z M376,136.9c-0.3,0-0.5-0.2-0.6-0.5l-1.1-3.8c-0.1-0.3,0.1-0.7,0.4-0.8c0.3-0.1,0.7,0.1,0.8,0.4
				l1.1,3.8c0.1,0.3-0.1,0.7-0.4,0.8C376.1,136.9,376.1,136.9,376,136.9z M373.4,131c-0.3,0-0.6-0.2-0.7-0.6l-0.6-4
				c0-0.2,0-0.4,0.2-0.6l-0.3-1c-0.1-0.3,0.1-0.7,0.4-0.8c0.4-0.1,0.7,0.1,0.8,0.4l1.1,3.8c0.1,0.3-0.1,0.7-0.4,0.8c0,0-0.1,0-0.1,0
				l0.2,1.1c0.1,0.4-0.2,0.7-0.5,0.8C373.4,131,373.4,131,373.4,131z"/>
		</g>
		<g>
			<path class="st4" d="M275.7,444.2c-0.1,0-0.1,0-0.2,0c-0.3-0.1-0.5-0.5-0.4-0.8l1.2-3.8c0.1-0.3,0.5-0.5,0.8-0.4
				c0.3,0.1,0.5,0.5,0.4,0.8l-1.2,3.8C276.3,444,276,444.2,275.7,444.2z M325.3,440.4C325.3,440.4,325.3,440.4,325.3,440.4
				c-0.5-0.1-0.7-0.4-0.7-0.8l0.6-3.7c0.1-0.4,0.4-0.6,0.7-0.6c0.4,0.1,0.6,0.4,0.6,0.7l-0.6,3.7
				C325.9,440.1,325.6,440.4,325.3,440.4z M278.1,436.5c-0.1,0-0.1,0-0.2,0c-0.3-0.1-0.5-0.5-0.4-0.8l1.2-3.8
				c0.1-0.3,0.5-0.5,0.8-0.4c0.3,0.1,0.5,0.5,0.4,0.8l-1.2,3.8C278.6,436.3,278.3,436.5,278.1,436.5z M326.5,432.7
				C326.4,432.7,326.4,432.7,326.5,432.7c-0.5-0.1-0.7-0.4-0.7-0.8l0.6-4c0.1-0.4,0.4-0.6,0.7-0.6c0.4,0.1,0.6,0.4,0.6,0.7l-0.6,4
				C327.1,432.4,326.8,432.7,326.5,432.7z M280.4,428.8c-0.1,0-0.1,0-0.2,0c-0.3-0.1-0.5-0.5-0.4-0.8l1.2-3.8
				c0.1-0.3,0.5-0.5,0.8-0.4c0.3,0.1,0.5,0.5,0.4,0.8l-1.2,3.8C280.9,428.6,280.7,428.8,280.4,428.8z M327.6,424.7
				C327.6,424.7,327.6,424.7,327.6,424.7c-0.5-0.1-0.7-0.4-0.7-0.8l0.6-4c0.1-0.4,0.4-0.6,0.7-0.6c0.4,0.1,0.6,0.4,0.6,0.7l-0.6,4
				C328.2,424.5,328,424.7,327.6,424.7z M282.7,421.1c-0.1,0-0.1,0-0.2,0c-0.3-0.1-0.5-0.5-0.4-0.8l1.2-3.8c0.1-0.3,0.5-0.5,0.8-0.4
				c0.3,0.1,0.5,0.5,0.4,0.8l-1.2,3.8C283.2,420.9,283,421.1,282.7,421.1z M328.8,416.8C328.8,416.8,328.8,416.8,328.8,416.8
				c-0.5-0.1-0.7-0.4-0.7-0.8l0.6-4c0.1-0.4,0.4-0.6,0.7-0.6c0.4,0.1,0.6,0.4,0.6,0.7l-0.6,4C329.4,416.6,329.1,416.8,328.8,416.8z
				 M285,413.4c-0.1,0-0.1,0-0.2,0c-0.3-0.1-0.5-0.5-0.4-0.8l1.2-3.8c0.1-0.3,0.5-0.5,0.8-0.4c0.3,0.1,0.5,0.5,0.4,0.8l-1.2,3.8
				C285.6,413.2,285.3,413.4,285,413.4z M330,408.9C330,408.9,329.9,408.9,330,408.9c-0.5-0.1-0.7-0.4-0.7-0.8l0.6-4
				c0.1-0.4,0.4-0.6,0.7-0.6c0.4,0.1,0.6,0.4,0.6,0.7l-0.6,4C330.6,408.6,330.3,408.9,330,408.9z M287.3,405.7c-0.1,0-0.1,0-0.2,0
				c-0.3-0.1-0.5-0.5-0.4-0.8l1.2-3.8c0.1-0.3,0.5-0.5,0.8-0.4c0.3,0.1,0.5,0.5,0.4,0.8l-1.2,3.8
				C287.9,405.6,287.6,405.7,287.3,405.7z M331.2,400.9C331.1,400.9,331.1,400.9,331.2,400.9c-0.5-0.1-0.7-0.4-0.7-0.8l0.6-4
				c0.1-0.4,0.4-0.6,0.7-0.6c0.4,0.1,0.6,0.4,0.6,0.7l-0.6,4C331.8,400.7,331.5,400.9,331.2,400.9z M289.6,398.1c-0.1,0-0.1,0-0.2,0
				c-0.3-0.1-0.5-0.5-0.4-0.8l1.2-3.8c0.1-0.3,0.5-0.5,0.8-0.4c0.3,0.1,0.5,0.5,0.4,0.8l-1.2,3.8
				C290.2,397.9,289.9,398.1,289.6,398.1z M332.4,393C332.3,393,332.3,393,332.4,393c-0.5-0.1-0.7-0.4-0.7-0.8l0.6-4
				c0.1-0.4,0.4-0.6,0.7-0.6c0.4,0.1,0.6,0.4,0.6,0.7l-0.6,4C333,392.8,332.7,393,332.4,393z M292,390.4c-0.1,0-0.1,0-0.2,0
				c-0.3-0.1-0.5-0.5-0.4-0.8l1.2-3.8c0.1-0.3,0.5-0.5,0.8-0.4c0.3,0.1,0.5,0.5,0.4,0.8l-1.2,3.8C292.5,390.2,292.2,390.4,292,390.4
				z M333.5,385.1C333.5,385.1,333.5,385.1,333.5,385.1c-0.5-0.1-0.7-0.4-0.7-0.8l0.6-4c0.1-0.4,0.4-0.6,0.7-0.6
				c0.4,0.1,0.6,0.4,0.6,0.7l-0.6,4C334.1,384.8,333.9,385.1,333.5,385.1z M294.3,382.7c-0.1,0-0.1,0-0.2,0
				c-0.3-0.1-0.5-0.5-0.4-0.8l1.2-3.8c0.1-0.3,0.5-0.5,0.8-0.4c0.3,0.1,0.5,0.5,0.4,0.8l-1.2,3.8
				C294.8,382.5,294.6,382.7,294.3,382.7z M334.7,377.1C334.7,377.1,334.6,377.1,334.7,377.1c-0.5-0.1-0.7-0.4-0.7-0.8l0.6-4
				c0.1-0.4,0.4-0.6,0.7-0.6c0.4,0.1,0.6,0.4,0.6,0.7l-0.6,4C335.3,376.9,335,377.1,334.7,377.1z M296.6,375c-0.1,0-0.1,0-0.2,0
				c-0.3-0.1-0.5-0.5-0.4-0.8l1.2-3.8c0.1-0.3,0.5-0.5,0.8-0.4c0.3,0.1,0.5,0.5,0.4,0.8l-1.2,3.8C297.1,374.8,296.9,375,296.6,375z
				 M335.9,369.2C335.9,369.2,335.8,369.2,335.9,369.2c-0.5-0.1-0.7-0.4-0.7-0.8l0.6-4c0.1-0.4,0.4-0.6,0.7-0.6
				c0.4,0.1,0.6,0.4,0.6,0.7l-0.6,4C336.5,368.9,336.2,369.2,335.9,369.2z M298.9,367.3c-0.1,0-0.1,0-0.2,0
				c-0.3-0.1-0.5-0.5-0.4-0.8l1.2-3.8c0.1-0.3,0.5-0.5,0.8-0.4c0.3,0.1,0.5,0.5,0.4,0.8l-1.2,3.8
				C299.5,367.2,299.2,367.3,298.9,367.3z M337.1,361.2C337,361.2,337,361.2,337.1,361.2c-0.5-0.1-0.7-0.4-0.7-0.8l0.6-4
				c0.1-0.4,0.4-0.6,0.7-0.6c0.4,0.1,0.6,0.4,0.6,0.7l-0.6,4C337.7,361,337.4,361.2,337.1,361.2z M301.2,359.7c-0.1,0-0.1,0-0.2,0
				c-0.3-0.1-0.5-0.5-0.4-0.8l1.2-3.8c0.1-0.3,0.5-0.5,0.8-0.4c0.3,0.1,0.5,0.5,0.4,0.8l-1.2,3.8
				C301.8,359.5,301.5,359.7,301.2,359.7z M338.3,353.3C338.2,353.3,338.2,353.3,338.3,353.3c-0.5-0.1-0.7-0.4-0.7-0.8l0.6-4
				c0.1-0.4,0.4-0.6,0.7-0.6c0.4,0.1,0.6,0.4,0.6,0.7l-0.6,4C338.9,353.1,338.6,353.3,338.3,353.3z M303.6,352c-0.1,0-0.1,0-0.2,0
				c-0.3-0.1-0.5-0.5-0.4-0.8l1.2-3.8c0.1-0.3,0.5-0.5,0.8-0.4c0.3,0.1,0.5,0.5,0.4,0.8l-1.2,3.8C304.1,351.8,303.8,352,303.6,352z
				 M339.4,345.4C339.4,345.4,339.4,345.4,339.4,345.4c-0.5-0.1-0.7-0.4-0.7-0.8l0.6-4c0.1-0.4,0.4-0.6,0.7-0.6
				c0.4,0.1,0.6,0.4,0.6,0.7l-0.6,4C340,345.1,339.8,345.4,339.4,345.4z M305.9,344.3c-0.1,0-0.1,0-0.2,0c-0.3-0.1-0.5-0.5-0.4-0.8
				l1.2-3.8c0.1-0.3,0.5-0.5,0.8-0.4c0.3,0.1,0.5,0.5,0.4,0.8l-1.2,3.8C306.4,344.1,306.2,344.3,305.9,344.3z M340.6,337.4
				C340.6,337.4,340.5,337.4,340.6,337.4c-0.5-0.1-0.7-0.4-0.7-0.8l0.6-4c0.1-0.4,0.4-0.6,0.7-0.6c0.4,0.1,0.6,0.4,0.6,0.7l-0.6,4
				C341.2,337.2,340.9,337.4,340.6,337.4z M308.2,336.6c-0.1,0-0.1,0-0.2,0c-0.3-0.1-0.5-0.5-0.4-0.8l1.2-3.8
				c0.1-0.3,0.5-0.5,0.8-0.4c0.3,0.1,0.5,0.5,0.4,0.8l-1.2,3.8C308.7,336.4,308.5,336.6,308.2,336.6z M341.8,329.5
				C341.8,329.5,341.7,329.5,341.8,329.5c-0.5-0.1-0.7-0.4-0.7-0.8l0.6-4c0.1-0.4,0.4-0.6,0.7-0.6c0.4,0.1,0.6,0.4,0.6,0.7l-0.6,4
				C342.4,329.3,342.1,329.5,341.8,329.5z M310.5,328.9c-0.1,0-0.1,0-0.2,0c-0.3-0.1-0.5-0.5-0.4-0.8l1.2-3.8
				c0.1-0.3,0.5-0.5,0.8-0.4c0.3,0.1,0.5,0.5,0.4,0.8l-1.2,3.8C311.1,328.7,310.8,328.9,310.5,328.9z M343,321.6
				C342.9,321.6,342.9,321.6,343,321.6c-0.5-0.1-0.7-0.4-0.7-0.8l0.6-4c0.1-0.4,0.4-0.6,0.7-0.6c0.4,0.1,0.6,0.4,0.6,0.7l-0.6,4
				C343.6,321.3,343.3,321.6,343,321.6z M312.8,321.2c-0.1,0-0.1,0-0.2,0c-0.3-0.1-0.5-0.5-0.4-0.8l1.2-3.8c0.1-0.3,0.5-0.5,0.8-0.4
				c0.3,0.1,0.5,0.5,0.4,0.8l-1.2,3.8C313.4,321.1,313.1,321.2,312.8,321.2z M344.1,313.6C344.1,313.6,344.1,313.6,344.1,313.6
				c-0.5-0.1-0.7-0.4-0.7-0.8l0.6-4c0.1-0.4,0.4-0.6,0.7-0.6c0.4,0.1,0.6,0.4,0.6,0.7l-0.6,4C344.7,313.4,344.5,313.6,344.1,313.6z
				 M315.1,313.6c-0.1,0-0.1,0-0.2,0c-0.3-0.1-0.5-0.5-0.4-0.8l1.2-3.8c0.1-0.3,0.5-0.5,0.8-0.4c0.3,0.1,0.5,0.5,0.4,0.8l-1.2,3.8
				C315.7,313.4,315.4,313.6,315.1,313.6z M317.5,305.9c-0.1,0-0.1,0-0.2,0c-0.3-0.1-0.5-0.5-0.4-0.8l1.2-3.8
				c0.1-0.3,0.5-0.5,0.8-0.4c0.3,0.1,0.5,0.5,0.4,0.8l-1.2,3.8C318,305.7,317.7,305.9,317.5,305.9z M345.3,305.7
				C345.3,305.7,345.3,305.7,345.3,305.7c-0.5-0.1-0.7-0.4-0.7-0.8l0.6-4c0.1-0.4,0.4-0.6,0.7-0.6c0.4,0.1,0.6,0.4,0.6,0.7l-0.6,4
				C345.9,305.5,345.6,305.7,345.3,305.7z M319.8,298.2c-0.1,0-0.1,0-0.2,0c-0.3-0.1-0.5-0.5-0.4-0.8l1.2-3.8
				c0.1-0.3,0.5-0.5,0.8-0.4c0.3,0.1,0.5,0.5,0.4,0.8l-1.2,3.8C320.3,298,320.1,298.2,319.8,298.2z M346.5,297.8
				C346.5,297.8,346.4,297.7,346.5,297.8c-0.5-0.1-0.7-0.4-0.7-0.8l0.6-4c0.1-0.4,0.4-0.6,0.7-0.6c0.4,0.1,0.6,0.4,0.6,0.7l-0.6,4
				C347.1,297.5,346.8,297.8,346.5,297.8z M322.1,290.5c-0.1,0-0.1,0-0.2,0c-0.3-0.1-0.5-0.5-0.4-0.8l1.2-3.8
				c0.1-0.3,0.5-0.5,0.8-0.4c0.3,0.1,0.5,0.5,0.4,0.8l-1.2,3.8C322.6,290.3,322.4,290.5,322.1,290.5z M347.7,289.8
				C347.6,289.8,347.6,289.8,347.7,289.8c-0.5-0.1-0.7-0.4-0.7-0.8l0.6-4c0.1-0.4,0.4-0.6,0.7-0.6c0.4,0.1,0.6,0.4,0.6,0.7l-0.6,4
				C348.3,289.6,348,289.8,347.7,289.8z M324.4,282.8c-0.1,0-0.1,0-0.2,0c-0.3-0.1-0.5-0.5-0.4-0.8l1.2-3.8c0.1-0.3,0.5-0.5,0.8-0.4
				c0.3,0.1,0.5,0.5,0.4,0.8l-1.2,3.8C325,282.7,324.7,282.8,324.4,282.8z M348.9,281.9C348.8,281.9,348.8,281.9,348.9,281.9
				c-0.5-0.1-0.7-0.4-0.7-0.8l0.6-4c0.1-0.4,0.4-0.6,0.7-0.6c0.4,0.1,0.6,0.4,0.6,0.7l-0.6,4C349.5,281.6,349.2,281.9,348.9,281.9z
				 M326.7,275.2c-0.1,0-0.1,0-0.2,0c-0.3-0.1-0.5-0.5-0.4-0.8l1.2-3.8c0.1-0.3,0.5-0.5,0.8-0.4c0.3,0.1,0.5,0.5,0.4,0.8l-1.2,3.8
				C327.3,275,327,275.2,326.7,275.2z M350,273.9C350,273.9,350,273.9,350,273.9c-0.5-0.1-0.7-0.4-0.7-0.8l0.6-4
				c0.1-0.4,0.4-0.6,0.7-0.6c0.4,0.1,0.6,0.4,0.6,0.7l-0.6,4C350.6,273.7,350.4,273.9,350,273.9z M329.1,267.5c-0.1,0-0.1,0-0.2,0
				c-0.3-0.1-0.5-0.5-0.4-0.8l1.2-3.8c0.1-0.3,0.5-0.5,0.8-0.4c0.3,0.1,0.5,0.5,0.4,0.8l-1.2,3.8
				C329.6,267.3,329.3,267.5,329.1,267.5z M351.2,266C351.2,266,351.2,266,351.2,266c-0.5-0.1-0.7-0.4-0.7-0.8l0.6-4
				c0.1-0.4,0.4-0.6,0.7-0.6c0.4,0.1,0.6,0.4,0.6,0.7l-0.6,4C351.8,265.8,351.5,266,351.2,266z M331.4,259.8c-0.1,0-0.1,0-0.2,0
				c-0.3-0.1-0.5-0.5-0.4-0.8l1.2-3.8c0.1-0.3,0.5-0.5,0.8-0.4c0.3,0.1,0.5,0.5,0.4,0.8l-1.2,3.8
				C331.9,259.6,331.7,259.8,331.4,259.8z M352.4,258.1C352.4,258.1,352.3,258.1,352.4,258.1c-0.5-0.1-0.7-0.4-0.7-0.8l0.6-4
				c0.1-0.4,0.4-0.6,0.7-0.6c0.4,0.1,0.6,0.4,0.6,0.7l-0.6,4C353,257.8,352.7,258.1,352.4,258.1z M333.7,252.1c-0.1,0-0.1,0-0.2,0
				c-0.3-0.1-0.5-0.5-0.4-0.8l1.2-3.8c0.1-0.3,0.5-0.5,0.8-0.4c0.3,0.1,0.5,0.5,0.4,0.8l-1.2,3.8C334.2,251.9,334,252.1,333.7,252.1
				z M353.6,250.1C353.5,250.1,353.5,250.1,353.6,250.1c-0.5-0.1-0.7-0.4-0.7-0.8l0.6-4c0.1-0.4,0.4-0.6,0.7-0.6
				c0.4,0.1,0.6,0.4,0.6,0.7l-0.6,4C354.2,249.9,353.9,250.1,353.6,250.1z M336,244.4c-0.1,0-0.1,0-0.2,0c-0.3-0.1-0.5-0.5-0.4-0.8
				l1.2-3.8c0.1-0.3,0.5-0.5,0.8-0.4c0.3,0.1,0.5,0.5,0.4,0.8l-1.2,3.8C336.6,244.2,336.3,244.4,336,244.4z M354.8,242.2
				C354.7,242.2,354.7,242.2,354.8,242.2c-0.5-0.1-0.7-0.4-0.7-0.8l0.6-4c0.1-0.4,0.4-0.6,0.7-0.6c0.4,0.1,0.6,0.4,0.6,0.7l-0.6,4
				C355.4,242,355.1,242.2,354.8,242.2z M338.3,236.7c-0.1,0-0.1,0-0.2,0c-0.3-0.1-0.5-0.5-0.4-0.8l1.2-3.8c0.1-0.3,0.5-0.5,0.8-0.4
				c0.3,0.1,0.5,0.5,0.4,0.8l-1.2,3.8C338.9,236.6,338.6,236.7,338.3,236.7z M355.9,234.3C355.9,234.3,355.9,234.3,355.9,234.3
				c-0.5-0.1-0.7-0.4-0.7-0.8l0.6-4c0.1-0.4,0.4-0.6,0.7-0.6c0.4,0.1,0.6,0.4,0.6,0.7l-0.6,4C356.5,234,356.3,234.3,355.9,234.3z
				 M340.6,229.1c-0.1,0-0.1,0-0.2,0c-0.3-0.1-0.5-0.5-0.4-0.8l1.2-3.8c0.1-0.3,0.5-0.5,0.8-0.4c0.3,0.1,0.5,0.5,0.4,0.8l-1.2,3.8
				C341.2,228.9,340.9,229.1,340.6,229.1z M357.1,226.3C357.1,226.3,357,226.3,357.1,226.3c-0.5-0.1-0.7-0.4-0.7-0.8l0.6-4
				c0.1-0.4,0.4-0.6,0.7-0.6c0.4,0.1,0.6,0.4,0.6,0.7l-0.6,4C357.7,226.1,357.4,226.3,357.1,226.3z M343,221.4c-0.1,0-0.1,0-0.2,0
				c-0.3-0.1-0.5-0.5-0.4-0.8l1.2-3.8c0.1-0.3,0.5-0.5,0.8-0.4c0.3,0.1,0.5,0.5,0.4,0.8l-1.2,3.8C343.5,221.2,343.2,221.4,343,221.4
				z M358.3,218.4C358.3,218.4,358.2,218.4,358.3,218.4c-0.5-0.1-0.7-0.4-0.7-0.8l0.6-4c0.1-0.4,0.4-0.6,0.7-0.6
				c0.4,0.1,0.6,0.4,0.6,0.7l-0.6,4C358.9,218.1,358.6,218.4,358.3,218.4z M345.3,213.7c-0.1,0-0.1,0-0.2,0
				c-0.3-0.1-0.5-0.5-0.4-0.8l1.2-3.8c0.1-0.3,0.5-0.5,0.8-0.4c0.3,0.1,0.5,0.5,0.4,0.8l-1.2,3.8
				C345.8,213.5,345.6,213.7,345.3,213.7z M359.5,210.4C359.4,210.4,359.4,210.4,359.5,210.4c-0.5-0.1-0.7-0.4-0.7-0.8l0.6-4
				c0.1-0.4,0.4-0.6,0.7-0.6c0.4,0.1,0.6,0.4,0.6,0.7l-0.6,4C360.1,210.2,359.8,210.4,359.5,210.4z M347.6,206c-0.1,0-0.1,0-0.2,0
				c-0.3-0.1-0.5-0.5-0.4-0.8l1.2-3.8c0.1-0.3,0.5-0.5,0.8-0.4c0.3,0.1,0.5,0.5,0.4,0.8l-1.2,3.8C348.1,205.8,347.9,206,347.6,206z
				 M360.6,202.5C360.6,202.5,360.6,202.5,360.6,202.5c-0.5-0.1-0.7-0.4-0.7-0.8l0.6-4c0.1-0.4,0.4-0.6,0.7-0.6
				c0.4,0.1,0.6,0.4,0.6,0.7l-0.6,4C361.3,202.3,361,202.5,360.6,202.5z M349.9,198.3c-0.1,0-0.1,0-0.2,0c-0.3-0.1-0.5-0.5-0.4-0.8
				l1.2-3.8c0.1-0.3,0.5-0.5,0.8-0.4c0.3,0.1,0.5,0.5,0.4,0.8l-1.2,3.8C350.5,198.1,350.2,198.3,349.9,198.3z M361.8,194.6
				C361.8,194.6,361.8,194.6,361.8,194.6c-0.5-0.1-0.7-0.4-0.7-0.8l0.6-4c0.1-0.4,0.4-0.6,0.7-0.6c0.4,0.1,0.6,0.4,0.6,0.7l-0.6,4
				C362.4,194.3,362.1,194.6,361.8,194.6z M352.2,190.7c-0.1,0-0.1,0-0.2,0c-0.3-0.1-0.5-0.5-0.4-0.8l1.2-3.8
				c0.1-0.3,0.5-0.5,0.8-0.4c0.3,0.1,0.5,0.5,0.4,0.8l-1.2,3.8C352.8,190.5,352.5,190.7,352.2,190.7z M363,186.6
				C363,186.6,362.9,186.6,363,186.6c-0.5-0.1-0.7-0.4-0.7-0.8l0.6-4c0.1-0.4,0.4-0.6,0.7-0.6c0.4,0.1,0.6,0.4,0.6,0.7l-0.6,4
				C363.6,186.4,363.3,186.6,363,186.6z M354.6,183c-0.1,0-0.1,0-0.2,0c-0.3-0.1-0.5-0.5-0.4-0.8l1.2-3.8c0.1-0.3,0.5-0.5,0.8-0.4
				c0.3,0.1,0.5,0.5,0.4,0.8l-1.2,3.8C355.1,182.8,354.8,183,354.6,183z M364.2,178.7C364.2,178.7,364.1,178.7,364.2,178.7
				c-0.5-0.1-0.7-0.4-0.7-0.8l0.6-4c0.1-0.4,0.4-0.6,0.7-0.6c0.4,0.1,0.6,0.4,0.6,0.7l-0.6,4C364.8,178.5,364.5,178.7,364.2,178.7z
				 M356.9,175.3c-0.1,0-0.1,0-0.2,0c-0.3-0.1-0.5-0.5-0.4-0.8l1.2-3.8c0.1-0.3,0.5-0.5,0.8-0.4c0.3,0.1,0.5,0.5,0.4,0.8l-1.2,3.8
				C357.4,175.1,357.2,175.3,356.9,175.3z M365.4,170.8C365.3,170.8,365.3,170.8,365.4,170.8c-0.5-0.1-0.7-0.4-0.7-0.8l0.6-4
				c0.1-0.4,0.4-0.6,0.7-0.6c0.4,0.1,0.6,0.4,0.6,0.7l-0.6,4C366,170.5,365.7,170.8,365.4,170.8z M359.2,167.6c-0.1,0-0.1,0-0.2,0
				c-0.3-0.1-0.5-0.5-0.4-0.8l1.2-3.8c0.1-0.3,0.5-0.5,0.8-0.4c0.3,0.1,0.5,0.5,0.4,0.8l-1.2,3.8
				C359.7,167.4,359.5,167.6,359.2,167.6z M366.5,162.8C366.5,162.8,366.5,162.8,366.5,162.8c-0.5-0.1-0.7-0.4-0.7-0.8l0.6-4
				c0.1-0.4,0.4-0.6,0.7-0.6c0.4,0.1,0.6,0.4,0.6,0.7l-0.6,4C367.1,162.6,366.9,162.8,366.5,162.8z M361.5,159.9c-0.1,0-0.1,0-0.2,0
				c-0.3-0.1-0.5-0.5-0.4-0.8l1.2-3.8c0.1-0.3,0.5-0.5,0.8-0.4c0.3,0.1,0.5,0.5,0.4,0.8l-1.2,3.8
				C362.1,159.7,361.8,159.9,361.5,159.9z M367.7,154.9C367.7,154.9,367.7,154.9,367.7,154.9c-0.5-0.1-0.7-0.4-0.7-0.8l0.6-4
				c0.1-0.4,0.4-0.6,0.7-0.6c0.4,0.1,0.6,0.4,0.6,0.7l-0.6,4C368.3,154.6,368,154.9,367.7,154.9z M363.8,152.2c-0.1,0-0.1,0-0.2,0
				c-0.3-0.1-0.5-0.5-0.4-0.8l1.2-3.8c0.1-0.3,0.5-0.5,0.8-0.4c0.3,0.1,0.5,0.5,0.4,0.8l-1.2,3.8
				C364.4,152.1,364.1,152.2,363.8,152.2z M368.9,146.9C368.9,146.9,368.8,146.9,368.9,146.9c-0.5-0.1-0.7-0.4-0.7-0.8l0.6-4
				c0.1-0.4,0.4-0.6,0.7-0.6c0.4,0.1,0.6,0.4,0.6,0.7l-0.6,4C369.5,146.7,369.2,146.9,368.9,146.9z M366.1,144.6c-0.1,0-0.1,0-0.2,0
				c-0.3-0.1-0.5-0.5-0.4-0.8l1.2-3.8c0.1-0.3,0.5-0.5,0.8-0.4c0.3,0.1,0.5,0.5,0.4,0.8l-1.2,3.8
				C366.7,144.4,366.4,144.6,366.1,144.6z M370.1,139C370,139,370,139,370.1,139c-0.5-0.1-0.7-0.4-0.7-0.8l0.6-4
				c0.1-0.4,0.4-0.6,0.7-0.6c0.4,0.1,0.6,0.4,0.6,0.7l-0.6,4C370.7,138.8,370.4,139,370.1,139z M368.5,136.9c-0.1,0-0.1,0-0.2,0
				c-0.3-0.1-0.5-0.5-0.4-0.8l1.2-3.8c0.1-0.3,0.5-0.5,0.8-0.4c0.3,0.1,0.5,0.5,0.4,0.8l-1.2,3.8C369,136.7,368.7,136.9,368.5,136.9
				z M371.3,131.1C371.2,131.1,371.2,131.1,371.3,131.1c-0.5-0.1-0.7-0.4-0.7-0.8l0.2-1.1c-0.1,0-0.1,0-0.2,0
				c-0.3-0.1-0.5-0.5-0.4-0.8l1.2-3.8c0.1-0.3,0.5-0.5,0.8-0.4c0.3,0.1,0.5,0.5,0.4,0.8l-0.3,1c0.2,0.1,0.3,0.4,0.2,0.6l-0.6,4
				C371.9,130.8,371.6,131.1,371.3,131.1z"/>
		</g>
		<g>
			<path class="st4" d="M250.1,442.4c-0.1,0-0.2,0-0.2,0c-0.3-0.1-0.5-0.5-0.4-0.9l1.4-3.7c0.1-0.3,0.5-0.5,0.9-0.4
				c0.3,0.1,0.5,0.5,0.4,0.9l-1.4,3.7C250.6,442.2,250.4,442.4,250.1,442.4z M253,434.9c-0.1,0-0.2,0-0.2,0
				c-0.3-0.1-0.5-0.5-0.4-0.9l1.4-3.7c0.1-0.3,0.5-0.5,0.9-0.4c0.3,0.1,0.5,0.5,0.4,0.9l-1.4,3.7C253.5,434.7,253.2,434.9,253,434.9
				z M204.2,432.6c-0.1,0-0.2,0-0.3-0.1c-0.3-0.2-0.4-0.6-0.3-0.9l0.9-1.7c0.2-0.3,0.6-0.4,0.9-0.3c0.3,0.2,0.4,0.6,0.3,0.9
				l-0.9,1.7C204.7,432.5,204.4,432.6,204.2,432.6z M207,427.4c-0.1,0-0.2,0-0.3-0.1c-0.3-0.2-0.4-0.6-0.3-0.9l1.9-3.5
				c0.2-0.3,0.6-0.4,0.9-0.3c0.3,0.2,0.4,0.6,0.3,0.9l-1.9,3.5C207.5,427.3,207.3,427.4,207,427.4z M255.8,427.4c-0.1,0-0.2,0-0.2,0
				c-0.3-0.1-0.5-0.5-0.4-0.9l1.4-3.7c0.1-0.3,0.5-0.5,0.9-0.4c0.3,0.1,0.5,0.5,0.4,0.9l-1.4,3.7
				C256.4,427.2,256.1,427.4,255.8,427.4z M210.9,420.4c-0.1,0-0.2,0-0.3-0.1c-0.3-0.2-0.4-0.6-0.3-0.9l1.9-3.5
				c0.2-0.3,0.6-0.4,0.9-0.3c0.3,0.2,0.4,0.6,0.3,0.9l-1.9,3.5C211.3,420.3,211.1,420.4,210.9,420.4z M258.7,419.9
				c-0.1,0-0.2,0-0.2,0c-0.3-0.1-0.5-0.5-0.4-0.9l1.4-3.7c0.1-0.3,0.5-0.5,0.9-0.4c0.3,0.1,0.5,0.5,0.4,0.9l-1.4,3.7
				C259.2,419.8,259,419.9,258.7,419.9z M214.7,413.4c-0.1,0-0.2,0-0.3-0.1c-0.3-0.2-0.4-0.6-0.3-0.9l1.9-3.5
				c0.2-0.3,0.6-0.4,0.9-0.3c0.3,0.2,0.4,0.6,0.3,0.9l-1.9,3.5C215.2,413.2,215,413.4,214.7,413.4z M261.6,412.4c-0.1,0-0.2,0-0.2,0
				c-0.3-0.1-0.5-0.5-0.4-0.9l1.4-3.7c0.1-0.3,0.5-0.5,0.9-0.4c0.3,0.1,0.5,0.5,0.4,0.9l-1.4,3.7
				C262.1,412.3,261.9,412.4,261.6,412.4z M218.6,406.3c-0.1,0-0.2,0-0.3-0.1c-0.3-0.2-0.4-0.6-0.3-0.9l1.9-3.5
				c0.2-0.3,0.6-0.4,0.9-0.3c0.3,0.2,0.4,0.6,0.3,0.9l-1.9,3.5C219,406.2,218.8,406.3,218.6,406.3z M264.5,404.9c-0.1,0-0.2,0-0.2,0
				c-0.3-0.1-0.5-0.5-0.4-0.9l1.4-3.7c0.1-0.3,0.5-0.5,0.9-0.4c0.3,0.1,0.5,0.5,0.4,0.9l-1.4,3.7C265,404.8,264.7,404.9,264.5,404.9
				z M222.4,399.3c-0.1,0-0.2,0-0.3-0.1c-0.3-0.2-0.4-0.6-0.3-0.9l1.9-3.5c0.2-0.3,0.6-0.4,0.9-0.3c0.3,0.2,0.4,0.6,0.3,0.9
				l-1.9,3.5C222.9,399.1,222.6,399.3,222.4,399.3z M267.4,397.4c-0.1,0-0.2,0-0.2,0c-0.3-0.1-0.5-0.5-0.4-0.9l1.4-3.7
				c0.1-0.3,0.5-0.5,0.9-0.4c0.3,0.1,0.5,0.5,0.4,0.9L268,397C267.9,397.3,267.6,397.4,267.4,397.4z M226.2,392.2
				c-0.1,0-0.2,0-0.3-0.1c-0.3-0.2-0.4-0.6-0.3-0.9l1.9-3.5c0.2-0.3,0.6-0.4,0.9-0.3c0.3,0.2,0.4,0.6,0.3,0.9l-1.9,3.5
				C226.7,392.1,226.5,392.2,226.2,392.2z M270.2,390c-0.1,0-0.2,0-0.2,0c-0.3-0.1-0.5-0.5-0.4-0.9l1.4-3.7c0.1-0.3,0.5-0.5,0.9-0.4
				c0.3,0.1,0.5,0.5,0.4,0.9l-1.4,3.7C270.7,389.8,270.5,390,270.2,390z M230.1,385.2c-0.1,0-0.2,0-0.3-0.1
				c-0.3-0.2-0.4-0.6-0.3-0.9l1.9-3.5c0.2-0.3,0.6-0.4,0.9-0.3c0.3,0.2,0.4,0.6,0.3,0.9l-1.9,3.5C230.5,385,230.3,385.2,230.1,385.2
				z M273.1,382.5c-0.1,0-0.2,0-0.2,0c-0.3-0.1-0.5-0.5-0.4-0.9l1.4-3.7c0.1-0.3,0.5-0.5,0.9-0.4c0.3,0.1,0.5,0.5,0.4,0.9l-1.4,3.7
				C273.6,382.3,273.4,382.5,273.1,382.5z M233.9,378.1c-0.1,0-0.2,0-0.3-0.1c-0.3-0.2-0.4-0.6-0.3-0.9l1.9-3.5
				c0.2-0.3,0.6-0.4,0.9-0.3c0.3,0.2,0.4,0.6,0.3,0.9l-1.9,3.5C234.4,378,234.2,378.1,233.9,378.1z M276,375c-0.1,0-0.2,0-0.2,0
				c-0.3-0.1-0.5-0.5-0.4-0.9l1.4-3.7c0.1-0.3,0.5-0.5,0.9-0.4c0.3,0.1,0.5,0.5,0.4,0.9l-1.4,3.7C276.5,374.8,276.2,375,276,375z
				 M237.8,371.1c-0.1,0-0.2,0-0.3-0.1c-0.3-0.2-0.4-0.6-0.3-0.9l1.9-3.5c0.2-0.3,0.6-0.4,0.9-0.3c0.3,0.2,0.4,0.6,0.3,0.9l-1.9,3.5
				C238.2,371,238,371.1,237.8,371.1z M278.9,367.5c-0.1,0-0.2,0-0.2,0c-0.3-0.1-0.5-0.5-0.4-0.9l1.4-3.7c0.1-0.3,0.5-0.5,0.9-0.4
				c0.3,0.1,0.5,0.5,0.4,0.9l-1.4,3.7C279.4,367.3,279.1,367.5,278.9,367.5z M241.6,364c-0.1,0-0.2,0-0.3-0.1
				c-0.3-0.2-0.4-0.6-0.3-0.9l1.9-3.5c0.2-0.3,0.6-0.4,0.9-0.3c0.3,0.2,0.4,0.6,0.3,0.9l-1.9,3.5C242.1,363.9,241.8,364,241.6,364z
				 M281.7,360c-0.1,0-0.2,0-0.2,0c-0.3-0.1-0.5-0.5-0.4-0.9l1.4-3.7c0.1-0.3,0.5-0.5,0.9-0.4c0.3,0.1,0.5,0.5,0.4,0.9l-1.4,3.7
				C282.3,359.8,282,360,281.7,360z M245.4,357c-0.1,0-0.2,0-0.3-0.1c-0.3-0.2-0.4-0.6-0.3-0.9l1.9-3.5c0.2-0.3,0.6-0.4,0.9-0.3
				c0.3,0.2,0.4,0.6,0.3,0.9l-1.9,3.5C245.9,356.9,245.7,357,245.4,357z M284.6,352.5c-0.1,0-0.2,0-0.2,0c-0.3-0.1-0.5-0.5-0.4-0.9
				l1.4-3.7c0.1-0.3,0.5-0.5,0.9-0.4c0.3,0.1,0.5,0.5,0.4,0.9l-1.4,3.7C285.1,352.3,284.9,352.5,284.6,352.5z M249.3,349.9
				c-0.1,0-0.2,0-0.3-0.1c-0.3-0.2-0.4-0.6-0.3-0.9l1.9-3.5c0.2-0.3,0.6-0.4,0.9-0.3c0.3,0.2,0.4,0.6,0.3,0.9l-1.9,3.5
				C249.7,349.8,249.5,349.9,249.3,349.9z M287.5,345c-0.1,0-0.2,0-0.2,0c-0.3-0.1-0.5-0.5-0.4-0.9l1.4-3.7c0.1-0.3,0.5-0.5,0.9-0.4
				c0.3,0.1,0.5,0.5,0.4,0.9l-1.4,3.7C288,344.8,287.8,345,287.5,345z M253.1,342.9c-0.1,0-0.2,0-0.3-0.1c-0.3-0.2-0.4-0.6-0.3-0.9
				l1.9-3.5c0.2-0.3,0.6-0.4,0.9-0.3c0.3,0.2,0.4,0.6,0.3,0.9l-1.9,3.5C253.6,342.8,253.4,342.9,253.1,342.9z M290.4,337.5
				c-0.1,0-0.2,0-0.2,0c-0.3-0.1-0.5-0.5-0.4-0.9l1.4-3.7c0.1-0.3,0.5-0.5,0.9-0.4c0.3,0.1,0.5,0.5,0.4,0.9l-1.4,3.7
				C290.9,337.4,290.6,337.5,290.4,337.5z M257,335.9c-0.1,0-0.2,0-0.3-0.1c-0.3-0.2-0.4-0.6-0.3-0.9l1.9-3.5
				c0.2-0.3,0.6-0.4,0.9-0.3c0.3,0.2,0.4,0.6,0.3,0.9l-1.9,3.5C257.4,335.7,257.2,335.9,257,335.9z M293.2,330c-0.1,0-0.2,0-0.2,0
				c-0.3-0.1-0.5-0.5-0.4-0.9l1.4-3.7c0.1-0.3,0.5-0.5,0.9-0.4c0.3,0.1,0.5,0.5,0.4,0.9l-1.4,3.7C293.8,329.9,293.5,330,293.2,330z
				 M260.8,328.8c-0.1,0-0.2,0-0.3-0.1c-0.3-0.2-0.4-0.6-0.3-0.9l1.9-3.5c0.2-0.3,0.6-0.4,0.9-0.3c0.3,0.2,0.4,0.6,0.3,0.9l-1.9,3.5
				C261.3,328.7,261,328.8,260.8,328.8z M296.1,322.5c-0.1,0-0.2,0-0.2,0c-0.3-0.1-0.5-0.5-0.4-0.9l1.4-3.7c0.1-0.3,0.5-0.5,0.9-0.4
				c0.3,0.1,0.5,0.5,0.4,0.9l-1.4,3.7C296.6,322.4,296.4,322.5,296.1,322.5z M264.6,321.8c-0.1,0-0.2,0-0.3-0.1
				c-0.3-0.2-0.4-0.6-0.3-0.9l1.9-3.5c0.2-0.3,0.6-0.4,0.9-0.3c0.3,0.2,0.4,0.6,0.3,0.9l-1.9,3.5
				C265.1,321.6,264.9,321.8,264.6,321.8z M299,315c-0.1,0-0.2,0-0.2,0c-0.3-0.1-0.5-0.5-0.4-0.9l1.4-3.7c0.1-0.3,0.5-0.5,0.9-0.4
				c0.3,0.1,0.5,0.5,0.4,0.9l-1.4,3.7C299.5,314.9,299.3,315,299,315z M268.5,314.7c-0.1,0-0.2,0-0.3-0.1c-0.3-0.2-0.4-0.6-0.3-0.9
				l1.9-3.5c0.2-0.3,0.6-0.4,0.9-0.3c0.3,0.2,0.4,0.6,0.3,0.9l-1.9,3.5C268.9,314.6,268.7,314.7,268.5,314.7z M272.3,307.7
				c-0.1,0-0.2,0-0.3-0.1c-0.3-0.2-0.4-0.6-0.3-0.9l1.9-3.5c0.2-0.3,0.6-0.4,0.9-0.3c0.3,0.2,0.4,0.6,0.3,0.9l-1.9,3.5
				C272.8,307.5,272.6,307.7,272.3,307.7z M301.9,307.6c-0.1,0-0.2,0-0.2,0c-0.3-0.1-0.5-0.5-0.4-0.9l1.4-3.7
				c0.1-0.3,0.5-0.5,0.9-0.4c0.3,0.1,0.5,0.5,0.4,0.9l-1.4,3.7C302.4,307.4,302.1,307.6,301.9,307.6z M276.2,300.6
				c-0.1,0-0.2,0-0.3-0.1c-0.3-0.2-0.4-0.6-0.3-0.9l1.9-3.5c0.2-0.3,0.6-0.4,0.9-0.3c0.3,0.2,0.4,0.6,0.3,0.9l-1.9,3.5
				C276.6,300.5,276.4,300.6,276.2,300.6z M304.8,300.1c-0.1,0-0.2,0-0.2,0c-0.3-0.1-0.5-0.5-0.4-0.9l1.4-3.7
				c0.1-0.3,0.5-0.5,0.9-0.4c0.3,0.1,0.5,0.5,0.4,0.9l-1.4,3.7C305.3,299.9,305,300.1,304.8,300.1z M280,293.6c-0.1,0-0.2,0-0.3-0.1
				c-0.3-0.2-0.4-0.6-0.3-0.9l1.9-3.5c0.2-0.3,0.6-0.4,0.9-0.3c0.3,0.2,0.4,0.6,0.3,0.9l-1.9,3.5C280.5,293.5,280.2,293.6,280,293.6
				z M307.6,292.6c-0.1,0-0.2,0-0.2,0c-0.3-0.1-0.5-0.5-0.4-0.9l1.4-3.7c0.1-0.3,0.5-0.5,0.9-0.4c0.3,0.1,0.5,0.5,0.4,0.9l-1.4,3.7
				C308.1,292.4,307.9,292.6,307.6,292.6z M283.8,286.5c-0.1,0-0.2,0-0.3-0.1c-0.3-0.2-0.4-0.6-0.3-0.9l1.9-3.5
				c0.2-0.3,0.6-0.4,0.9-0.3c0.3,0.2,0.4,0.6,0.3,0.9l-1.9,3.5C284.3,286.4,284.1,286.5,283.8,286.5z M310.5,285.1
				c-0.1,0-0.2,0-0.2,0c-0.3-0.1-0.5-0.5-0.4-0.9l1.4-3.7c0.1-0.3,0.5-0.5,0.9-0.4c0.3,0.1,0.5,0.5,0.4,0.9l-1.4,3.7
				C311,284.9,310.8,285.1,310.5,285.1z M287.7,279.5c-0.1,0-0.2,0-0.3-0.1c-0.3-0.2-0.4-0.6-0.3-0.9l1.9-3.5
				c0.2-0.3,0.6-0.4,0.9-0.3c0.3,0.2,0.4,0.6,0.3,0.9l-1.9,3.5C288.1,279.4,287.9,279.5,287.7,279.5z M313.4,277.6
				c-0.1,0-0.2,0-0.2,0c-0.3-0.1-0.5-0.5-0.4-0.9l1.4-3.7c0.1-0.3,0.5-0.5,0.9-0.4c0.3,0.1,0.5,0.5,0.4,0.9l-1.4,3.7
				C313.9,277.4,313.6,277.6,313.4,277.6z M291.5,272.4c-0.1,0-0.2,0-0.3-0.1c-0.3-0.2-0.4-0.6-0.3-0.9l1.9-3.5
				c0.2-0.3,0.6-0.4,0.9-0.3c0.3,0.2,0.4,0.6,0.3,0.9l-1.9,3.5C292,272.3,291.8,272.4,291.5,272.4z M316.3,270.1c-0.1,0-0.2,0-0.2,0
				c-0.3-0.1-0.5-0.5-0.4-0.9l1.4-3.7c0.1-0.3,0.5-0.5,0.9-0.4c0.3,0.1,0.5,0.5,0.4,0.9l-1.4,3.7
				C316.8,269.9,316.5,270.1,316.3,270.1z M295.4,265.4c-0.1,0-0.2,0-0.3-0.1c-0.3-0.2-0.4-0.6-0.3-0.9l1.9-3.5
				c0.2-0.3,0.6-0.4,0.9-0.3c0.3,0.2,0.4,0.6,0.3,0.9l-1.9,3.5C295.8,265.3,295.6,265.4,295.4,265.4z M319.1,262.6
				c-0.1,0-0.2,0-0.2,0c-0.3-0.1-0.5-0.5-0.4-0.9l1.4-3.7c0.1-0.3,0.5-0.5,0.9-0.4c0.3,0.1,0.5,0.5,0.4,0.9l-1.4,3.7
				C319.6,262.5,319.4,262.6,319.1,262.6z M299.2,258.3c-0.1,0-0.2,0-0.3-0.1c-0.3-0.2-0.4-0.6-0.3-0.9l1.9-3.5
				c0.2-0.3,0.6-0.4,0.9-0.3c0.3,0.2,0.4,0.6,0.3,0.9l-1.9,3.5C299.7,258.2,299.4,258.3,299.2,258.3z M322,255.1c-0.1,0-0.2,0-0.2,0
				c-0.3-0.1-0.5-0.5-0.4-0.9l1.4-3.7c0.1-0.3,0.5-0.5,0.9-0.4c0.3,0.1,0.5,0.5,0.4,0.9l-1.4,3.7C322.5,255,322.3,255.1,322,255.1z
				 M303,251.3c-0.1,0-0.2,0-0.3-0.1c-0.3-0.2-0.4-0.6-0.3-0.9l1.9-3.5c0.2-0.3,0.6-0.4,0.9-0.3c0.3,0.2,0.4,0.6,0.3,0.9l-1.9,3.5
				C303.5,251.2,303.3,251.3,303,251.3z M324.9,247.6c-0.1,0-0.2,0-0.2,0c-0.3-0.1-0.5-0.5-0.4-0.9l1.4-3.7c0.1-0.3,0.5-0.5,0.9-0.4
				c0.3,0.1,0.5,0.5,0.4,0.9l-1.4,3.7C325.4,247.5,325.2,247.6,324.9,247.6z M306.9,244.3c-0.1,0-0.2,0-0.3-0.1
				c-0.3-0.2-0.4-0.6-0.3-0.9l1.9-3.5c0.2-0.3,0.6-0.4,0.9-0.3c0.3,0.2,0.4,0.6,0.3,0.9l-1.9,3.5
				C307.3,244.1,307.1,244.3,306.9,244.3z M327.8,240.1c-0.1,0-0.2,0-0.2,0c-0.3-0.1-0.5-0.5-0.4-0.9l1.4-3.7
				c0.1-0.3,0.5-0.5,0.9-0.4c0.3,0.1,0.5,0.5,0.4,0.9l-1.4,3.7C328.3,240,328,240.1,327.8,240.1z M310.7,237.2c-0.1,0-0.2,0-0.3-0.1
				c-0.3-0.2-0.4-0.6-0.3-0.9l1.9-3.5c0.2-0.3,0.6-0.4,0.9-0.3c0.3,0.2,0.4,0.6,0.3,0.9l-1.9,3.5
				C311.2,237.1,310.9,237.2,310.7,237.2z M330.6,232.6c-0.1,0-0.2,0-0.2,0c-0.3-0.1-0.5-0.5-0.4-0.9l1.4-3.7
				c0.1-0.3,0.5-0.5,0.9-0.4c0.3,0.1,0.5,0.5,0.4,0.9l-1.4,3.7C331.2,232.5,330.9,232.6,330.6,232.6z M314.6,230.2
				c-0.1,0-0.2,0-0.3-0.1c-0.3-0.2-0.4-0.6-0.3-0.9l1.9-3.5c0.2-0.3,0.6-0.4,0.9-0.3c0.3,0.2,0.4,0.6,0.3,0.9l-1.9,3.5
				C315,230,314.8,230.2,314.6,230.2z M333.5,225.2c-0.1,0-0.2,0-0.2,0c-0.3-0.1-0.5-0.5-0.4-0.9l1.4-3.7c0.1-0.3,0.5-0.5,0.9-0.4
				c0.3,0.1,0.5,0.5,0.4,0.9l-1.4,3.7C334,225,333.8,225.2,333.5,225.2z M318.4,223.1c-0.1,0-0.2,0-0.3-0.1
				c-0.3-0.2-0.4-0.6-0.3-0.9l1.9-3.5c0.2-0.3,0.6-0.4,0.9-0.3c0.3,0.2,0.4,0.6,0.3,0.9l-1.9,3.5C318.9,223,318.6,223.1,318.4,223.1
				z M336.4,217.7c-0.1,0-0.2,0-0.2,0c-0.3-0.1-0.5-0.5-0.4-0.9l1.4-3.7c0.1-0.3,0.5-0.5,0.9-0.4c0.3,0.1,0.5,0.5,0.4,0.9l-1.4,3.7
				C336.9,217.5,336.7,217.7,336.4,217.7z M322.2,216.1c-0.1,0-0.2,0-0.3-0.1c-0.3-0.2-0.4-0.6-0.3-0.9l1.9-3.5
				c0.2-0.3,0.6-0.4,0.9-0.3c0.3,0.2,0.4,0.6,0.3,0.9l-1.9,3.5C322.7,215.9,322.5,216.1,322.2,216.1z M339.3,210.2
				c-0.1,0-0.2,0-0.2,0c-0.3-0.1-0.5-0.5-0.4-0.9l1.4-3.7c0.1-0.3,0.5-0.5,0.9-0.4c0.3,0.1,0.5,0.5,0.4,0.9l-1.4,3.7
				C339.8,210,339.5,210.2,339.3,210.2z M326.1,209c-0.1,0-0.2,0-0.3-0.1c-0.3-0.2-0.4-0.6-0.3-0.9l1.9-3.5c0.2-0.3,0.6-0.4,0.9-0.3
				c0.3,0.2,0.4,0.6,0.3,0.9l-1.9,3.5C326.5,208.9,326.3,209,326.1,209z M342.2,202.7c-0.1,0-0.2,0-0.2,0c-0.3-0.1-0.5-0.5-0.4-0.9
				l1.4-3.7c0.1-0.3,0.5-0.5,0.9-0.4c0.3,0.1,0.5,0.5,0.4,0.9l-1.4,3.7C342.7,202.5,342.4,202.7,342.2,202.7z M329.9,202
				c-0.1,0-0.2,0-0.3-0.1c-0.3-0.2-0.4-0.6-0.3-0.9l1.9-3.5c0.2-0.3,0.6-0.4,0.9-0.3c0.3,0.2,0.4,0.6,0.3,0.9l-1.9,3.5
				C330.4,201.9,330.1,202,329.9,202z M345,195.2c-0.1,0-0.2,0-0.2,0c-0.3-0.1-0.5-0.5-0.4-0.9l1.4-3.7c0.1-0.3,0.5-0.5,0.9-0.4
				c0.3,0.1,0.5,0.5,0.4,0.9l-1.4,3.7C345.5,195,345.3,195.2,345,195.2z M333.8,194.9c-0.1,0-0.2,0-0.3-0.1
				c-0.3-0.2-0.4-0.6-0.3-0.9l1.9-3.5c0.2-0.3,0.6-0.4,0.9-0.3c0.3,0.2,0.4,0.6,0.3,0.9l-1.9,3.5C334.2,194.8,334,194.9,333.8,194.9
				z M337.6,187.9c-0.1,0-0.2,0-0.3-0.1c-0.3-0.2-0.4-0.6-0.3-0.9l1.9-3.5c0.2-0.3,0.6-0.4,0.9-0.3c0.3,0.2,0.4,0.6,0.3,0.9
				l-1.9,3.5C338.1,187.8,337.8,187.9,337.6,187.9z M347.9,187.7c-0.1,0-0.2,0-0.2,0c-0.3-0.1-0.5-0.5-0.4-0.9l1.4-3.7
				c0.1-0.3,0.5-0.5,0.9-0.4c0.3,0.1,0.5,0.5,0.4,0.9l-1.4,3.7C348.4,187.5,348.2,187.7,347.9,187.7z M341.4,180.8
				c-0.1,0-0.2,0-0.3-0.1c-0.3-0.2-0.4-0.6-0.3-0.9l1.9-3.5c0.2-0.3,0.6-0.4,0.9-0.3s0.4,0.6,0.3,0.9l-1.9,3.5
				C341.9,180.7,341.7,180.8,341.4,180.8z M350.8,180.2c-0.1,0-0.2,0-0.2,0c-0.3-0.1-0.5-0.5-0.4-0.9l1.4-3.7
				c0.1-0.3,0.5-0.5,0.9-0.4c0.3,0.1,0.5,0.5,0.4,0.9l-1.4,3.7C351.3,180.1,351,180.2,350.8,180.2z M345.3,173.8
				c-0.1,0-0.2,0-0.3-0.1c-0.3-0.2-0.4-0.6-0.3-0.9l1.9-3.5c0.2-0.3,0.6-0.4,0.9-0.3s0.4,0.6,0.3,0.9l-1.9,3.5
				C345.7,173.7,345.5,173.8,345.3,173.8z M353.7,172.7c-0.1,0-0.2,0-0.2,0c-0.3-0.1-0.5-0.5-0.4-0.9l1.4-3.7
				c0.1-0.3,0.5-0.5,0.9-0.4c0.3,0.1,0.5,0.5,0.4,0.9l-1.4,3.7C354.2,172.6,353.9,172.7,353.7,172.7z M349.1,166.8
				c-0.1,0-0.2,0-0.3-0.1c-0.3-0.2-0.4-0.6-0.3-0.9l1.9-3.5c0.2-0.3,0.6-0.4,0.9-0.3c0.3,0.2,0.4,0.6,0.3,0.9l-1.9,3.5
				C349.6,166.6,349.3,166.8,349.1,166.8z M356.5,165.2c-0.1,0-0.2,0-0.2,0c-0.3-0.1-0.5-0.5-0.4-0.9l1.4-3.7
				c0.1-0.3,0.5-0.5,0.9-0.4c0.3,0.1,0.5,0.5,0.4,0.9l-1.4,3.7C357,165.1,356.8,165.2,356.5,165.2z M353,159.7c-0.1,0-0.2,0-0.3-0.1
				c-0.3-0.2-0.4-0.6-0.3-0.9l1.9-3.5c0.2-0.3,0.6-0.4,0.9-0.3c0.3,0.2,0.4,0.6,0.3,0.9l-1.9,3.5C353.4,159.6,353.2,159.7,353,159.7
				z M359.4,157.7c-0.1,0-0.2,0-0.2,0c-0.3-0.1-0.5-0.5-0.4-0.9l1.4-3.7c0.1-0.3,0.5-0.5,0.9-0.4c0.3,0.1,0.5,0.5,0.4,0.9l-1.4,3.7
				C359.9,157.6,359.7,157.7,359.4,157.7z M356.8,152.7c-0.1,0-0.2,0-0.3-0.1c-0.3-0.2-0.4-0.6-0.3-0.9l1.9-3.5
				c0.2-0.3,0.6-0.4,0.9-0.3c0.3,0.2,0.4,0.6,0.3,0.9l-1.9,3.5C357.3,152.5,357,152.7,356.8,152.7z M362.3,150.3c-0.1,0-0.2,0-0.2,0
				c-0.3-0.1-0.5-0.5-0.4-0.9l1.4-3.7c0.1-0.3,0.5-0.5,0.9-0.4c0.3,0.1,0.5,0.5,0.4,0.9l-1.4,3.7
				C362.8,150.1,362.6,150.3,362.3,150.3z M360.6,145.6c-0.1,0-0.2,0-0.3-0.1c-0.3-0.2-0.4-0.6-0.3-0.9l1.9-3.5
				c0.2-0.3,0.6-0.4,0.9-0.3c0.3,0.2,0.4,0.6,0.3,0.9l-1.9,3.5C361.1,145.5,360.9,145.6,360.6,145.6z M365.2,142.8
				c-0.1,0-0.2,0-0.2,0c-0.3-0.1-0.5-0.5-0.4-0.9l1.4-3.7c0.1-0.3,0.5-0.5,0.9-0.4c0.3,0.1,0.5,0.5,0.4,0.9l-1.4,3.7
				C365.7,142.6,365.4,142.8,365.2,142.8z M364.5,138.6c-0.1,0-0.2,0-0.3-0.1c-0.3-0.2-0.4-0.6-0.3-0.9l1.9-3.5
				c0.2-0.3,0.6-0.4,0.9-0.3c0.3,0.2,0.4,0.6,0.3,0.9l-1.9,3.5C364.9,138.4,364.7,138.6,364.5,138.6z M368,135.3c-0.1,0-0.2,0-0.2,0
				c-0.3-0.1-0.5-0.5-0.4-0.9l1.1-2.9c-0.2,0.1-0.4,0.1-0.5,0c-0.3-0.2-0.4-0.6-0.3-0.9l1.9-3.5c0.1-0.3,0.4-0.4,0.7-0.3l1.1-2.9
				c0-0.1,0-0.2,0.1-0.3l0.1-0.2c0.2-0.3,0.5-0.4,0.9-0.3c0.3,0.1,0.5,0.5,0.3,0.8l-1.4,3.5c-0.1,0.3-0.5,0.5-0.8,0.4l-1.3,2.4
				c0.1,0,0.2,0,0.3,0c0.3,0.1,0.5,0.5,0.4,0.9l-1.4,3.7C368.6,135.1,368.3,135.3,368,135.3z"/>
		</g>
		<g>
			<path class="st4" d="M412.3,571.6c0,0-0.1,0-0.1,0c-0.4-0.1-0.6-0.4-0.5-0.8l0.9-3.9c0.1-0.3,0.3-0.5,0.6-0.5l0.2-0.5
				c0.1-0.3,0.5-0.5,0.8-0.4c0.3,0.1,0.5,0.5,0.4,0.8l-1.2,3.8c-0.1,0.2-0.2,0.3-0.3,0.4l-0.1,0.6
				C412.8,571.4,412.6,571.6,412.3,571.6z M414,563.8c0,0-0.1,0-0.1,0c-0.4-0.1-0.6-0.4-0.5-0.8l0.9-3.9c0.1-0.4,0.4-0.6,0.8-0.5
				c0.2,0,0.3,0.2,0.4,0.3l0.2-0.7c0.1-0.3,0.5-0.5,0.8-0.4c0.3,0.1,0.5,0.5,0.4,0.8l-1.2,3.8c-0.1,0.3-0.5,0.5-0.8,0.4
				c-0.1,0-0.1,0-0.1-0.1l-0.1,0.5C414.6,563.6,414.3,563.8,414,563.8z M415.8,555.9c0,0-0.1,0-0.1,0c-0.4-0.1-0.6-0.4-0.5-0.8
				l0.9-3.9c0.1-0.4,0.4-0.6,0.8-0.5c0.4,0.1,0.6,0.4,0.5,0.8l-0.9,3.9C416.3,555.7,416.1,555.9,415.8,555.9z M417.5,555.2
				c-0.1,0-0.1,0-0.2,0c-0.3-0.1-0.5-0.5-0.4-0.8l1.2-3.8c0.1-0.3,0.5-0.5,0.8-0.4c0.3,0.1,0.5,0.5,0.4,0.8l-1.2,3.8
				C418,555,417.8,555.2,417.5,555.2z M417.5,548.1c0,0-0.1,0-0.1,0c-0.4-0.1-0.6-0.4-0.5-0.8l0.9-3.9c0.1-0.4,0.4-0.6,0.8-0.5
				c0.4,0.1,0.6,0.4,0.5,0.8l-0.9,3.9C418.1,547.9,417.8,548.1,417.5,548.1z M419.9,547.6c-0.1,0-0.1,0-0.2,0
				c-0.3-0.1-0.5-0.5-0.4-0.8l1.2-3.8c0.1-0.3,0.5-0.5,0.8-0.4c0.3,0.1,0.5,0.5,0.4,0.8l-1.2,3.8
				C420.4,547.4,420.1,547.6,419.9,547.6z M419.2,540.3c0,0-0.1,0-0.1,0c-0.4-0.1-0.6-0.4-0.5-0.8l0.9-3.9c0.1-0.4,0.4-0.6,0.8-0.5
				c0.4,0.1,0.6,0.4,0.5,0.8l-0.9,3.9C419.8,540.1,419.5,540.3,419.2,540.3z M422.2,539.9c-0.1,0-0.1,0-0.2,0
				c-0.3-0.1-0.5-0.5-0.4-0.8l1.2-3.8c0.1-0.3,0.5-0.5,0.8-0.4c0.3,0.1,0.5,0.5,0.4,0.8l-1.2,3.8
				C422.8,539.7,422.5,539.9,422.2,539.9z M421,532.4c0,0-0.1,0-0.1,0c-0.4-0.1-0.6-0.4-0.5-0.8l0.9-3.9c0.1-0.4,0.4-0.6,0.8-0.5
				c0.4,0.1,0.6,0.4,0.5,0.8l-0.9,3.9C421.5,532.2,421.3,532.4,421,532.4z M424.6,532.2c-0.1,0-0.1,0-0.2,0
				c-0.3-0.1-0.5-0.5-0.4-0.8l1.2-3.8c0.1-0.3,0.5-0.5,0.8-0.4c0.3,0.1,0.5,0.5,0.4,0.8l-1.2,3.8C425.2,532,424.9,532.2,424.6,532.2
				z M422.7,524.6c0,0-0.1,0-0.1,0c-0.4-0.1-0.6-0.4-0.5-0.8l0.9-3.9c0.1-0.4,0.4-0.6,0.8-0.5c0.4,0.1,0.6,0.4,0.5,0.8l-0.9,3.9
				C423.3,524.4,423,524.6,422.7,524.6z M427,524.6c-0.1,0-0.1,0-0.2,0c-0.3-0.1-0.5-0.5-0.4-0.8l1.2-3.8c0.1-0.3,0.5-0.5,0.8-0.4
				c0.3,0.1,0.5,0.5,0.4,0.8l-1.2,3.8C427.6,524.4,427.3,524.6,427,524.6z M429.4,516.9c-0.1,0-0.1,0-0.2,0
				c-0.3-0.1-0.5-0.5-0.4-0.8l1.2-3.8c0.1-0.3,0.5-0.5,0.8-0.4c0.3,0.1,0.5,0.5,0.4,0.8l-1.2,3.8
				C429.9,516.7,429.7,516.9,429.4,516.9z M424.5,516.8c0,0-0.1,0-0.1,0c-0.4-0.1-0.6-0.4-0.5-0.8l0.9-3.9c0.1-0.4,0.4-0.6,0.8-0.5
				c0.4,0.1,0.6,0.4,0.5,0.8l-0.9,3.9C425,516.6,424.8,516.8,424.5,516.8z M431.8,509.2c-0.1,0-0.1,0-0.2,0
				c-0.3-0.1-0.5-0.5-0.4-0.8l1.2-3.8c0.1-0.3,0.5-0.5,0.8-0.4c0.3,0.1,0.5,0.5,0.4,0.8l-1.2,3.8
				C432.3,509.1,432.1,509.2,431.8,509.2z M426.2,508.9c0,0-0.1,0-0.1,0c-0.4-0.1-0.6-0.4-0.5-0.8l0.9-3.9c0.1-0.4,0.4-0.6,0.8-0.5
				c0.4,0.1,0.6,0.4,0.5,0.8l-0.9,3.9C426.8,508.7,426.5,508.9,426.2,508.9z M434.2,501.6c-0.1,0-0.1,0-0.2,0
				c-0.3-0.1-0.5-0.5-0.4-0.8l1.2-3.8c0.1-0.3,0.5-0.5,0.8-0.4c0.3,0.1,0.5,0.5,0.4,0.8l-1.2,3.8
				C434.7,501.4,434.4,501.6,434.2,501.6z M427.9,501.1c0,0-0.1,0-0.1,0c-0.4-0.1-0.6-0.4-0.5-0.8l0.9-3.9c0.1-0.4,0.4-0.6,0.8-0.5
				c0.4,0.1,0.6,0.4,0.5,0.8l-0.9,3.9C428.5,500.9,428.2,501.1,427.9,501.1z M436.5,493.9c-0.1,0-0.1,0-0.2,0
				c-0.3-0.1-0.5-0.5-0.4-0.8l1.2-3.8c0.1-0.3,0.5-0.5,0.8-0.4c0.3,0.1,0.5,0.5,0.4,0.8l-1.2,3.8
				C437.1,493.7,436.8,493.9,436.5,493.9z M429.7,493.3c0,0-0.1,0-0.1,0c-0.4-0.1-0.6-0.4-0.5-0.8l0.9-3.9c0.1-0.4,0.4-0.6,0.8-0.5
				c0.4,0.1,0.6,0.4,0.5,0.8l-0.9,3.9C430.2,493.1,430,493.3,429.7,493.3z M438.9,486.2c-0.1,0-0.1,0-0.2,0
				c-0.3-0.1-0.5-0.5-0.4-0.8l1.2-3.8c0.1-0.3,0.5-0.5,0.8-0.4c0.3,0.1,0.5,0.5,0.4,0.8l-1.2,3.8
				C439.5,486.1,439.2,486.2,438.9,486.2z M431.4,485.4c0,0-0.1,0-0.1,0c-0.4-0.1-0.6-0.4-0.5-0.8l0.9-3.9c0.1-0.4,0.4-0.6,0.8-0.5
				c0.4,0.1,0.6,0.4,0.5,0.8l-0.9,3.9C432,485.2,431.7,485.4,431.4,485.4z M441.3,478.6c-0.1,0-0.1,0-0.2,0
				c-0.3-0.1-0.5-0.5-0.4-0.8l1.2-3.8c0.1-0.3,0.5-0.5,0.8-0.4c0.3,0.1,0.5,0.5,0.4,0.8l-1.2,3.8
				C441.8,478.4,441.6,478.6,441.3,478.6z M433.2,477.6c0,0-0.1,0-0.1,0c-0.4-0.1-0.6-0.4-0.5-0.8l0.9-3.9c0.1-0.4,0.4-0.6,0.8-0.5
				c0.4,0.1,0.6,0.4,0.5,0.8l-0.9,3.9C433.7,477.4,433.5,477.6,433.2,477.6z M443.7,470.9c-0.1,0-0.1,0-0.2,0
				c-0.3-0.1-0.5-0.5-0.4-0.8l1.2-3.8c0.1-0.3,0.5-0.5,0.8-0.4c0.3,0.1,0.5,0.5,0.4,0.8l-1.2,3.8C444.2,470.7,444,470.9,443.7,470.9
				z M434.9,469.8c0,0-0.1,0-0.1,0c-0.4-0.1-0.6-0.4-0.5-0.8l0.9-3.9c0.1-0.4,0.4-0.6,0.8-0.5c0.4,0.1,0.6,0.4,0.5,0.8l-0.9,3.9
				C435.5,469.6,435.2,469.8,434.9,469.8z M446.1,463.3c-0.1,0-0.1,0-0.2,0c-0.3-0.1-0.5-0.5-0.4-0.8l1.2-3.8
				c0.1-0.3,0.5-0.5,0.8-0.4c0.3,0.1,0.5,0.5,0.4,0.8l-1.2,3.8C446.6,463.1,446.3,463.3,446.1,463.3z M436.6,461.9c0,0-0.1,0-0.1,0
				c-0.4-0.1-0.6-0.4-0.5-0.8l0.9-3.9c0.1-0.4,0.4-0.6,0.8-0.5c0.4,0.1,0.6,0.4,0.5,0.8l-0.9,3.9
				C437.2,461.7,436.9,461.9,436.6,461.9z M448.4,455.6c-0.1,0-0.1,0-0.2,0c-0.3-0.1-0.5-0.5-0.4-0.8l1.2-3.8
				c0.1-0.3,0.5-0.5,0.8-0.4c0.3,0.1,0.5,0.5,0.4,0.8l-1.2,3.8C449,455.4,448.7,455.6,448.4,455.6z M438.4,454.1c0,0-0.1,0-0.1,0
				c-0.4-0.1-0.6-0.4-0.5-0.8l0.9-3.9c0.1-0.4,0.4-0.6,0.8-0.5c0.4,0.1,0.6,0.4,0.5,0.8l-0.9,3.9
				C438.9,453.9,438.7,454.1,438.4,454.1z M450.8,447.9c-0.1,0-0.1,0-0.2,0c-0.3-0.1-0.5-0.5-0.4-0.8l1.2-3.8
				c0.1-0.3,0.5-0.5,0.8-0.4c0.3,0.1,0.5,0.5,0.4,0.8l-1.2,3.8C451.4,447.8,451.1,447.9,450.8,447.9z M440.1,446.3c0,0-0.1,0-0.1,0
				c-0.4-0.1-0.6-0.4-0.5-0.8l0.9-3.9c0.1-0.4,0.4-0.6,0.8-0.5c0.4,0.1,0.6,0.4,0.5,0.8l-0.9,3.9
				C440.7,446.1,440.4,446.3,440.1,446.3z M453.2,440.3c-0.1,0-0.1,0-0.2,0c-0.3-0.1-0.5-0.5-0.4-0.8l1.2-3.8
				c0.1-0.3,0.5-0.5,0.8-0.4c0.3,0.1,0.5,0.5,0.4,0.8l-1.2,3.8C453.7,440.1,453.5,440.3,453.2,440.3z M441.9,438.4c0,0-0.1,0-0.1,0
				c-0.4-0.1-0.6-0.4-0.5-0.8l0.9-3.9c0.1-0.4,0.4-0.6,0.8-0.5c0.4,0.1,0.6,0.4,0.5,0.8l-0.9,3.9
				C442.4,438.2,442.2,438.4,441.9,438.4z M455.6,432.6c-0.1,0-0.1,0-0.2,0c-0.3-0.1-0.5-0.5-0.4-0.8l1.2-3.8
				c0.1-0.3,0.5-0.5,0.8-0.4c0.3,0.1,0.5,0.5,0.4,0.8l-1.2,3.8C456.1,432.4,455.9,432.6,455.6,432.6z M443.6,430.6c0,0-0.1,0-0.1,0
				c-0.4-0.1-0.6-0.4-0.5-0.8l0.9-3.9c0.1-0.4,0.4-0.6,0.8-0.5c0.4,0.1,0.6,0.4,0.5,0.8l-0.9,3.9
				C444.2,430.4,443.9,430.6,443.6,430.6z M458,424.9c-0.1,0-0.1,0-0.2,0c-0.3-0.1-0.5-0.5-0.4-0.8l1.2-3.8c0.1-0.3,0.5-0.5,0.8-0.4
				c0.3,0.1,0.5,0.5,0.4,0.8l-1.2,3.8C458.5,424.8,458.2,424.9,458,424.9z M445.3,422.8c0,0-0.1,0-0.1,0c-0.4-0.1-0.6-0.4-0.5-0.8
				l0.9-3.9c0.1-0.4,0.4-0.6,0.8-0.5c0.4,0.1,0.6,0.4,0.5,0.8l-0.9,3.9C445.9,422.6,445.6,422.8,445.3,422.8z M460.3,417.3
				c-0.1,0-0.1,0-0.2,0c-0.3-0.1-0.5-0.5-0.4-0.8l1.2-3.8c0.1-0.3,0.5-0.5,0.8-0.4c0.3,0.1,0.5,0.5,0.4,0.8l-1.2,3.8
				C460.9,417.1,460.6,417.3,460.3,417.3z M447.1,414.9c0,0-0.1,0-0.1,0c-0.4-0.1-0.6-0.4-0.5-0.8l0.9-3.9c0.1-0.4,0.4-0.6,0.8-0.5
				c0.4,0.1,0.6,0.4,0.5,0.8l-0.9,3.9C447.6,414.7,447.4,414.9,447.1,414.9z M462.7,409.6c-0.1,0-0.1,0-0.2,0
				c-0.3-0.1-0.5-0.5-0.4-0.8l1.2-3.8c0.1-0.3,0.5-0.5,0.8-0.4c0.3,0.1,0.5,0.5,0.4,0.8l-1.2,3.8C463.3,409.4,463,409.6,462.7,409.6
				z M448.8,407.1c0,0-0.1,0-0.1,0c-0.4-0.1-0.6-0.4-0.5-0.8l0.9-3.9c0.1-0.4,0.4-0.6,0.8-0.5c0.4,0.1,0.6,0.4,0.5,0.8l-0.9,3.9
				C449.4,406.9,449.1,407.1,448.8,407.1z M465.1,402c-0.1,0-0.1,0-0.2,0c-0.3-0.1-0.5-0.5-0.4-0.8l1.2-3.8c0.1-0.3,0.5-0.5,0.8-0.4
				c0.3,0.1,0.5,0.5,0.4,0.8l-1.2,3.8C465.6,401.8,465.4,402,465.1,402z M450.6,399.3c0,0-0.1,0-0.1,0c-0.4-0.1-0.6-0.4-0.5-0.8
				l0.9-3.9c0.1-0.4,0.4-0.6,0.8-0.5c0.4,0.1,0.6,0.4,0.5,0.8l-0.9,3.9C451.1,399.1,450.9,399.3,450.6,399.3z M467.5,394.3
				c-0.1,0-0.1,0-0.2,0c-0.3-0.1-0.5-0.5-0.4-0.8l1.2-3.8c0.1-0.3,0.5-0.5,0.8-0.4c0.3,0.1,0.5,0.5,0.4,0.8l-1.2,3.8
				C468,394.1,467.8,394.3,467.5,394.3z M452.3,391.4c0,0-0.1,0-0.1,0c-0.4-0.1-0.6-0.4-0.5-0.8l0.9-3.9c0.1-0.4,0.4-0.6,0.8-0.5
				c0.4,0.1,0.6,0.4,0.5,0.8l-0.9,3.9C452.9,391.2,452.6,391.4,452.3,391.4z M469.9,386.6c-0.1,0-0.1,0-0.2,0
				c-0.3-0.1-0.5-0.5-0.4-0.8l1.2-3.8c0.1-0.3,0.5-0.5,0.8-0.4c0.3,0.1,0.5,0.5,0.4,0.8l-1.2,3.8
				C470.4,386.4,470.1,386.6,469.9,386.6z M454,383.6c0,0-0.1,0-0.1,0c-0.4-0.1-0.6-0.4-0.5-0.8l0.9-3.9c0.1-0.4,0.4-0.6,0.8-0.5
				c0.4,0.1,0.6,0.4,0.5,0.8l-0.9,3.9C454.6,383.4,454.3,383.6,454,383.6z M472.2,379c-0.1,0-0.1,0-0.2,0c-0.3-0.1-0.5-0.5-0.4-0.8
				l1.2-3.8c0.1-0.3,0.5-0.5,0.8-0.4c0.3,0.1,0.5,0.5,0.4,0.8l-1.2,3.8C472.8,378.8,472.5,379,472.2,379z M455.8,375.8
				c0,0-0.1,0-0.1,0c-0.4-0.1-0.6-0.4-0.5-0.8l0.9-3.9c0.1-0.4,0.4-0.6,0.8-0.5c0.4,0.1,0.6,0.4,0.5,0.8l-0.9,3.9
				C456.3,375.6,456.1,375.8,455.8,375.8z M474.6,371.3c-0.1,0-0.1,0-0.2,0c-0.3-0.1-0.5-0.5-0.4-0.8l1.2-3.8
				c0.1-0.3,0.5-0.5,0.8-0.4c0.3,0.1,0.5,0.5,0.4,0.8l-1.2,3.8C475.2,371.1,474.9,371.3,474.6,371.3z M457.5,367.9c0,0-0.1,0-0.1,0
				c-0.4-0.1-0.6-0.4-0.5-0.8l0.9-3.9c0.1-0.4,0.4-0.6,0.8-0.5c0.4,0.1,0.6,0.4,0.5,0.8l-0.9,3.9
				C458.1,367.7,457.8,367.9,457.5,367.9z M477,363.6c-0.1,0-0.1,0-0.2,0c-0.3-0.1-0.5-0.5-0.4-0.8l1.2-3.8c0.1-0.3,0.5-0.5,0.8-0.4
				c0.3,0.1,0.5,0.5,0.4,0.8l-1.2,3.8C477.5,363.5,477.3,363.6,477,363.6z M459.3,360.1c0,0-0.1,0-0.1,0c-0.4-0.1-0.6-0.4-0.5-0.8
				l0.9-3.9c0.1-0.4,0.4-0.6,0.8-0.5c0.4,0.1,0.6,0.4,0.5,0.8l-0.9,3.9C459.8,359.9,459.6,360.1,459.3,360.1z M479.4,356
				c-0.1,0-0.1,0-0.2,0c-0.3-0.1-0.5-0.5-0.4-0.8l0.6-2l-0.6-1.3c-0.2-0.3,0-0.7,0.3-0.9c0.3-0.2,0.7,0,0.9,0.3l0.7,1.5
				c0.1,0.1,0.1,0.3,0,0.5l-0.7,2.3C479.9,355.8,479.7,356,479.4,356z M461,352.3c0,0-0.1,0-0.1,0c-0.4-0.1-0.6-0.4-0.5-0.8l0.1-0.3
				l-1.2-3.1c-0.1-0.3,0-0.7,0.4-0.9c0.3-0.1,0.7,0,0.9,0.4l1.3,3.3c0,0.1,0.1,0.3,0,0.4l-0.1,0.5
				C461.6,352.1,461.3,352.3,461,352.3z M477.7,348.6c-0.2,0-0.5-0.1-0.6-0.4l-1.7-3.6c-0.2-0.3,0-0.7,0.3-0.9
				c0.3-0.2,0.7,0,0.9,0.3l1.7,3.6c0.2,0.3,0,0.7-0.3,0.9C477.9,348.6,477.8,348.6,477.7,348.6z M458.3,344.8
				c-0.3,0-0.5-0.2-0.6-0.4l-1.5-3.7c-0.1-0.3,0-0.7,0.4-0.9c0.3-0.1,0.7,0,0.9,0.4l1.5,3.7c0.1,0.3,0,0.7-0.4,0.9
				C458.5,344.8,458.4,344.8,458.3,344.8z M474.3,341.3c-0.2,0-0.5-0.1-0.6-0.4l-1.7-3.6c-0.2-0.3,0-0.7,0.3-0.9
				c0.3-0.2,0.7,0,0.9,0.3l1.7,3.6c0.2,0.3,0,0.7-0.3,0.9C474.4,341.3,474.4,341.3,474.3,341.3z M455.4,337.3
				c-0.3,0-0.5-0.2-0.6-0.4l-1.5-3.7c-0.1-0.3,0-0.7,0.4-0.9c0.3-0.1,0.7,0,0.9,0.4l1.5,3.7c0.1,0.3,0,0.7-0.4,0.9
				C455.6,337.3,455.5,337.3,455.4,337.3z M470.8,334.1c-0.2,0-0.5-0.1-0.6-0.4l-1.7-3.6c-0.2-0.3,0-0.7,0.3-0.9
				c0.3-0.2,0.7,0,0.9,0.3l1.7,3.6c0.2,0.3,0,0.7-0.3,0.9C471,334.1,470.9,334.1,470.8,334.1z M452.5,329.8c-0.3,0-0.5-0.2-0.6-0.4
				l-1.5-3.7c-0.1-0.3,0-0.7,0.4-0.9c0.3-0.1,0.7,0,0.9,0.4l1.5,3.7c0.1,0.3,0,0.7-0.4,0.9C452.7,329.8,452.6,329.8,452.5,329.8z
				 M467.4,326.8c-0.2,0-0.5-0.1-0.6-0.4l-1.7-3.6c-0.2-0.3,0-0.7,0.3-0.9c0.3-0.2,0.7,0,0.9,0.3l1.7,3.6c0.2,0.3,0,0.7-0.3,0.9
				C467.6,326.8,467.5,326.8,467.4,326.8z M449.6,322.3c-0.3,0-0.5-0.2-0.6-0.4l-1.5-3.7c-0.1-0.3,0-0.7,0.4-0.9
				c0.3-0.1,0.7,0,0.9,0.4l1.5,3.7c0.1,0.3,0,0.7-0.4,0.9C449.7,322.3,449.7,322.3,449.6,322.3z M464,319.5c-0.2,0-0.5-0.1-0.6-0.4
				l-1.7-3.6c-0.2-0.3,0-0.7,0.3-0.9c0.3-0.2,0.7,0,0.9,0.3l1.7,3.6c0.2,0.3,0,0.7-0.3,0.9C464.2,319.5,464.1,319.5,464,319.5z
				 M446.7,314.9c-0.3,0-0.5-0.2-0.6-0.4l-1.5-3.7c-0.1-0.3,0-0.7,0.4-0.9c0.3-0.1,0.7,0,0.9,0.4l1.5,3.7c0.1,0.3,0,0.7-0.4,0.9
				C446.8,314.9,446.8,314.9,446.7,314.9z M460.6,312.3c-0.2,0-0.5-0.1-0.6-0.4l-1.7-3.6c-0.2-0.3,0-0.7,0.3-0.9
				c0.3-0.2,0.7,0,0.9,0.3l1.7,3.6c0.2,0.3,0,0.7-0.3,0.9C460.8,312.3,460.7,312.3,460.6,312.3z M443.8,307.4
				c-0.3,0-0.5-0.2-0.6-0.4l-1.5-3.7c-0.1-0.3,0-0.7,0.4-0.9c0.3-0.1,0.7,0,0.9,0.4l1.5,3.7c0.1,0.3,0,0.7-0.4,0.9
				C443.9,307.4,443.8,307.4,443.8,307.4z M457.2,305c-0.2,0-0.5-0.1-0.6-0.4l-1.7-3.6c-0.2-0.3,0-0.7,0.3-0.9
				c0.3-0.2,0.7,0,0.9,0.3l1.7,3.6c0.2,0.3,0,0.7-0.3,0.9C457.4,305,457.3,305,457.2,305z M440.8,299.9c-0.3,0-0.5-0.2-0.6-0.4
				l-1.5-3.7c-0.1-0.3,0-0.7,0.4-0.9c0.3-0.1,0.7,0,0.9,0.4l1.5,3.7c0.1,0.3,0,0.7-0.4,0.9C441,299.9,440.9,299.9,440.8,299.9z
				 M453.8,297.8c-0.2,0-0.5-0.1-0.6-0.4l-1.7-3.6c-0.2-0.3,0-0.7,0.3-0.9c0.3-0.2,0.7,0,0.9,0.3l1.7,3.6c0.2,0.3,0,0.7-0.3,0.9
				C454,297.7,453.9,297.8,453.8,297.8z M437.9,292.4c-0.3,0-0.5-0.2-0.6-0.4l-1.5-3.7c-0.1-0.3,0-0.7,0.4-0.9
				c0.3-0.1,0.7,0,0.9,0.4l1.5,3.7c0.1,0.3,0,0.7-0.4,0.9C438.1,292.4,438,292.4,437.9,292.4z M450.4,290.5c-0.2,0-0.5-0.1-0.6-0.4
				l-1.7-3.6c-0.2-0.3,0-0.7,0.3-0.9c0.3-0.2,0.7,0,0.9,0.3l1.7,3.6c0.2,0.3,0,0.7-0.3,0.9C450.6,290.5,450.5,290.5,450.4,290.5z
				 M435,285c-0.3,0-0.5-0.2-0.6-0.4l-1.5-3.7c-0.1-0.3,0-0.7,0.4-0.9c0.3-0.1,0.7,0,0.9,0.4l1.5,3.7c0.1,0.3,0,0.7-0.4,0.9
				C435.2,285,435.1,285,435,285z M447,283.2c-0.2,0-0.5-0.1-0.6-0.4l-1.7-3.6c-0.2-0.3,0-0.7,0.3-0.9c0.3-0.2,0.7,0,0.9,0.3
				l1.7,3.6c0.2,0.3,0,0.7-0.3,0.9C447.2,283.2,447.1,283.2,447,283.2z M432.1,277.5c-0.3,0-0.5-0.2-0.6-0.4l-1.5-3.7
				c-0.1-0.3,0-0.7,0.4-0.9c0.3-0.1,0.7,0,0.9,0.4l1.5,3.7c0.1,0.3,0,0.7-0.4,0.9C432.2,277.5,432.2,277.5,432.1,277.5z M443.5,276
				c-0.2,0-0.5-0.1-0.6-0.4l-1.7-3.6c-0.2-0.3,0-0.7,0.3-0.9c0.3-0.2,0.7,0,0.9,0.3l1.7,3.6c0.2,0.3,0,0.7-0.3,0.9
				C443.7,276,443.6,276,443.5,276z M429.2,270c-0.3,0-0.5-0.2-0.6-0.4l-1.5-3.7c-0.1-0.3,0-0.7,0.4-0.9c0.3-0.1,0.7,0,0.9,0.4
				l1.5,3.7c0.1,0.3,0,0.7-0.4,0.9C429.3,270,429.2,270,429.2,270z M440.1,268.7c-0.2,0-0.5-0.1-0.6-0.4l-1.7-3.6
				c-0.2-0.3,0-0.7,0.3-0.9c0.3-0.2,0.7,0,0.9,0.3l1.7,3.6c0.2,0.3,0,0.7-0.3,0.9C440.3,268.7,440.2,268.7,440.1,268.7z
				 M426.2,262.5c-0.3,0-0.5-0.2-0.6-0.4l-1.5-3.7c-0.1-0.3,0-0.7,0.4-0.9c0.3-0.1,0.7,0,0.9,0.4l1.5,3.7c0.1,0.3,0,0.7-0.4,0.9
				C426.4,262.5,426.3,262.5,426.2,262.5z M436.7,261.4c-0.2,0-0.5-0.1-0.6-0.4l-1.7-3.6c-0.2-0.3,0-0.7,0.3-0.9
				c0.3-0.2,0.7,0,0.9,0.3l1.7,3.6c0.2,0.3,0,0.7-0.3,0.9C436.9,261.4,436.8,261.4,436.7,261.4z M423.3,255.1
				c-0.3,0-0.5-0.2-0.6-0.4l-1.5-3.7c-0.1-0.3,0-0.7,0.4-0.9c0.3-0.1,0.7,0,0.9,0.4l1.5,3.7c0.1,0.3,0,0.7-0.4,0.9
				C423.5,255.1,423.4,255.1,423.3,255.1z M433.3,254.2c-0.2,0-0.5-0.1-0.6-0.4l-1.7-3.6c-0.2-0.3,0-0.7,0.3-0.9
				c0.3-0.2,0.7,0,0.9,0.3l1.7,3.6c0.2,0.3,0,0.7-0.3,0.9C433.5,254.2,433.4,254.2,433.3,254.2z M420.4,247.6
				c-0.3,0-0.5-0.2-0.6-0.4l-1.5-3.7c-0.1-0.3,0-0.7,0.4-0.9c0.3-0.1,0.7,0,0.9,0.4l1.5,3.7c0.1,0.3,0,0.7-0.4,0.9
				C420.6,247.6,420.5,247.6,420.4,247.6z M429.9,246.9c-0.2,0-0.5-0.1-0.6-0.4l-1.7-3.6c-0.2-0.3,0-0.7,0.3-0.9
				c0.3-0.2,0.7,0,0.9,0.3l1.7,3.6c0.2,0.3,0,0.7-0.3,0.9C430.1,246.9,430,246.9,429.9,246.9z M417.5,240.1c-0.3,0-0.5-0.2-0.6-0.4
				l-1.5-3.7c-0.1-0.3,0-0.7,0.4-0.9c0.3-0.1,0.7,0,0.9,0.4l1.5,3.7c0.1,0.3,0,0.7-0.4,0.9C417.7,240.1,417.6,240.1,417.5,240.1z
				 M426.5,239.7c-0.2,0-0.5-0.1-0.6-0.4l-1.7-3.6c-0.2-0.3,0-0.7,0.3-0.9c0.3-0.2,0.7,0,0.9,0.3l1.7,3.6c0.2,0.3,0,0.7-0.3,0.9
				C426.7,239.6,426.6,239.7,426.5,239.7z M414.6,232.6c-0.3,0-0.5-0.2-0.6-0.4l-1.5-3.7c-0.1-0.3,0-0.7,0.4-0.9
				c0.3-0.1,0.7,0,0.9,0.4l1.5,3.7c0.1,0.3,0,0.7-0.4,0.9C414.7,232.6,414.7,232.6,414.6,232.6z M423.1,232.4
				c-0.2,0-0.5-0.1-0.6-0.4l-1.7-3.6c-0.2-0.3,0-0.7,0.3-0.9c0.3-0.2,0.7,0,0.9,0.3l1.7,3.6c0.2,0.3,0,0.7-0.3,0.9
				C423.3,232.4,423.2,232.4,423.1,232.4z M411.7,225.2c-0.3,0-0.5-0.2-0.6-0.4l-1.5-3.7c-0.1-0.3,0-0.7,0.4-0.9
				c0.3-0.1,0.7,0,0.9,0.4l1.5,3.7c0.1,0.3,0,0.7-0.4,0.9C411.8,225.2,411.7,225.2,411.7,225.2z M419.7,225.1
				c-0.2,0-0.5-0.1-0.6-0.4l-1.7-3.6c-0.2-0.3,0-0.7,0.3-0.9c0.3-0.2,0.7,0,0.9,0.3l1.7,3.6c0.2,0.3,0,0.7-0.3,0.9
				C419.9,225.1,419.8,225.1,419.7,225.1z M416.3,217.9c-0.2,0-0.5-0.1-0.6-0.4l-1.7-3.6c-0.2-0.3,0-0.7,0.3-0.9
				c0.3-0.2,0.7,0,0.9,0.3l1.7,3.6c0.2,0.3,0,0.7-0.3,0.9C416.4,217.9,416.3,217.9,416.3,217.9z M408.7,217.7
				c-0.3,0-0.5-0.2-0.6-0.4l-1.5-3.7c-0.1-0.3,0-0.7,0.4-0.9c0.3-0.1,0.7,0,0.9,0.4l1.5,3.7c0.1,0.3,0,0.7-0.4,0.9
				C408.9,217.7,408.8,217.7,408.7,217.7z M412.8,210.6c-0.2,0-0.5-0.1-0.6-0.4l-1.7-3.6c-0.2-0.3,0-0.7,0.3-0.9
				c0.3-0.2,0.7,0,0.9,0.3l1.7,3.6c0.2,0.3,0,0.7-0.3,0.9C413,210.6,412.9,210.6,412.8,210.6z M405.8,210.2c-0.3,0-0.5-0.2-0.6-0.4
				l-1.5-3.7c-0.1-0.3,0-0.7,0.4-0.9c0.3-0.1,0.7,0,0.9,0.4l1.5,3.7c0.1,0.3,0,0.7-0.4,0.9C406,210.2,405.9,210.2,405.8,210.2z
				 M409.4,203.3c-0.2,0-0.5-0.1-0.6-0.4l-1.7-3.6c-0.2-0.3,0-0.7,0.3-0.9c0.3-0.2,0.7,0,0.9,0.3l1.7,3.6c0.2,0.3,0,0.7-0.3,0.9
				C409.6,203.3,409.5,203.3,409.4,203.3z M402.9,202.7c-0.3,0-0.5-0.2-0.6-0.4l-1.5-3.7c-0.1-0.3,0-0.7,0.4-0.9
				c0.3-0.1,0.7,0,0.9,0.4l1.5,3.7c0.1,0.3,0,0.7-0.4,0.9C403.1,202.7,403,202.7,402.9,202.7z M406,196.1c-0.2,0-0.5-0.1-0.6-0.4
				l-1.7-3.6c-0.2-0.3,0-0.7,0.3-0.9c0.3-0.2,0.7,0,0.9,0.3l1.7,3.6c0.2,0.3,0,0.7-0.3,0.9C406.2,196.1,406.1,196.1,406,196.1z
				 M400,195.3c-0.3,0-0.5-0.2-0.6-0.4l-1.5-3.7c-0.1-0.3,0-0.7,0.4-0.9c0.3-0.1,0.7,0,0.9,0.4l1.5,3.7c0.1,0.3,0,0.7-0.4,0.9
				C400.1,195.3,400.1,195.3,400,195.3z M402.6,188.8c-0.2,0-0.5-0.1-0.6-0.4l-1.7-3.6c-0.2-0.3,0-0.7,0.3-0.9
				c0.3-0.2,0.7,0,0.9,0.3l1.7,3.6c0.2,0.3,0,0.7-0.3,0.9C402.8,188.8,402.7,188.8,402.6,188.8z M397.1,187.8
				c-0.3,0-0.5-0.2-0.6-0.4l-1.5-3.7c-0.1-0.3,0-0.7,0.4-0.9c0.3-0.1,0.7,0,0.9,0.4l1.5,3.7c0.1,0.3,0,0.7-0.4,0.9
				C397.2,187.8,397.1,187.8,397.1,187.8z M399.2,181.6c-0.2,0-0.5-0.1-0.6-0.4l-1.7-3.6c-0.2-0.3,0-0.7,0.3-0.9
				c0.3-0.2,0.7,0,0.9,0.3l1.7,3.6c0.2,0.3,0,0.7-0.3,0.9C399.4,181.5,399.3,181.6,399.2,181.6z M394.2,180.3
				c-0.3,0-0.5-0.2-0.6-0.4l-1.5-3.7c-0.1-0.3,0-0.7,0.4-0.9s0.7,0,0.9,0.4l1.5,3.7c0.1,0.3,0,0.7-0.4,0.9
				C394.3,180.3,394.2,180.3,394.2,180.3z M395.8,174.3c-0.2,0-0.5-0.1-0.6-0.4l-1.7-3.6c-0.2-0.3,0-0.7,0.3-0.9
				c0.3-0.2,0.7,0,0.9,0.3l1.7,3.6c0.2,0.3,0,0.7-0.3,0.9C396,174.3,395.9,174.3,395.8,174.3z M391.2,172.8c-0.3,0-0.5-0.2-0.6-0.4
				l-1.5-3.7c-0.1-0.3,0-0.7,0.4-0.9c0.3-0.1,0.7,0,0.9,0.4l1.5,3.7c0.1,0.3,0,0.7-0.4,0.9C391.4,172.8,391.3,172.8,391.2,172.8z
				 M392.4,167c-0.2,0-0.5-0.1-0.6-0.4l-1.7-3.6c-0.2-0.3,0-0.7,0.3-0.9c0.3-0.2,0.7,0,0.9,0.3l1.7,3.6c0.2,0.3,0,0.7-0.3,0.9
				C392.6,167,392.5,167,392.4,167z M388.3,165.4c-0.3,0-0.5-0.2-0.6-0.4l-1.5-3.7c-0.1-0.3,0-0.7,0.4-0.9c0.3-0.1,0.7,0,0.9,0.4
				l1.5,3.7c0.1,0.3,0,0.7-0.4,0.9C388.5,165.4,388.4,165.4,388.3,165.4z M389,159.8c-0.2,0-0.5-0.1-0.6-0.4l-1.7-3.6
				c-0.2-0.3,0-0.7,0.3-0.9c0.3-0.2,0.7,0,0.9,0.3l1.7,3.6c0.2,0.3,0,0.7-0.3,0.9C389.1,159.8,389,159.8,389,159.8z M385.4,157.9
				c-0.3,0-0.5-0.2-0.6-0.4l-1.5-3.7c-0.1-0.3,0-0.7,0.4-0.9c0.3-0.1,0.7,0,0.9,0.4l1.5,3.7c0.1,0.3,0,0.7-0.4,0.9
				C385.6,157.9,385.5,157.9,385.4,157.9z M385.5,152.5c-0.2,0-0.5-0.1-0.6-0.4l-1.7-3.6c-0.2-0.3,0-0.7,0.3-0.9
				c0.3-0.2,0.7,0,0.9,0.3l1.7,3.6c0.2,0.3,0,0.7-0.3,0.9C385.7,152.5,385.6,152.5,385.5,152.5z M382.5,150.4
				c-0.3,0-0.5-0.2-0.6-0.4l-1.5-3.7c-0.1-0.3,0-0.7,0.4-0.9c0.3-0.1,0.7,0,0.9,0.4l1.5,3.7c0.1,0.3,0,0.7-0.4,0.9
				C382.6,150.4,382.6,150.4,382.5,150.4z M382.1,145.2c-0.2,0-0.5-0.1-0.6-0.4l-1.5-3.2l0.2,0.4c0.1,0.3,0,0.7-0.4,0.9
				c-0.3,0.1-0.7,0-0.9-0.4l-1.5-3.7c-0.1-0.3,0-0.7,0.4-0.9c0.3-0.1,0.7,0,0.9,0.4l1,2.7c0-0.3,0.1-0.5,0.4-0.6
				c0.3-0.2,0.7,0,0.9,0.3l1.7,3.6c0.2,0.3,0,0.7-0.3,0.9C382.3,145.2,382.2,145.2,382.1,145.2z M378.7,138c-0.2,0-0.5-0.1-0.6-0.4
				l-1.1-2.3c0,0-0.1,0.1-0.2,0.1c-0.3,0.1-0.7,0-0.9-0.4l-1.5-3.7c-0.1-0.3,0-0.6,0.3-0.8c-0.1-0.1-0.1-0.1-0.1-0.2l-1.1-2.4
				c-0.2,0-0.4-0.2-0.5-0.4l-1.5-3.7c-0.1-0.3,0-0.7,0.4-0.9c0.3-0.1,0.7,0,0.9,0.4l1,2.5c0.1,0.1,0.3,0.2,0.4,0.3l1.7,3.6
				c0.1,0.3,0,0.7-0.2,0.8c0.1,0.1,0.1,0.1,0.1,0.2l0.9,2.3c0,0,0,0,0,0c0.3-0.2,0.7,0,0.9,0.3l1.7,3.6c0.2,0.3,0,0.7-0.3,0.9
				C378.9,138,378.8,138,378.7,138z"/>
		</g>
		<g>
			<path class="st4" d="M412,573c-0.3,0-0.6-0.3-0.7-0.6l-0.4-4c0-0.4,0.2-0.7,0.6-0.7c0.3,0,0.7,0.2,0.7,0.6l0.4,4
				C412.7,572.6,412.4,573,412,573C412,573,412,573,412,573z M411.3,565c-0.3,0-0.6-0.3-0.7-0.6l-0.4-4c0-0.4,0.2-0.7,0.6-0.7
				c0.4,0,0.7,0.2,0.7,0.6l0.4,4C411.9,564.7,411.7,565,411.3,565C411.3,565,411.3,565,411.3,565z M410.5,557
				c-0.3,0-0.6-0.3-0.7-0.6l-0.4-4c0-0.4,0.2-0.7,0.6-0.7c0.4,0,0.7,0.2,0.7,0.6l0.4,4C411.2,556.7,411,557,410.5,557
				C410.6,557,410.6,557,410.5,557z M409.8,549c-0.3,0-0.6-0.3-0.7-0.6l-0.4-4c0-0.4,0.2-0.7,0.6-0.7c0.3,0,0.7,0.2,0.7,0.6l0.4,4
				C410.5,548.7,410.3,549,409.8,549C409.9,549,409.9,549,409.8,549z M409.1,541c-0.3,0-0.6-0.3-0.7-0.6l-0.4-4
				c0-0.4,0.2-0.7,0.6-0.7c0.4,0,0.7,0.2,0.7,0.6l0.4,4C409.8,540.7,409.6,541,409.1,541C409.2,541,409.2,541,409.1,541z M408.4,533
				c-0.3,0-0.6-0.3-0.7-0.6l-0.4-4c0-0.4,0.2-0.7,0.6-0.7c0.4,0,0.7,0.2,0.7,0.6l0.4,4C409.1,532.7,408.8,533,408.4,533
				C408.5,533,408.4,533,408.4,533z M407.7,525c-0.3,0-0.6-0.3-0.7-0.6l-0.4-4c0-0.4,0.2-0.7,0.6-0.7c0.3,0,0.7,0.2,0.7,0.6l0.4,4
				C408.4,524.7,408.1,525,407.7,525C407.8,525,407.7,525,407.7,525z M407,517c-0.3,0-0.6-0.3-0.7-0.6l-0.4-4c0-0.4,0.2-0.7,0.6-0.7
				c0.3,0,0.7,0.2,0.7,0.6l0.4,4C407.7,516.7,407.4,517,407,517C407.1,517,407,517,407,517z M406.3,509.1c-0.3,0-0.6-0.3-0.7-0.6
				l-0.4-4c0-0.4,0.2-0.7,0.6-0.7c0.3,0,0.7,0.2,0.7,0.6l0.4,4C407,508.7,406.7,509,406.3,509.1
				C406.3,509.1,406.3,509.1,406.3,509.1z M405.6,501.1c-0.3,0-0.6-0.3-0.7-0.6l-0.4-4c0-0.4,0.2-0.7,0.6-0.7c0.3,0,0.7,0.2,0.7,0.6
				l0.4,4C406.3,500.7,406,501,405.6,501.1C405.6,501.1,405.6,501.1,405.6,501.1z M404.9,493.1c-0.3,0-0.6-0.3-0.7-0.6l-0.4-4
				c0-0.4,0.2-0.7,0.6-0.7c0.3,0,0.7,0.2,0.7,0.6l0.4,4C405.6,492.7,405.3,493,404.9,493.1C404.9,493.1,404.9,493.1,404.9,493.1z
				 M404.2,485.1c-0.3,0-0.6-0.3-0.7-0.6l-0.4-4c0-0.4,0.2-0.7,0.6-0.7c0.3,0,0.7,0.2,0.7,0.6l0.4,4
				C404.9,484.7,404.6,485,404.2,485.1C404.2,485.1,404.2,485.1,404.2,485.1z M403.5,477.1c-0.3,0-0.6-0.3-0.7-0.6l-0.4-4
				c0-0.4,0.2-0.7,0.6-0.7c0.4,0,0.7,0.2,0.7,0.6l0.4,4C404.2,476.7,403.9,477,403.5,477.1C403.5,477.1,403.5,477.1,403.5,477.1z
				 M402.8,469.1c-0.3,0-0.6-0.3-0.7-0.6l-0.4-4c0-0.4,0.2-0.7,0.6-0.7c0.4,0,0.7,0.2,0.7,0.6l0.4,4
				C403.5,468.7,403.2,469.1,402.8,469.1C402.8,469.1,402.8,469.1,402.8,469.1z M402.1,461.1c-0.3,0-0.6-0.3-0.7-0.6l-0.4-4
				c0-0.4,0.2-0.7,0.6-0.7c0.3,0,0.7,0.2,0.7,0.6l0.4,4C402.8,460.7,402.5,461.1,402.1,461.1C402.1,461.1,402.1,461.1,402.1,461.1z
				 M401.4,453.1c-0.3,0-0.6-0.3-0.7-0.6l-0.4-4c0-0.4,0.2-0.7,0.6-0.7c0.3,0,0.7,0.2,0.7,0.6l0.4,4
				C402,452.8,401.8,453.1,401.4,453.1C401.4,453.1,401.4,453.1,401.4,453.1z M400.6,445.1c-0.3,0-0.6-0.3-0.7-0.6l-0.4-4
				c0-0.4,0.2-0.7,0.6-0.7c0.3,0,0.7,0.2,0.7,0.6l0.4,4C401.3,444.8,401.1,445.1,400.6,445.1C400.7,445.1,400.7,445.1,400.6,445.1z
				 M399.9,437.1c-0.3,0-0.6-0.3-0.7-0.6l-0.4-4c0-0.4,0.2-0.7,0.6-0.7c0.3,0,0.7,0.2,0.7,0.6l0.4,4
				C400.6,436.8,400.4,437.1,399.9,437.1C400,437.1,400,437.1,399.9,437.1z M399.2,429.1c-0.3,0-0.6-0.3-0.7-0.6l-0.4-4
				c0-0.4,0.2-0.7,0.6-0.7c0.3,0,0.7,0.2,0.7,0.6l0.4,4C399.9,428.8,399.7,429.1,399.2,429.1C399.3,429.1,399.3,429.1,399.2,429.1z
				 M398.5,421.1c-0.3,0-0.6-0.3-0.7-0.6l-0.4-4c0-0.4,0.2-0.7,0.6-0.7c0.3,0,0.7,0.2,0.7,0.6l0.4,4
				C399.2,420.8,398.9,421.1,398.5,421.1C398.6,421.1,398.5,421.1,398.5,421.1z M397.8,413.1c-0.3,0-0.6-0.3-0.7-0.6l-0.4-4
				c0-0.4,0.2-0.7,0.6-0.7c0.4,0,0.7,0.2,0.7,0.6l0.4,4C398.5,412.8,398.2,413.1,397.8,413.1C397.9,413.1,397.8,413.1,397.8,413.1z
				 M397.1,405.1c-0.3,0-0.6-0.3-0.7-0.6l-0.4-4c0-0.4,0.2-0.7,0.6-0.7c0.4,0,0.7,0.2,0.7,0.6l0.4,4
				C397.8,404.8,397.5,405.1,397.1,405.1C397.2,405.1,397.1,405.1,397.1,405.1z M396.4,397.2c-0.3,0-0.6-0.3-0.7-0.6l-0.4-4
				c0-0.4,0.2-0.7,0.6-0.7c0.3,0,0.7,0.2,0.7,0.6l0.4,4C397.1,396.8,396.8,397.1,396.4,397.2C396.4,397.2,396.4,397.2,396.4,397.2z
				 M395.7,389.2c-0.3,0-0.6-0.3-0.7-0.6l-0.4-4c0-0.4,0.2-0.7,0.6-0.7c0.3,0,0.7,0.2,0.7,0.6l0.4,4
				C396.4,388.8,396.1,389.1,395.7,389.2C395.7,389.2,395.7,389.2,395.7,389.2z M395,381.2c-0.3,0-0.6-0.3-0.7-0.6l-0.4-4
				c0-0.4,0.2-0.7,0.6-0.7c0.4,0,0.7,0.2,0.7,0.6l0.4,4C395.7,380.8,395.4,381.1,395,381.2C395,381.2,395,381.2,395,381.2z
				 M394.3,373.2c-0.3,0-0.6-0.3-0.7-0.6l-0.4-4c0-0.4,0.2-0.7,0.6-0.7c0.4,0,0.7,0.2,0.7,0.6l0.4,4
				C395,372.8,394.7,373.1,394.3,373.2C394.3,373.2,394.3,373.2,394.3,373.2z M393.6,365.2c-0.3,0-0.6-0.3-0.7-0.6l-0.4-4
				c0-0.4,0.2-0.7,0.6-0.7c0.3,0,0.7,0.2,0.7,0.6l0.4,4C394.3,364.8,394,365.1,393.6,365.2C393.6,365.2,393.6,365.2,393.6,365.2z
				 M392.9,357.2c-0.3,0-0.6-0.3-0.7-0.6l-0.4-4c0-0.4,0.2-0.7,0.6-0.7c0.3,0,0.7,0.2,0.7,0.6l0.4,4
				C393.6,356.8,393.3,357.2,392.9,357.2C392.9,357.2,392.9,357.2,392.9,357.2z M392.2,349.2c-0.3,0-0.6-0.3-0.7-0.6l-0.4-4
				c0-0.4,0.2-0.7,0.6-0.7c0.3,0,0.7,0.2,0.7,0.6l0.4,4C392.9,348.8,392.6,349.2,392.2,349.2C392.2,349.2,392.2,349.2,392.2,349.2z
				 M391.5,341.2c-0.3,0-0.6-0.3-0.7-0.6l-0.4-4c0-0.4,0.2-0.7,0.6-0.7c0.3,0,0.7,0.2,0.7,0.6l0.4,4
				C392.1,340.8,391.9,341.2,391.5,341.2C391.5,341.2,391.5,341.2,391.5,341.2z M390.8,333.2c-0.3,0-0.6-0.3-0.7-0.6l-0.4-4
				c0-0.4,0.2-0.7,0.6-0.7c0.3,0,0.7,0.2,0.7,0.6l0.4,4C391.4,332.9,391.2,333.2,390.8,333.2C390.8,333.2,390.8,333.2,390.8,333.2z
				 M390,325.2c-0.3,0-0.6-0.3-0.7-0.6l-0.4-4c0-0.4,0.2-0.7,0.6-0.7c0.4,0,0.7,0.2,0.7,0.6l0.4,4
				C390.7,324.9,390.5,325.2,390,325.2C390.1,325.2,390.1,325.2,390,325.2z M389.3,317.2c-0.3,0-0.6-0.3-0.7-0.6l-0.4-4
				c0-0.4,0.2-0.7,0.6-0.7c0.4,0,0.7,0.2,0.7,0.6l0.4,4C390,316.9,389.8,317.2,389.3,317.2C389.4,317.2,389.4,317.2,389.3,317.2z
				 M388.6,309.2c-0.3,0-0.6-0.3-0.7-0.6l-0.4-4c0-0.4,0.2-0.7,0.6-0.7c0.3,0,0.7,0.2,0.7,0.6l0.4,4
				C389.3,308.9,389.1,309.2,388.6,309.2C388.7,309.2,388.6,309.2,388.6,309.2z M387.9,301.2c-0.3,0-0.6-0.3-0.7-0.6l-0.4-4
				c0-0.4,0.2-0.7,0.6-0.7c0.3,0,0.7,0.2,0.7,0.6l0.4,4C388.6,300.9,388.3,301.2,387.9,301.2C388,301.2,387.9,301.2,387.9,301.2z
				 M387.2,293.2c-0.3,0-0.6-0.3-0.7-0.6l-0.4-4c0-0.4,0.2-0.7,0.6-0.7c0.3,0,0.7,0.2,0.7,0.6l0.4,4
				C387.9,292.9,387.6,293.2,387.2,293.2C387.3,293.2,387.2,293.2,387.2,293.2z M386.5,285.3c-0.3,0-0.6-0.3-0.7-0.6l-0.4-4
				c0-0.4,0.2-0.7,0.6-0.7c0.3,0,0.7,0.2,0.7,0.6l0.4,4C387.2,284.9,386.9,285.2,386.5,285.3C386.5,285.3,386.5,285.3,386.5,285.3z
				 M385.8,277.3c-0.3,0-0.6-0.3-0.7-0.6l-0.4-4c0-0.4,0.2-0.7,0.6-0.7c0.3,0,0.7,0.2,0.7,0.6l0.4,4
				C386.5,276.9,386.2,277.2,385.8,277.3C385.8,277.3,385.8,277.3,385.8,277.3z M385.1,269.3c-0.3,0-0.6-0.3-0.7-0.6l-0.4-4
				c0-0.4,0.2-0.7,0.6-0.7c0.3,0,0.7,0.2,0.7,0.6l0.4,4C385.8,268.9,385.5,269.2,385.1,269.3C385.1,269.3,385.1,269.3,385.1,269.3z
				 M384.4,261.3c-0.3,0-0.6-0.3-0.7-0.6l-0.4-4c0-0.4,0.2-0.7,0.6-0.7c0.4,0,0.7,0.2,0.7,0.6l0.4,4
				C385.1,260.9,384.8,261.2,384.4,261.3C384.4,261.3,384.4,261.3,384.4,261.3z M383.7,253.3c-0.3,0-0.6-0.3-0.7-0.6l-0.4-4
				c0-0.4,0.2-0.7,0.6-0.7c0.3,0,0.7,0.2,0.7,0.6l0.4,4C384.4,252.9,384.1,253.2,383.7,253.3C383.7,253.3,383.7,253.3,383.7,253.3z
				 M383,245.3c-0.3,0-0.6-0.3-0.7-0.6l-0.4-4c0-0.4,0.2-0.7,0.6-0.7c0.3,0,0.7,0.2,0.7,0.6l0.4,4
				C383.7,244.9,383.4,245.3,383,245.3C383,245.3,383,245.3,383,245.3z M382.3,237.3c-0.3,0-0.6-0.3-0.7-0.6l-0.4-4
				c0-0.4,0.2-0.7,0.6-0.7c0.3,0,0.7,0.2,0.7,0.6l0.4,4C383,236.9,382.7,237.3,382.3,237.3C382.3,237.3,382.3,237.3,382.3,237.3z
				 M381.6,229.3c-0.3,0-0.6-0.3-0.7-0.6l-0.4-4c0-0.4,0.2-0.7,0.6-0.7c0.3,0,0.7,0.2,0.7,0.6l0.4,4
				C382.2,228.9,382,229.3,381.6,229.3C381.6,229.3,381.6,229.3,381.6,229.3z M380.9,221.3c-0.3,0-0.6-0.3-0.7-0.6l-0.4-4
				c0-0.4,0.2-0.7,0.6-0.7c0.3,0,0.7,0.2,0.7,0.6l0.4,4C381.5,221,381.3,221.3,380.9,221.3C380.9,221.3,380.9,221.3,380.9,221.3z
				 M380.1,213.3c-0.3,0-0.6-0.3-0.7-0.6l-0.4-4c0-0.4,0.2-0.7,0.6-0.7c0.3,0,0.7,0.2,0.7,0.6l0.4,4
				C380.8,213,380.6,213.3,380.1,213.3C380.2,213.3,380.2,213.3,380.1,213.3z M379.4,205.3c-0.3,0-0.6-0.3-0.7-0.6l-0.4-4
				c0-0.4,0.2-0.7,0.6-0.7c0.3,0,0.7,0.2,0.7,0.6l0.4,4C380.1,205,379.9,205.3,379.4,205.3C379.5,205.3,379.5,205.3,379.4,205.3z
				 M378.7,197.3c-0.3,0-0.6-0.3-0.7-0.6l-0.4-4c0-0.4,0.2-0.7,0.6-0.7c0.3,0,0.7,0.2,0.7,0.6l0.4,4
				C379.4,197,379.2,197.3,378.7,197.3C378.8,197.3,378.8,197.3,378.7,197.3z M378,189.3c-0.3,0-0.6-0.3-0.7-0.6l-0.4-4
				c0-0.4,0.2-0.7,0.6-0.7c0.3,0,0.7,0.2,0.7,0.6l0.4,4C378.7,189,378.4,189.3,378,189.3C378.1,189.3,378,189.3,378,189.3z
				 M377.3,181.3c-0.3,0-0.6-0.3-0.7-0.6l-0.4-4c0-0.4,0.2-0.7,0.6-0.7c0.3,0,0.7,0.2,0.7,0.6l0.4,4
				C378,181,377.7,181.3,377.3,181.3C377.4,181.3,377.3,181.3,377.3,181.3z M376.6,173.4c-0.3,0-0.6-0.3-0.7-0.6l-0.4-4
				c0-0.4,0.2-0.7,0.6-0.7c0.3,0,0.7,0.2,0.7,0.6l0.4,4C377.3,173,377,173.3,376.6,173.4C376.7,173.4,376.6,173.4,376.6,173.4z
				 M375.9,165.4c-0.3,0-0.6-0.3-0.7-0.6l-0.4-4c0-0.4,0.2-0.7,0.6-0.7c0.3,0,0.7,0.2,0.7,0.6l0.4,4
				C376.6,165,376.3,165.3,375.9,165.4C375.9,165.4,375.9,165.4,375.9,165.4z M375.2,157.4c-0.3,0-0.6-0.3-0.7-0.6l-0.4-4
				c0-0.4,0.2-0.7,0.6-0.7c0.3,0,0.7,0.2,0.7,0.6l0.4,4C375.9,157,375.6,157.3,375.2,157.4C375.2,157.4,375.2,157.4,375.2,157.4z
				 M374.5,149.4c-0.3,0-0.6-0.3-0.7-0.6l-0.4-4c0-0.4,0.2-0.7,0.6-0.7c0.3,0,0.7,0.2,0.7,0.6l0.4,4
				C375.2,149,374.9,149.3,374.5,149.4C374.5,149.4,374.5,149.4,374.5,149.4z M373.8,141.4c-0.3,0-0.6-0.3-0.7-0.6l-0.4-4
				c0-0.4,0.2-0.7,0.6-0.7c0.4,0,0.7,0.2,0.7,0.6l0.4,4C374.5,141,374.2,141.3,373.8,141.4C373.8,141.4,373.8,141.4,373.8,141.4z
				 M373.1,133.4c-0.3,0-0.6-0.3-0.7-0.6l-0.4-4c0-0.4,0.2-0.7,0.6-0.7c0.3,0,0.7,0.2,0.7,0.6l0.4,4
				C373.8,133,373.5,133.4,373.1,133.4C373.1,133.4,373.1,133.4,373.1,133.4z M372.4,125.4c-0.3,0-0.6-0.3-0.7-0.6l-0.1-1.1
				c0-0.4,0.2-0.7,0.6-0.7c0.3,0,0.7,0.2,0.7,0.6l0.1,1.1C373.1,125,372.8,125.4,372.4,125.4C372.4,125.4,372.4,125.4,372.4,125.4z"
				/>
		</g>
	</g>
</g>
<text transform="matrix(1 0 0 1 153.8838 425.9141)" class="st1 st6 st7">EX HEX C</text>
</svg>
