<?xml version="1.0" encoding="utf-8"?>
<!-- Generator: Adobe Illustrator 22.1.0, SVG Export Plug-In . SVG Version: 6.00 Build 0)  -->
<svg version="1.1" id="Layer_1" xmlns="http://www.w3.org/2000/svg" xmlns:xlink="http://www.w3.org/1999/xlink" x="0px" y="0px"
	 viewBox="0 0 720 720" style="enable-background:new 0 0 720 720;" xml:space="preserve">
<style type="text/css">
	.st0{fill:#181818;}
	.st1{fill:#FFFFFF;}
</style>
<rect class="st0" width="720" height="720"/>
<path class="st1" d="M165.4,295.8v114.3H155V396c-9.4,11.3-20.2,16.9-32.4,16.9s-22.4-4.3-30.7-12.9s-12.4-18.9-12.4-30.9
	s4.2-22.3,12.6-30.8s18.4-12.8,30.1-12.8c13.5,0,24.4,5.7,32.8,17.2v-46.9L165.4,295.8L165.4,295.8z M155.7,369.4
	c0-9.4-3.1-17.4-9.3-23.9s-14-9.8-23.3-9.8s-17.1,3.3-23.4,10s-9.4,14.5-9.4,23.6s3.2,17,9.6,23.7s14,10.1,22.7,10.1
	s16.4-3.2,23.1-9.5C152.3,387.2,155.7,379.1,155.7,369.4z M271.6,327.6v82.5h-10.4V396c-9.4,11.3-20.2,16.9-32.3,16.9
	s-22.3-4.3-30.7-13c-8.3-8.6-12.5-18.9-12.5-30.9s4.2-22.2,12.6-30.7s18.4-12.8,30.1-12.8c13.5,0,24.4,5.7,32.8,17.2v-15.1H271.6z
	 M261.9,369.2c0-9.4-3.2-17.4-9.5-23.8c-6.3-6.5-14.1-9.7-23.2-9.7c-9.2,0-16.9,3.3-23.2,10s-9.5,14.6-9.5,23.7s3.2,17,9.6,23.7
	c6.4,6.7,14.1,10,23.1,10s16.6-3.2,23.1-9.6C258.6,387,261.9,379,261.9,369.2z M377.7,327.6v82.5h-10.4V396
	c-9.4,11.3-20.2,16.9-32.3,16.9c-12.1,0-22.3-4.3-30.7-13c-8.3-8.6-12.5-18.9-12.5-30.9s4.2-22.2,12.6-30.7s18.4-12.8,30.1-12.8
	c13.5,0,24.4,5.7,32.8,17.2v-15.1H377.7z M367.9,369.2c0-9.4-3.2-17.4-9.5-23.8c-6.3-6.5-14.1-9.7-23.2-9.7c-9.2,0-16.9,3.3-23.2,10
	c-6.3,6.7-9.5,14.6-9.5,23.7s3.2,17,9.6,23.7s14.1,10,23.1,10s16.6-3.2,23.1-9.6C364.7,387,367.9,379,367.9,369.2z M483.7,327.6
	v82.5h-10.4V396c-9.4,11.3-20.2,16.9-32.3,16.9s-22.3-4.3-30.7-13c-8.3-8.6-12.5-18.9-12.5-30.9s4.2-22.2,12.6-30.7
	s18.4-12.8,30.1-12.8c13.5,0,24.4,5.7,32.8,17.2v-15.1H483.7z M474,369.2c0-9.4-3.2-17.4-9.5-23.8c-6.3-6.5-14.1-9.7-23.2-9.7
	s-16.9,3.3-23.2,10c-6.3,6.7-9.5,14.6-9.5,23.7s3.2,17,9.6,23.7s14.1,10,23.1,10s16.6-3.2,23.1-9.6C470.8,387,474,379,474,369.2z
	 M517,410.3v-73.7h-14.6v-9H517v-31.8h10.7v31.8h16.8v9h-16.8v73.7H517z M642.4,327.6v82.5H632V396c-9.4,11.3-20.2,16.9-32.3,16.9
	s-22.3-4.3-30.7-13c-8.3-8.6-12.5-18.9-12.5-30.9s4.2-22.2,12.6-30.7s18.4-12.8,30.1-12.8c13.5,0,24.4,5.7,32.8,17.2v-15.1H642.4z
	 M632.6,369.2c0-9.4-3.2-17.4-9.5-23.8c-6.3-6.5-14.1-9.7-23.2-9.7s-16.9,3.3-23.2,10s-9.5,14.6-9.5,23.7s3.2,17,9.6,23.7
	c6.4,6.7,14.1,10,23.1,10s16.6-3.2,23.1-9.6C629.4,387,632.6,379,632.6,369.2z M477.5,307.3c0-1.9-1.6-3.5-3.5-3.5
	c-3.5,0-6.4-8.7-8.7-15.6c-3.4-10-6.8-20.4-15.4-20.4s-12,10.4-15.4,20.4c-2.3,7-5.2,15.6-8.7,15.6s-6.4-8.7-8.7-15.6
	c-3.4-10-6.8-20.4-15.4-20.4s-12,10.4-15.4,20.4c-2.3,7-5.2,15.6-8.7,15.6s-6.4-8.7-8.7-15.6c-3.4-10-6.8-20.4-15.4-20.4
	c-8.5,0-12,10.4-15.4,20.4c-2.3,7-5.2,15.6-8.7,15.6s-6.4-8.7-8.7-15.6c-3.4-10-6.8-20.4-15.4-20.4s-12,10.4-15.4,20.4
	c-2.3,7-5.2,15.6-8.7,15.6s-6.4-8.7-8.7-15.6c-3.4-10-6.8-20.4-15.4-20.4c-8.5,0-12,10.4-15.4,20.4c-2.3,7-5.2,15.6-8.7,15.6
	s-6.4-8.7-8.7-15.6c-3.4-10-6.8-20.4-15.4-20.4c-1.9,0-3.5,1.6-3.5,3.5s1.6,3.5,3.5,3.5c3.5,0,6.4,8.7,8.7,15.6
	c3.4,10,6.8,20.4,15.4,20.4c8.5,0,12-10.4,15.4-20.4c2.3-7,5.2-15.6,8.7-15.6s6.4,8.7,8.7,15.6c3.4,10,6.8,20.4,15.4,20.4
	c8.5,0,12-10.4,15.4-20.4c2.3-7,5.2-15.6,8.7-15.6s6.4,8.7,8.7,15.6c3.4,10,6.8,20.4,15.4,20.4c8.5,0,12-10.4,15.4-20.4
	c2.3-7,5.2-15.6,8.7-15.6s6.4,8.7,8.7,15.6c3.4,10,6.8,20.4,15.4,20.4s12-10.4,15.4-20.4c2.3-7,5.2-15.6,8.7-15.6s6.4,8.7,8.7,15.6
	c3.4,10,6.8,20.4,15.4,20.4s12-10.4,15.4-20.4c2.3-7,5.2-15.6,8.7-15.6s6.4,8.7,8.7,15.6c3.4,10,6.8,20.4,15.4,20.4
	C475.9,310.8,477.5,309.2,477.5,307.3z M600.4,277.1c-6.7,0-12.1,5.4-12.1,12.1s5.4,12.1,12.1,12.1s12.1-5.4,12.1-12.1
	S607.1,277.1,600.4,277.1z"/>
</svg>
