<?xml version="1.0" encoding="utf-8"?>
<!-- Generator: Adobe Illustrator 22.1.0, SVG Export Plug-In . SVG Version: 6.00 Build 0)  -->
<svg version="1.1" id="Layer_1" xmlns="http://www.w3.org/2000/svg" xmlns:xlink="http://www.w3.org/1999/xlink" x="0px" y="0px"
	 viewBox="0 0 720 720" style="enable-background:new 0 0 720 720;" xml:space="preserve">
<style type="text/css">
	.st0{fill:#191918;}
	.st1{fill:#FFFFFF;}
</style>
<rect y="1" class="st0" width="720" height="720"/>
<path class="st1" d="M460.7,353.4H153.4c-2,0-2,3.4,0,3.4h307.4C462.8,356.8,462.8,353.4,460.7,353.4z"/>
<path class="st1" d="M460.7,384.1H153.4c-2,0-2,3.4,0,3.4h307.4C462.8,387.5,462.8,384.1,460.7,384.1z"/>
<path class="st1" d="M460.7,414.9H153.4c-2,0-2,3.4,0,3.4h307.4C462.8,418.3,462.8,414.9,460.7,414.9z"/>
<path class="st1" d="M573.5,388.6c-8.9,6.8-19.8,10.2-31.1,9.9c-7.9-0.3-13-0.7-10.9-9.2c1.4-5.5,4.1-10.2,6.1-15
	c4.8-11.3,6.1-23.6-4.8-31.8c-10.9-8.2-27-8.5-40-6.8c-17.8,2.4-41.7,6.8-51.6-12.3c-4.1-7.5-6.5-14-14.3-18.1
	c-7.5-4.1-16.1-5.1-24.2-4.1c-9.6,1-18.1,4.4-27,7.9c-11.3,4.1-22.5,7.5-34.5,9.9c-12.3,2.4-24.6,3.8-36.9,4.4
	c-10.2,0.3-24.2,1.4-32.1-6.5c-10.9-10.6,3.8-35.5-16.7-38.9c-16.7-2.7-35.9,10.2-49.5,18.1c-17.8,10.2-37.2,22.9-58.4,15.4
	c-2-0.7-3.1,2.7-1,3.4c28.7,9.9,54.6-13.7,78.9-25.6c7.5-3.8,16.1-7.5,24.6-7.9c18.8-1.4,13,16.1,14.7,27.3
	c2,12,12.6,16.7,23.9,17.8c18.8,2,38.6-1,57-4.8c10.2-2,20.2-5.1,30.1-8.5c9.9-3.4,19.8-7.9,30.4-8.5c9.6-0.7,20.2,1.7,26.6,9.2
	c5.5,6.5,6.5,15.4,13.3,20.8c9.9,8.2,24.6,7.5,36.9,6.1c16.1-1.7,36.5-6.5,49.9,5.5c16.1,14.7-6.8,34.5-4.8,51.6
	c0,0.7,0.3,1.4,1.4,1.7c16.1,5.1,32.8,2,46.1-7.9C576.9,390.3,575.2,387.5,573.5,388.6z"/>
</svg>
